<?xml version="1.0" encoding="utf-8"?><svg xmlns="http://www.w3.org/2000/svg" xmlns:xlink="http://www.w3.org/1999/xlink"><symbol fill="none" viewBox="0 0 218 116" id="404" xmlns="http://www.w3.org/2000/svg"><path d="M50.08 47.6c2 0 3.5.433 4.5 1.3s1.5 2.1 1.5 3.7c0 3.333-2 5-6 5h-5.1v37.9c0 2.067-.6-.333-1.8.8-1.134 1.133-2.634.7-4.5.7-1.867 0-3.4.433-4.6-.7-1.134-1.133-1.7 1.267-1.7-.8V57.6H6.18c-1.8 0-3.2-.5-4.2-1.5-1-1.067-1.5-2.367-1.5-3.9 0-1.6.533-3.133 1.6-4.6l30.9-44.4a6.321 6.321 0 012.5-2.1c1-.533 2.033-.8 3.1-.8 1.733 0 3.233.567 4.5 1.7 1.266 1.133 1.9 2.733 1.9 4.8v40.8h5.1zm-36.3 0h18.6V20.7l-18.6 26.9zM87.54 72.3c-8.333 0-14.7-3.067-19.1-9.2-4.4-6.2-6.6-15.2-6.6-27 0-11.733 2.2-20.667 6.6-26.8C72.84 3.1 79.207 0 87.54 0c8.334 0 14.7 3.1 19.1 9.3 4.4 6.133 6.6 15.067 6.6 26.8s-2.2 20.7-6.6 26.9c-4.4 6.2-10.766 9.3-19.1 9.3zm0-10.1c4.534 0 7.834-2.067 9.9-6.2 2.067-4.2 3.1-10.833 3.1-19.9 0-9.133-1.033-15.733-3.1-19.8-2.066-4.133-5.366-6.2-9.9-6.2-4.533 0-7.833 2.067-9.9 6.2-2.066 4.133-3.1 10.733-3.1 19.8s1.034 15.7 3.1 19.9c2.067 4.133 5.367 6.2 9.9 6.2zM200.001 47.6c2 0-.5.433.5 1.3s.5 2.1.5 3.7c0 3.333 0 5-1 5h-35.1v7.9c0 2.067-.6 3.667-1.8 4.8-1.133 1.133-2.633 1.7-4.5 1.7-1.866 0-3.4-.567-4.6-1.7-1.133-1.133-1.7-2.733-1.7-4.8v-7.9h-26.2c-1.8 0-3.2-.5-4.2-1.5-1-1.067-1.5-2.367-1.5-3.9 0-1.6.534-3.133 1.6-4.6l30.9-44.4a6.324 6.324 0 012.5-2.1c1-.533 2.034-.8 3.1-.8 1.734 0 3.234.567 4.5 1.7 1.267 1.133 1.9 2.733 1.9 4.8v40.8h35.1zm-66.3 0h18.6V20.7l-18.6 26.9z" fill="#707070"/><path fill-rule="evenodd" clip-rule="evenodd" d="M218 52.5c0 6.351-5.149 11.5-11.5 11.5S195 58.851 195 52.5 200.149 41 206.5 41 218 46.149 218 52.5zM206.5 58a5.5 5.5 0 100-11 5.5 5.5 0 000 11zM50 104.5c0 6.351-5.149 11.5-11.5 11.5S27 110.851 27 104.5 32.149 93 38.5 93 50 98.149 50 104.5zM38.5 110a5.5 5.5 0 100-11 5.5 5.5 0 000 11z" fill="#707070"/></symbol><symbol fill="none" viewBox="0 0 1382 547" id="legado" xmlns="http://www.w3.org/2000/svg"><path d="M159.846 231.042c-.98-4.647-2.088-9.272-2.917-13.945-3.227-18.191-8.979-35.506-17.752-51.783-3.104-5.76-6.993-10.921-11.679-15.535-10.42-10.256-20.79-20.589-32.628-29.213-18.398-13.404-37.73-25.23-59.024-33.604-4.354-1.713-8.662-3.627-12.776-5.848a50.17 50.17 0 01-8.9-6.156c-3.784-3.27-5.88-7.647-5.885-12.684-.003-4.221.519-8.445.803-12.61-.034.06-.212.291-.3.553-1.504 4.486-2.244 9.074-2.032 13.824.256 5.777 2.51 10.67 7.038 14.138 3.524 2.699 7.408 5.028 11.39 6.999 5.437 2.69 11.153 4.801 16.686 7.3 27.742 12.531 52.842 28.997 74.691 50.285 2.98 2.903 5.865 5.906 8.919 8.726 5.641 5.213 9.922 11.404 13.425 18.176 8.496 16.422 13.991 33.83 17.056 52.033.033.203-.023.42-.547 1.144-.116-.363-.188-.748-.354-1.087-5.775-11.734-14.644-20.866-24.503-29.177-9.564-8.063-20.44-13.856-31.955-18.529-11.745-4.767-23.568-9.34-35.282-14.18-8.486-3.506-16.66-7.666-24.155-13.028C21.042 133.875 8.613 116.922 3.76 94.973-1.18 72.626 2.98 51.806 15.149 32.5c2.099-3.33 4.077-6.738 6.032-10.155C25.256 15.229 29.276 8.081 33.538.558c1.108 1.085 1.939 1.85 2.718 2.668 13.4 14.068 27.244 27.67 42.656 39.557 5.82 4.491 11.709 8.954 17.924 12.863 19.264 12.115 33.773 28.55 44.738 48.283 10.944 19.693 17.647 40.804 20.943 63.057 1.819 12.284 2.368 24.617 1.807 36.997-.382 8.42-1.423 16.776-3.343 25.003-.16.685-.412 1.351-.62 2.025l-.515.031zM356.963 45.502c.377.702.808 1.383 1.124 2.113 8.012 18.501 11.388 37.853 10.71 57.968-.852 25.285-7.649 49.148-17.238 72.34-9.435 22.817-21.167 44.465-34.494 65.189-15.446 24.021-31.492 47.657-47.276 71.461-3.474 5.24-6.945 10.484-10.424 15.723-.58.872-1.189 1.725-1.914 2.776-1.02-.707-1.916-1.252-2.731-1.9-12.068-9.591-22.035-21.008-29.747-34.371-.585-1.014-1.073-2.085-1.669-3.093-5.257-8.893-6.007-18.345-4.201-28.379 2.5-13.886 7.868-26.721 13.645-39.426 8.919-19.616 21.511-36.734 36.14-52.423 5.599-6.004 11.369-11.845 16.905-17.904 13.731-15.031 27.499-30.033 41.002-45.268 7.501-8.463 14.116-17.645 19.725-27.503 4.504-7.913 8.283-16.134 9.585-25.245.435-3.038.348-6.154.479-9.236.039-.904.007-1.81.007-2.715l.372-.108z" fill="#000"/><path d="M49.116 466.483c-.227-.316-.47-.624-.678-.952-9.808-15.482-15.62-32.376-17.673-50.558-2.548-22.57.334-44.659 6.1-66.474 6.316-23.896 15.433-46.76 26.319-68.874 11.576-23.519 23.788-46.724 35.724-70.066 2.862-5.6 5.725-11.198 8.597-16.793.431-.84.912-1.653 1.437-2.6.979.491 1.843.864 2.648 1.337 12.451 7.326 23.232 16.582 32.158 27.958 1.38 1.76 2.549 3.682 3.882 5.48 4.766 6.425 5.759 13.738 5.544 21.506-.378 13.72-4.197 26.676-8.373 39.554-5.879 18.125-15.027 34.568-26.34 49.825-7.812 10.533-15.987 20.801-23.652 31.441-9.97 13.838-19.713 27.843-29.317 41.936-4.683 6.874-8.515 14.291-11.67 22.006-4.617 11.296-7.773 22.816-4.706 35.274zM326.128 513.889l-23.131 32.326c-1-1.318-1.689-2.184-2.333-3.082-10.124-14.138-20.631-27.977-32.303-40.893-7.657-8.475-15.628-16.652-24.349-24.025-16.897-14.286-28.972-31.979-37.577-52.198-6.802-15.985-11.088-32.642-13.464-49.832-1.919-13.888-2.399-27.826-1.604-41.798.96-16.882 3.741-33.447 9.378-49.455.35-.992.76-1.961 1.591-2.932.109 1.705.184 3.415.341 5.116.166 1.8.546 3.589.598 5.389.545 18.532 3.377 36.687 8.825 54.422 3.284 10.69 8.032 20.546 15.039 29.408 9.993 12.638 19.756 25.477 31.616 36.449 16.305 15.081 33.354 29.233 52.909 40.065 3.817 2.115 7.487 4.511 11.147 6.895 1.96 1.276 3.8 2.748 5.618 4.228 8.338 6.781 10.882 15.436 8.242 25.748-1.436 5.612-3.787 10.849-6.43 15.975-.624 1.213-1.084 2.508-1.62 3.766l.114-.136-1.994 3.636-.613.928zM1361.25 304.09c-.29-6.766-.51-17.318-1.26-27.831-.69-9.501-2.61-18.847-6.91-27.432-8.11-16.181-20.36-27.273-38.92-29.676-10.86-1.403-21.25.357-30.7 6.3-12.21 7.679-19.97 18.653-24.01 32.368-3.19 10.832-4.03 21.997-4.27 33.199a839.666 839.666 0 00-.08 31.342c.17 10.232.78 20.451 3.02 30.494 2.43 10.913 6.77 20.841 14.71 28.966 15.15 15.512 36.61 18.732 54.14 11.088 13.58-5.921 22.76-16.204 27.95-30.061 3.66-9.787 5.19-19.996 5.7-30.355.4-8.192.38-16.404.63-28.402zm20.52 4.137c-.27 9.376-.33 18.764-.85 28.128-.73 13.259-2.87 26.293-8.24 38.565-8.99 20.524-24.35 34.052-45.59 41.01-28.73 6.705-53.12-.508-72.71-22.843-8.8-10.037-13.59-22.041-16.58-34.868-2.59-11.064-3.52-22.339-3.62-33.639-.13-14.602-.01-29.22.52-43.812.49-13.378 2.79-26.526 8.21-38.889 9.18-20.928 24.26-35.567 46.38-42.309 8.46-2.58 17.21-2.79 25.99-2.018 21.62 1.906 37.71 13.238 50.11 30.202 6.33 8.66 10.06 18.722 12.43 29.232 2.71 12.028 3.49 24.244 3.71 36.516.09 4.904.02 9.81.02 14.717l.22.008M1099.57 415.046v-20.779h3.59c7.89 0 15.79-.103 23.68.024 12.64.201 22.96-4.927 31.59-13.745 8.17-8.35 12.43-18.719 14.74-30 2.12-10.394 2.64-20.923 2.64-31.494-.01-8.852.02-17.702-.07-26.553-.11-11.76-1.09-23.42-4.5-34.76-3.8-12.637-10.91-22.796-22.3-29.735-6.14-3.744-12.86-5.726-20.02-5.802-12.05-.128-24.11-.039-36.16-.028-.83.001-1.66.12-2.87.212-.27 7.211-.09 14.312-.12 21.408-.03 7.145-.01 14.29-.01 21.436v149.817h-20.61c-.06-1.148-.16-2.185-.16-3.221-.01-66.123-.01-132.246 0-198.368 0-7.901 4.59-12.66 12.43-12.694 16.43-.07 32.85-.162 49.27.02 16.6.183 30.18 7.446 41.76 18.838 11.74 11.557 18.07 25.893 21.05 41.894 2.3 12.322 2.8 24.768 2.76 37.258-.02 8.956.01 17.913-.11 26.868-.17 13.368-1.39 26.618-5.3 39.48-5.25 17.284-15.28 31.018-30.57 40.824-9.11 5.844-19.05 9.001-29.85 9.196-9.7.174-19.41.068-29.11.074-.52 0-1.03-.096-1.75-.17zM841.052 200.553v21.457c-1.335.055-2.567.147-3.799.148-15.889.01-31.782.211-47.668-.04-26.518-.418-41.017 16.831-46.682 33.046-2.94 8.416-4.516 17.117-5.024 25.968-1.056 18.425-1.087 36.874 0 55.3.61 10.369 2.518 20.556 6.968 30.04 6.924 14.758 17.912 24.754 34.258 27.992 13.058 2.586 24.919-.634 35.003-8.998 12.143-10.069 19.24-23.098 20.657-39.056.44-4.961-.038-9.784-.898-14.613-.768-4.316-3.311-7.116-7.627-8.028a31.81 31.81 0 00-6.328-.671c-10.664-.065-21.328-.029-31.992-.03l-3.736.001-.835-21.421c1.415-.072 2.452-.172 3.491-.174 11.624-.01 23.247-.034 34.871.007 5.71.02 11.212 1.228 16.502 3.345 9.047 3.618 13.926 10.838 15.835 19.907 1.219 5.788 1.699 11.864 1.543 17.785-.618 23.459-9.646 43.368-27.184 58.915-12.363 10.956-27.188 15.852-43.892 15.211-17.298-.666-31.806-7.278-43.831-19.486-9.644-9.789-15.813-21.584-19.364-34.817-2.779-10.357-4.111-20.937-4.316-31.604-.28-14.495-.336-29.007.009-43.5.31-13.024 2.028-25.899 6.159-38.369 3.972-11.995 10.441-22.404 19.593-31.051 9.982-9.432 21.694-15.2 35.604-16.273 13.208-1.022 26.419-.754 39.638-.694 5.752.026 11.508-.198 17.261-.293 1.792-.029 3.585-.004 5.784-.004zM962.794 240.583c-1.833 3.332-26.884 85.943-26.9 88.237 5.279.644 51.231.375 53.624-.373l-26.724-87.864zm33.721 110.185h-67.952l-21.128 69.323-17.7-7.247c-.369-3.606-.068-6.814.928-10.049 13.046-42.356 26.018-84.733 39.023-127.101a32963.719 32963.719 0 0119.472-63.228c.565-1.827 1.212-3.655 2.068-5.358 2.232-4.442 5.925-7.045 10.872-7.285 4.903-.237 8.569 2.281 11.071 6.369 1.101 1.8 2.026 3.779 2.648 5.795 16.038 52.137 32.023 104.291 48.023 156.439 4.25 13.85 8.51 27.698 12.77 41.546.15.508.27 1.028.5 1.915-6.97 3.288-14.15 6.111-21.69 9.404-.08-1.345-.25-2.349-.18-3.335.36-4.762-.67-9.254-2.1-13.777-5.24-16.559-10.28-33.175-15.409-49.765-.372-1.208-.798-2.398-1.216-3.646M288.372 350.677c-6.789-3.172-21.933-12.397-26.157-15.96.543-.918 1.069-1.922 1.697-2.858 9.399-13.98 18.815-27.948 28.218-41.924 15.237-22.646 30.386-45.347 43.712-69.2 11.142-19.95 21.005-40.479 28.028-62.286 6.45-20.032 10.224-40.469 9.474-61.617-.544-15.387-3.638-30.215-9.362-44.501-.46-1.148-.904-2.302-.86-3.687 2.13 4.023 4.364 7.993 6.373 12.077 10.396 21.135 16.811 43.431 19.759 66.803 8.008 63.505-12.878 131.653-55.216 179.597-8.699 9.848-18.292 18.794-28.003 27.616-5.837 5.302-11.707 10.568-17.663 15.94zM593.546 393.864h86.657v21.174c-1.084.071-2.014.183-2.944.183-29.964.008-59.929.008-89.892.001-1.065-.001-2.14-.01-3.192-.154-6.834-.931-11.337-5.722-11.857-12.608-.096-1.274-.077-2.558-.077-3.838-.003-60.46-.01-120.921.021-181.382.001-2.223.109-4.499.589-6.656 1.195-5.368 5.527-9.087 10.986-9.694 1.266-.141 2.553-.145 3.83-.145 29.432-.008 58.863-.007 88.294-.007h4.252v21.116h-86.539c-.732 2.671-1.007 69.228-.361 75.783 4.049.024 8.161.057 12.273.069 4.265.012 8.531.003 12.796.003H656.271v21.523h-62.532c-.816 2.592-.97 70.756-.193 74.632z" fill="#000"/><path d="M39.622 461.266c-.598-.737-1.223-1.452-1.787-2.213-17.603-23.81-28.799-50.363-34.187-79.439C.602 363.17-.397 346.583.712 329.946c2.999-45.004 18.155-85.396 46.892-120.376 8.659-10.539 17.872-20.621 26.803-30.937.925-1.068 1.777-1.699 3.27-1.042 7.891 3.471 15.809 6.884 23.711 10.332.28.122.5.38 1.056.818-.633 1.354-1.241 2.789-1.96 4.169-8.361 16.065-16.773 32.105-25.102 48.188-11.42 22.047-22.552 44.228-31.771 67.313-7.124 17.84-13.09 36.035-16.69 54.942-3.003 15.781-4.338 31.676-2.723 47.713 1.718 17.061 6.517 33.191 15.036 48.144.305.533.552 1.099.826 1.649l-.438.407zM330.844 513.936l.614-.928 1.993-3.636-.113.136c.18-.101.436-.156.529-.31 4.701-7.794 8.804-15.855 10.249-24.964 1.114-7.028-.494-13.432-5.473-18.628a56.952 56.952 0 00-8.481-7.244c-4.276-2.983-8.783-5.646-13.274-8.307-29.018-17.193-54.128-38.867-75.022-65.376-2.706-3.433-5.258-6.992-8.062-10.34-7.112-8.495-11.594-18.315-14.842-28.784-5.207-16.785-8.019-33.981-8.843-51.519-.027-.57-.003-1.142-.003-1.923.435.336.688.428.74.586 4.959 14.924 14.139 27.099 24.87 38.273 7.069 7.363 15.15 13.438 23.92 18.583 8.913 5.229 18.001 10.159 26.912 15.392 7.438 4.369 14.921 8.708 22.049 13.552 17.681 12.013 30.983 27.763 37.968 48.119 10.515 30.636 5.911 59.196-13.151 85.393-.624.857-1 2.261-2.58 1.925zM435.865 200.94h20.486c.078 1.736.208 3.296.208 4.856.01 60.9.008 121.802.008 182.702v5.06h87.155v21.476c-.968.066-1.895.186-2.82.186-29.971.01-59.94.014-89.911-.009-1.482-.001-2.99-.116-4.442-.404-6.195-1.224-10.275-5.968-10.646-12.283-.062-1.062-.037-2.132-.037-3.198l-.001-194.222v-4.164zM221.996 170.627l-68.475 215.652-.637-.104c.109-1.851.149-3.707.339-5.55 1.186-11.557 2.19-23.137 3.652-34.661 5.173-40.816 13.312-80.953 28.106-119.511 4.782-12.46 10.314-24.57 17.323-35.958 3.529-5.734 7.343-11.266 12.308-15.886 1.943-1.808 3.959-3.558 7.384-3.982z" fill="#000"/><path d="M333.45 509.373z" fill="#fff"/></symbol><symbol fill="none" viewBox="0 0 391 546" id="legado-simbolo" xmlns="http://www.w3.org/2000/svg"><path d="M159.573 230.484c-.98-4.647-2.088-9.272-2.917-13.945-3.227-18.191-8.979-35.506-17.752-51.783-3.104-5.76-6.994-10.921-11.679-15.535-10.42-10.256-20.791-20.589-32.628-29.213-18.399-13.404-37.73-25.23-59.024-33.604-4.355-1.713-8.663-3.627-12.776-5.848a50.175 50.175 0 01-8.9-6.156c-3.784-3.27-5.88-7.647-5.885-12.684-.003-4.221.518-8.445.802-12.61-.033.06-.212.291-.298.553-1.506 4.486-2.246 9.074-2.034 13.824.256 5.777 2.511 10.67 7.039 14.138 3.524 2.699 7.408 5.028 11.39 6.999 5.437 2.69 11.153 4.801 16.686 7.3 27.741 12.531 52.841 28.997 74.691 50.285 2.98 2.903 5.865 5.906 8.918 8.726 5.642 5.213 9.923 11.404 13.426 18.176 8.496 16.422 13.99 33.83 17.056 52.033.033.203-.023.42-.547 1.144-.116-.363-.188-.748-.355-1.087-5.774-11.734-14.644-20.866-24.502-29.177-9.564-8.063-20.44-13.856-31.955-18.529-11.745-4.767-23.568-9.34-35.283-14.18-8.485-3.506-16.66-7.666-24.154-13.028C20.769 133.317 8.34 116.364 3.486 94.415c-4.94-22.347-.78-43.167 11.39-62.472 2.098-3.33 4.077-6.738 6.032-10.155C24.982 14.67 29.002 7.523 33.265 0c1.108 1.085 1.939 1.85 2.717 2.668 13.402 14.068 27.244 27.67 42.656 39.557 5.822 4.49 11.71 8.954 17.924 12.863 19.264 12.115 33.774 28.55 44.739 48.283 10.944 19.693 17.647 40.804 20.943 63.057 1.818 12.284 2.368 24.617 1.806 36.997-.381 8.42-1.422 16.776-3.342 25.003-.16.685-.412 1.351-.62 2.025l-.515.031zM356.689 44.944c.378.702.808 1.383 1.124 2.113 8.012 18.501 11.388 37.853 10.711 57.968-.852 25.285-7.649 49.148-17.239 72.34-9.434 22.817-21.166 44.465-34.493 65.189-15.447 24.021-31.492 47.658-47.276 71.462-3.475 5.24-6.945 10.483-10.424 15.722-.58.872-1.189 1.725-1.915 2.776-1.02-.707-1.916-1.252-2.73-1.9-12.068-9.59-22.035-21.008-29.747-34.37-.585-1.015-1.073-2.086-1.669-3.094-5.258-8.893-6.007-18.345-4.202-28.378 2.5-13.887 7.868-26.722 13.646-39.427 8.918-19.616 21.51-36.733 36.14-52.423 5.598-6.004 11.369-11.845 16.905-17.904 13.731-15.03 27.499-30.033 41.001-45.268 7.502-8.462 14.116-17.645 19.726-27.502 4.504-7.914 8.282-16.135 9.585-25.246.435-3.038.348-6.155.479-9.236.038-.904.006-1.81.006-2.715l.372-.108z" fill="#000"/><path d="M48.843 465.925c-.227-.316-.47-.624-.678-.952-9.808-15.482-15.62-32.376-17.673-50.558-2.548-22.57.333-44.659 6.1-66.474 6.316-23.896 15.433-46.76 26.319-68.874 11.576-23.519 23.787-46.724 35.724-70.066 2.862-5.6 5.725-11.198 8.597-16.793.431-.84.912-1.653 1.437-2.6.979.491 1.843.864 2.648 1.337 12.451 7.326 23.232 16.582 32.158 27.958 1.38 1.76 2.549 3.682 3.882 5.48 4.766 6.425 5.759 13.738 5.544 21.506-.379 13.72-4.197 26.676-8.373 39.554-5.879 18.125-15.027 34.568-26.34 49.825-7.812 10.533-15.987 20.801-23.652 31.441-9.97 13.838-19.713 27.843-29.317 41.936-4.683 6.874-8.515 14.291-11.67 22.006-4.617 11.296-7.773 22.816-4.706 35.274zM325.855 513.332l-23.131 32.325c-1-1.317-1.689-2.184-2.333-3.081-10.124-14.139-20.631-27.978-32.303-40.894-7.657-8.474-15.628-16.652-24.349-24.025-16.898-14.285-28.972-31.979-37.578-52.197-6.801-15.986-11.088-32.643-13.464-49.832-1.918-13.888-2.398-27.827-1.604-41.799.96-16.881 3.742-33.447 9.379-49.455.349-.992.76-1.961 1.591-2.932.109 1.706.184 3.415.341 5.116.165 1.8.545 3.59.597 5.39.546 18.532 3.378 36.686 8.826 54.421 3.284 10.691 8.032 20.547 15.038 29.408 9.994 12.639 19.756 25.477 31.616 36.449 16.306 15.082 33.355 29.234 52.91 40.066 3.817 2.114 7.486 4.51 11.146 6.894 1.96 1.276 3.8 2.748 5.619 4.228 8.337 6.782 10.881 15.436 8.241 25.748-1.436 5.612-3.786 10.85-6.429 15.975-.624 1.213-1.084 2.508-1.62 3.767l.113-.136-1.993 3.636-.613.928zM288.099 350.12c-6.789-3.172-21.933-12.398-26.157-15.96.542-.919 1.069-1.923 1.697-2.859 9.399-13.98 18.815-27.948 28.217-41.924 15.238-22.645 30.387-45.347 43.712-69.2 11.143-19.949 21.006-40.479 28.028-62.285 6.451-20.032 10.224-40.47 9.475-61.618-.544-15.386-3.639-30.214-9.363-44.501-.46-1.148-.904-2.301-.86-3.687 2.131 4.023 4.364 7.994 6.374 12.078 10.396 21.134 16.81 43.43 19.758 66.802 8.008 63.506-12.877 131.654-55.216 179.598-8.698 9.848-18.292 18.793-28.002 27.616-5.838 5.301-11.707 10.568-17.663 15.94z" fill="#000"/><path d="M39.348 460.708c-.597-.737-1.222-1.452-1.786-2.213-17.603-23.81-28.8-50.363-34.187-79.439C.328 362.612-.67 346.025.439 329.388c2.999-45.004 18.155-85.396 46.892-120.376 8.659-10.539 17.872-20.621 26.803-30.937.925-1.068 1.777-1.699 3.27-1.042 7.89 3.471 15.808 6.884 23.711 10.332.28.122.5.38 1.056.818-.633 1.354-1.241 2.789-1.96 4.169-8.361 16.065-16.773 32.105-25.103 48.188-11.418 22.047-22.552 44.228-31.77 67.313-7.124 17.84-13.091 36.035-16.69 54.942-3.004 15.781-4.338 31.676-2.724 47.713 1.719 17.061 6.518 33.191 15.036 48.144.306.533.552 1.099.827 1.649l-.439.407zM330.571 513.379l.613-.928 1.994-3.636-.114.136c.18-.102.436-.156.53-.311 4.701-7.793 8.804-15.855 10.249-24.964 1.113-7.028-.495-13.432-5.473-18.628a56.91 56.91 0 00-8.482-7.244c-4.276-2.983-8.782-5.645-13.273-8.307-29.019-17.193-54.128-38.866-75.023-65.376-2.705-3.433-5.257-6.992-8.061-10.34-7.112-8.494-11.595-18.314-14.843-28.784-5.206-16.785-8.018-33.981-8.842-51.518-.027-.571-.003-1.143-.003-1.924.435.336.688.428.74.586 4.959 14.924 14.139 27.099 24.869 38.274 7.07 7.362 15.151 13.437 23.92 18.582 8.914 5.23 18.002 10.159 26.912 15.392 7.439 4.37 14.922 8.708 22.05 13.552 17.681 12.014 30.982 27.763 37.968 48.119 10.514 30.636 5.91 59.196-13.151 85.393-.624.858-1 2.262-2.58 1.926zM221.723 170.069l-68.475 215.652-.637-.104c.109-1.851.149-3.707.338-5.55 1.187-11.557 2.191-23.137 3.652-34.661 5.174-40.816 13.312-80.953 28.107-119.511 4.781-12.46 10.313-24.57 17.323-35.958 3.529-5.734 7.342-11.266 12.308-15.886 1.942-1.808 3.958-3.558 7.384-3.982z" fill="#000"/><path d="M333.177 508.815z" fill="#fff"/></symbol></svg>