<svg xmlns="http://www.w3.org/2000/svg" xmlns:xlink="http://www.w3.org/1999/xlink" width="768" height="3177" viewBox="0 0 768 3177">
  <defs>
    <clipPath id="clip-Tablet_768x1024">
      <rect width="768" height="3177"/>
    </clipPath>
  </defs>
  <g id="Tablet_768x1024" data-name="Tablet 768x1024" clip-path="url(#clip-Tablet_768x1024)">
    <rect width="768" height="3177" fill="#fff"/>
    <g id="Header">
      <rect id="Rectangle_1" data-name="Rectangle 1" width="768" height="60" fill="#d9d9d9"/>
      <g id="Menu" transform="translate(16.5 22.5)">
        <path id="Path_15" data-name="Path 15" d="M4,8H28M4,16H28M4,24H28" transform="translate(-4 -8)" fill="rgba(144,144,144,0.33)" stroke="rgba(0,0,0,0.5)" stroke-linecap="round" stroke-miterlimit="10" stroke-width="2"/>
      </g>
      <path id="ic_search_24px" d="M20.845,18.7H19.717l-.4-.385a9.293,9.293,0,1,0-1,1l.385.4v1.128l7.138,7.124,2.127-2.127Zm-8.566,0A6.424,6.424,0,1,1,18.7,12.279,6.416,6.416,0,0,1,12.279,18.7Z" transform="translate(722.521 14.521)"/>
      <rect id="Rectangle_23" data-name="Rectangle 23" width="230" height="45" rx="5" transform="translate(528 8)" fill="#fff" opacity="0.436"/>
      <text id="WAAS" transform="translate(370.5 40)" fill="#707070" font-size="30" font-family="Nunito-Black, Nunito" font-weight="800"><tspan x="-48.36" y="0">WAAS</tspan></text>
    </g>
    <g id="Group_21" data-name="Group 21" transform="translate(77 3)">
      <rect id="Rectangle_2" data-name="Rectangle 2" width="593" height="416.508" rx="5" transform="translate(10 72)" fill="#d1d1d1"/>
      <text id="Tecnologia_Fortacelendo_Jovens" data-name="Tecnologia 
Fortacelendo
Jovens" transform="translate(30 287.508)" fill="#707070" font-size="55" font-family="Nunito-ExtraBold, Nunito" font-weight="800"><tspan x="0" y="56">Tecnologia </tspan><tspan x="0" y="111">Fortacelendo</tspan><tspan x="0" y="166">Jovens</tspan></text>
    </g>
    <g id="Group_22" data-name="Group 22" transform="translate(78 171)">
      <rect id="Rectangle_3" data-name="Rectangle 3" width="592" height="126" rx="5" transform="translate(10 333)" fill="#d1d1d1"/>
      <text id="Como_fazemos_Resumo" data-name="Como fazemos | Resumo" transform="translate(25 356)" fill="#707070" font-size="22" font-family="Nunito-ExtraBold, Nunito" font-weight="800"><tspan x="155.364" y="22">Como fazemos </tspan><tspan y="22" font-family="Nunito-Regular, Nunito" font-weight="400">| Resumo</tspan></text>
      <text id="Metodologia_Hackateen_Dojo_etc_" data-name="Metodologia, Hackateen, Dojo etc…
" transform="translate(26 393)" fill="#707070" font-size="22" font-family="Nunito-Regular, Nunito"><tspan x="108.46" y="22">Metodologia, Hackateen, Dojo etc…</tspan><tspan x="280.5" y="57"></tspan></text>
    </g>
    <g id="Group_23" data-name="Group 23" transform="translate(79 141)">
      <rect id="Rectangle_4" data-name="Rectangle 4" width="591" height="171" rx="5" transform="translate(10 502)" fill="#d1d1d1"/>
      <text id="Metodologia" transform="translate(26 521)" fill="#707070" font-size="30" font-family="Nunito-ExtraBold, Nunito" font-weight="800"><tspan x="0" y="30">Metodologia</tspan></text>
      <g id="Group_7" data-name="Group 7" transform="translate(25 569)">
        <rect id="Rectangle_6" data-name="Rectangle 6" width="439" height="20" fill="#b1b1b1"/>
        <rect id="Rectangle_7" data-name="Rectangle 7" width="287" height="20" transform="translate(0 27)" fill="#b1b1b1"/>
        <rect id="Rectangle_8" data-name="Rectangle 8" width="145.5" height="20" transform="translate(0 54)" fill="#b1b1b1"/>
      </g>
      <text id="mais_detalhes" data-name="mais detalhes" transform="translate(481 637)" fill="#707070" font-size="16" font-family="Nunito-Regular, Nunito" text-decoration="underline"><tspan x="4.42" y="16">mais detalhes</tspan></text>
    </g>
    <text id="Sistema_de_Graduação" data-name="Sistema de Graduação" transform="translate(87 833)" fill="#707070" font-size="30" font-family="Nunito-ExtraBold, Nunito" font-weight="800"><tspan x="138.76" y="30">Sistema de Graduação</tspan></text>
    <g id="Group_30" data-name="Group 30" transform="translate(0 -10)">
      <g id="Group_29" data-name="Group 29">
        <g id="Group_26" data-name="Group 26" transform="translate(77 168)">
          <rect id="Rectangle_5" data-name="Rectangle 5" width="213" height="313" rx="5" transform="translate(10 735)" fill="#d1d1d1"/>
          <ellipse id="Ellipse_1" data-name="Ellipse 1" cx="57.5" cy="61" rx="57.5" ry="61" transform="translate(59 766)" fill="#a5a5a5"/>
          <text id="Graduação_1" data-name="Graduação #1" transform="translate(25.5 904)" fill="#707070" font-size="22" font-family="Nunito-ExtraBold, Nunito" font-weight="800"><tspan x="18.56" y="22">Graduação #1</tspan></text>
          <g id="Group_1" data-name="Group 1" transform="translate(25 947)">
            <rect id="Rectangle_6-2" data-name="Rectangle 6" width="181.5" height="20" fill="#b1b1b1"/>
            <rect id="Rectangle_7-2" data-name="Rectangle 7" width="115" height="20" transform="translate(0 27)" fill="#b1b1b1"/>
            <rect id="Rectangle_8-2" data-name="Rectangle 8" width="161.5" height="20" transform="translate(0 54)" fill="#b1b1b1"/>
          </g>
        </g>
      </g>
    </g>
    <g id="Group_31" data-name="Group 31" transform="translate(238 -10)">
      <g id="Group_29-2" data-name="Group 29">
        <g id="Group_26-2" data-name="Group 26" transform="translate(77 168)">
          <rect id="Rectangle_5-2" data-name="Rectangle 5" width="213" height="313" rx="5" transform="translate(10 735)" fill="#d1d1d1"/>
          <ellipse id="Ellipse_1-2" data-name="Ellipse 1" cx="57.5" cy="61" rx="57.5" ry="61" transform="translate(59 766)" fill="#a5a5a5"/>
          <text id="Graduação_2" data-name="Graduação #2" transform="translate(25.5 904)" fill="#707070" font-size="22" font-family="Nunito-ExtraBold, Nunito" font-weight="800"><tspan x="18.549" y="22">Graduação #2</tspan></text>
          <g id="Group_1-2" data-name="Group 1" transform="translate(25 947)">
            <rect id="Rectangle_6-3" data-name="Rectangle 6" width="181.5" height="20" fill="#b1b1b1"/>
            <rect id="Rectangle_7-3" data-name="Rectangle 7" width="115" height="20" transform="translate(0 27)" fill="#b1b1b1"/>
            <rect id="Rectangle_8-3" data-name="Rectangle 8" width="161.5" height="20" transform="translate(0 54)" fill="#b1b1b1"/>
          </g>
        </g>
      </g>
    </g>
    <g id="Group_32" data-name="Group 32" transform="translate(479 -10)">
      <g id="Group_29-3" data-name="Group 29">
        <g id="Group_26-3" data-name="Group 26" transform="translate(77 168)">
          <rect id="Rectangle_5-3" data-name="Rectangle 5" width="213" height="313" rx="5" transform="translate(10 735)" fill="#d1d1d1"/>
          <ellipse id="Ellipse_1-3" data-name="Ellipse 1" cx="57.5" cy="61" rx="57.5" ry="61" transform="translate(59 766)" fill="#a5a5a5"/>
          <text id="Graduação_3" data-name="Graduação #3" transform="translate(25.5 907)" fill="#707070" font-size="22" font-family="Nunito-ExtraBold, Nunito" font-weight="800"><tspan x="18.56" y="22">Graduação #3</tspan></text>
          <g id="Group_1-3" data-name="Group 1" transform="translate(25 947)">
            <rect id="Rectangle_6-4" data-name="Rectangle 6" width="181.5" height="20" fill="#b1b1b1"/>
            <rect id="Rectangle_7-4" data-name="Rectangle 7" width="115" height="20" transform="translate(0 27)" fill="#b1b1b1"/>
            <rect id="Rectangle_8-4" data-name="Rectangle 8" width="161.5" height="20" transform="translate(0 54)" fill="#b1b1b1"/>
          </g>
        </g>
      </g>
    </g>
    <g id="Group_33" data-name="Group 33" transform="translate(77 726)">
      <rect id="Rectangle_4-2" data-name="Rectangle 4" width="594" height="159" rx="5" transform="translate(10 502)" fill="#d1d1d1"/>
      <text id="Hackateen" transform="translate(26 517)" fill="#707070" font-size="22" font-family="Nunito-ExtraBold, Nunito" font-weight="800"><tspan x="0" y="22">Hackateen</tspan></text>
      <g id="Group_8" data-name="Group 8" transform="translate(25 557)">
        <rect id="Rectangle_6-5" data-name="Rectangle 6" width="195.5" height="20" fill="#b1b1b1"/>
        <rect id="Rectangle_7-5" data-name="Rectangle 7" width="115" height="20" transform="translate(0 27)" fill="#b1b1b1"/>
        <rect id="Rectangle_8-5" data-name="Rectangle 8" width="128.5" height="20" transform="translate(0 54)" fill="#b1b1b1"/>
      </g>
      <text id="mais_detalhes-2" data-name="mais detalhes" transform="translate(484 627)" fill="#707070" font-size="16" font-family="Nunito-Regular, Nunito" text-decoration="underline"><tspan x="4.42" y="16">mais detalhes</tspan></text>
    </g>
    <g id="Group_34" data-name="Group 34" transform="translate(77 904)">
      <rect id="Rectangle_4-3" data-name="Rectangle 4" width="594" height="159" rx="5" transform="translate(10 502)" fill="#d1d1d1"/>
      <text id="Dojo" transform="translate(26 517)" fill="#707070" font-size="22" font-family="Nunito-ExtraBold, Nunito" font-weight="800"><tspan x="0" y="22">Dojo</tspan></text>
      <g id="Group_8-2" data-name="Group 8" transform="translate(25 557)">
        <rect id="Rectangle_6-6" data-name="Rectangle 6" width="195.5" height="20" fill="#b1b1b1"/>
        <rect id="Rectangle_7-6" data-name="Rectangle 7" width="115" height="20" transform="translate(0 27)" fill="#b1b1b1"/>
        <rect id="Rectangle_8-6" data-name="Rectangle 8" width="128.5" height="20" transform="translate(0 54)" fill="#b1b1b1"/>
      </g>
      <text id="mais_detalhes-3" data-name="mais detalhes" transform="translate(484 627)" fill="#707070" font-size="16" font-family="Nunito-Regular, Nunito" text-decoration="underline"><tspan x="4.42" y="16">mais detalhes</tspan></text>
    </g>
    <g id="Group_36" data-name="Group 36" transform="translate(74 1253)">
      <g id="Grafico" transform="translate(31.5 554.5)" opacity="0.54">
        <line id="Line_1" data-name="Line 1" y1="86" x2="195" transform="translate(0 18)" fill="none" stroke="#e5e5e5" stroke-width="5" opacity="0.701"/>
        <line id="Line_2" data-name="Line 2" x1="181" y1="67" transform="translate(181 9)" fill="none" stroke="#e5e5e5" stroke-width="5" opacity="0.701"/>
        <line id="Line_3" data-name="Line 3" x1="173" y2="76" transform="translate(362)" fill="none" stroke="#e5e5e5" stroke-width="5" opacity="0.701"/>
      </g>
      <text id="Operação" transform="translate(26 510)" fill="#707070" font-size="30" font-family="Nunito-ExtraBold, Nunito" font-weight="800"><tspan x="214.88" y="30">Operação</tspan></text>
      <text id="_600_ninjas_graduados" data-name="+ 600 ninjas graduados" transform="translate(39 558)" fill="#707070" font-size="22" font-family="Nunito-ExtraBold, Nunito" font-weight="800"><tspan x="0" y="22">+ 600 </tspan><tspan y="22" font-family="Nunito-Regular, Nunito" font-weight="400">ninjas graduados</tspan></text>
      <text id="_8_cidades" data-name="+ 8 cidades" transform="translate(39 595)" fill="#707070" font-size="22" font-family="Nunito-ExtraBold, Nunito" font-weight="800"><tspan x="0" y="22">+ 8 </tspan><tspan y="22" font-family="Nunito-Regular, Nunito" font-weight="400">cidades</tspan></text>
      <text id="_1000_horas_de_" data-name="+ 1000 horas de …" transform="translate(39 632)" fill="#707070" font-size="22" font-family="Nunito-ExtraBold, Nunito" font-weight="800"><tspan x="0" y="22">+ 1000 </tspan><tspan y="22" font-family="Nunito-Regular, Nunito" font-weight="400">horas</tspan><tspan y="22"> </tspan><tspan y="22" font-family="Nunito-Regular, Nunito" font-weight="400">de …</tspan></text>
    </g>
    <g id="Group_37" data-name="Group 37" transform="translate(0 18)">
      <text id="Prêmios" transform="translate(87 1588)" fill="#707070" font-size="30" font-family="Nunito-ExtraBold, Nunito" font-weight="800"><tspan x="239.365" y="30">Prêmios</tspan></text>
      <text id="_Legado_Warloock_" data-name="+ Legado
+ Warloock
…" transform="translate(102 1623)" fill="#707070" font-size="22" font-family="Nunito-Regular, Nunito"><tspan x="0" y="22">+ Legado</tspan><tspan x="0" y="57">+ Warloock</tspan><tspan x="0" y="92">…</tspan></text>
    </g>
    <g id="Group_38" data-name="Group 38" transform="translate(76 310)">
      <text id="Parceiros" transform="translate(25 1662)" fill="#707070" font-size="30" font-family="Nunito-ExtraBold, Nunito" font-weight="800"><tspan x="217.25" y="30">Parceiros</tspan></text>
      <circle id="Ellipse_2" data-name="Ellipse 2" cx="70.351" cy="70.351" r="70.351" transform="translate(10 1728)" fill="#d8d8d8"/>
      <circle id="Ellipse_3" data-name="Ellipse 3" cx="70.851" cy="70.851" r="70.851" transform="translate(466.298 1728)" fill="#d8d8d8"/>
      <circle id="Ellipse_4" data-name="Ellipse 4" cx="70.351" cy="70.351" r="70.351" transform="translate(160.298 1728)" fill="#d8d8d8"/>
      <circle id="Ellipse_5" data-name="Ellipse 5" cx="70.851" cy="70.851" r="70.851" transform="translate(312 1728)" fill="#d8d8d8"/>
    </g>
    <g id="Group_39" data-name="Group 39" transform="translate(74 -69)">
      <rect id="Rectangle_3-2" data-name="Rectangle 3" width="596" height="309" rx="5" transform="translate(10 2311)" fill="#d1d1d1"/>
      <text id="Na_Mídia" data-name="Na Mídia" transform="translate(26.5 2337)" fill="#707070" font-size="30" font-family="Nunito-ExtraBold, Nunito" font-weight="800"><tspan x="0" y="30">Na Mídia</tspan></text>
      <g id="Group_13" data-name="Group 13" transform="translate(87.5 2389)">
        <text id="Reportagem_no_jornal_" data-name="Reportagem no jornal …" transform="translate(-2.5 146)" fill="#707070" font-size="22" font-family="Nunito-Regular, Nunito"><tspan x="0" y="22">Reportagem </tspan><tspan x="0" y="46">no jornal …</tspan></text>
        <rect id="Rectangle_9" data-name="Rectangle 9" width="138" height="127" rx="5" transform="translate(0 5)" fill="#efe7e7"/>
      </g>
      <g id="Group_40" data-name="Group 40" transform="translate(242 2389)">
        <text id="Reportagem_no_jornal_2" data-name="Reportagem no jornal …" transform="translate(-2.5 146)" fill="#707070" font-size="22" font-family="Nunito-Regular, Nunito"><tspan x="0" y="22">Reportagem </tspan><tspan x="0" y="46">no jornal …</tspan></text>
        <rect id="Rectangle_9-2" data-name="Rectangle 9" width="138" height="127" rx="5" transform="translate(0 5)" fill="#efe7e7"/>
      </g>
      <g id="Group_41" data-name="Group 41" transform="translate(394.5 2389)">
        <text id="Reportagem_no_jornal_3" data-name="Reportagem no jornal …" transform="translate(-2.5 146)" fill="#707070" font-size="22" font-family="Nunito-Regular, Nunito"><tspan x="0" y="22">Reportagem </tspan><tspan x="0" y="46">no jornal …</tspan></text>
        <rect id="Rectangle_9-3" data-name="Rectangle 9" width="138" height="127" rx="5" transform="translate(0 5)" fill="#efe7e7"/>
      </g>
    </g>
    <g id="Group_42" data-name="Group 42" transform="translate(77 -72)">
      <rect id="Rectangle_3-3" data-name="Rectangle 3" width="593" height="199" rx="5" transform="translate(10 2644)" fill="#d1d1d1"/>
      <text id="Newsletter" transform="translate(25.5 2663)" fill="#707070" font-size="30" font-family="Nunito-ExtraBold, Nunito" font-weight="800"><tspan x="0" y="30">Newsletter</tspan></text>
      <rect id="Rectangle_10" data-name="Rectangle 10" width="562" height="41" rx="5" transform="translate(25.5 2734)" fill="#efe7e7"/>
      <text id="Inscreva-se_para_receber_as_novidades_mais_recentes." data-name="Inscreva-se para receber as novidades mais recentes." transform="translate(25.5 2698)" fill="#707070" font-size="18" font-family="Nunito-Regular, Nunito"><tspan x="0" y="18">Inscreva-se para receber </tspan><tspan y="18" font-size="16">as novidades mais recentes.</tspan></text>
      <g id="Group_17" data-name="Group 17" transform="translate(487.5 2783)">
        <rect id="Rectangle_11" data-name="Rectangle 11" width="100" height="41" rx="5" fill="#a2a2a2"/>
        <text id="Inscrever" transform="translate(13 26)" fill="#fff" font-size="18" font-family="Nunito-Bold, Nunito" font-weight="700"><tspan x="0" y="0">Inscrever</tspan></text>
      </g>
    </g>
    <g id="Group_43" data-name="Group 43" transform="translate(87 -64)">
      <rect id="Rectangle_12" data-name="Rectangle 12" width="768" height="362" transform="translate(-87 2881)" fill="#707070"/>
      <text id="Rodapé" transform="translate(137 2912)" fill="#fff" font-size="22" font-family="Nunito-ExtraBold, Nunito" font-weight="800" opacity="0.537"><tspan x="0" y="22">Rodapé</tspan></text>
      <g id="Group_18" data-name="Group 18">
        <rect id="Rectangle_13" data-name="Rectangle 13" width="126" height="18" transform="translate(26 2957)" fill="#9f9f9f"/>
        <rect id="Rectangle_14" data-name="Rectangle 14" width="96" height="18" transform="translate(26 2991)" fill="#9f9f9f"/>
        <rect id="Rectangle_15" data-name="Rectangle 15" width="63" height="18" transform="translate(26 3025)" fill="#9f9f9f"/>
      </g>
      <g id="Group_64" data-name="Group 64" transform="translate(0 17)">
        <rect id="Rectangle_16" data-name="Rectangle 16" width="128.438" height="18" transform="translate(441 2962)" fill="#9f9f9f"/>
        <rect id="Rectangle_17" data-name="Rectangle 17" width="78" height="18" transform="translate(441 2996)" fill="#9f9f9f"/>
        <rect id="Rectangle_18" data-name="Rectangle 18" width="120.438" height="18" transform="translate(441 3030)" fill="#9f9f9f"/>
      </g>
      <g id="Group_19" data-name="Group 19" transform="translate(0 144)">
        <rect id="Rectangle_13-2" data-name="Rectangle 13" width="126" height="18" transform="translate(26 2957)" fill="#9f9f9f"/>
        <rect id="Rectangle_14-2" data-name="Rectangle 14" width="96" height="18" transform="translate(26 2991)" fill="#9f9f9f"/>
        <rect id="Rectangle_15-2" data-name="Rectangle 15" width="63" height="18" transform="translate(26 3025)" fill="#9f9f9f"/>
      </g>
      <g id="Group_44" data-name="Group 44" transform="translate(33.938 -110)">
        <rect id="Rectangle_19" data-name="Rectangle 19" width="167" height="18" transform="translate(179.563 3067)" fill="#9f9f9f"/>
        <rect id="Rectangle_20" data-name="Rectangle 20" width="78" height="18" transform="translate(179.563 3101)" fill="#9f9f9f"/>
        <rect id="Rectangle_21" data-name="Rectangle 21" width="159" height="18" transform="translate(179.563 3135)" fill="#9f9f9f"/>
      </g>
      <text id="Contato" transform="translate(25.5 3065)" fill="#fff" font-size="22" font-family="Nunito-ExtraBold, Nunito" font-weight="800" opacity="0.486"><tspan x="0" y="22">Contato</tspan></text>
      <text id="WAAS-2" data-name="WAAS" transform="translate(73.5 2935)" fill="#c3c3c3" font-size="30" font-family="Nunito-Black, Nunito" font-weight="800"><tspan x="-48.36" y="0">WAAS</tspan></text>
      <text id="Sociais" transform="translate(441.5 2939)" fill="#fff" font-size="22" font-family="Nunito-ExtraBold, Nunito" font-weight="800" opacity="0.486"><tspan x="0" y="22">Sociais</tspan></text>
    </g>
  </g>
</svg>
