<?xml version="1.0" encoding="utf-8"?>
<!-- Generator: Adobe Illustrator 24.0.0, SVG Export Plug-In . SVG Version: 6.00 Build 0)  -->
<svg version="1.1" id="Layer_1" xmlns="http://www.w3.org/2000/svg" xmlns:xlink="http://www.w3.org/1999/xlink" x="0px" y="0px"
	 viewBox="0 0 100 100" style="enable-background:new 0 0 100 100;" xml:space="preserve">
<style type="text/css">
	.st0{fill:#A21942;}
	.st1{fill:#FFFFFF;}
</style>
<rect x="0.3" y="-0.2" class="st0" width="100" height="100"/>
<g>
	<path class="st1" d="M17.5,17.2c1.3-0.7,2-1.8,2-3.5v-0.8c0-3.2-1.6-4.8-4.8-4.8C11.6,8,10,9.7,10,12.8v0.8c0,1.6,0.6,2.9,1.9,3.5
		c-1.6,0.7-2.2,2.1-2.2,4v2.2c0,3.1,1.5,5.2,5,5.2c3.6,0,5.1-2.1,5.1-5.2v-2.2C19.8,19.3,19.1,17.9,17.5,17.2z M13.2,12.6
		c0-1.2,0.4-1.9,1.5-1.9c1.1,0,1.5,0.7,1.5,1.9V14c0,1.2-0.4,1.9-1.5,1.9c-1.1,0-1.5-0.7-1.5-1.9V12.6z M16.4,23.8
		c0,1.2-0.4,2.1-1.7,2.1c-1.2,0-1.6-0.9-1.6-2.1v-3.3c0-1.2,0.4-2.1,1.6-2.1c1.2,0,1.7,0.9,1.7,2.1V23.8z"/>
	<path class="st1" d="M69.3,49l-10.2,9.7c-0.4,0.4-0.6,0.7-0.6,1.5v27.1c0,0.3,0.3,0.6,0.6,0.6h10.5c0.3,0,0.6-0.3,0.6-0.6v-38
		C70.2,48.9,70,48.3,69.3,49z"/>
	<path class="st1" d="M40,61.6l-10.2,9.7c-0.4,0.4-0.6,0.7-0.6,1.5v14.5c0,0.3,0.3,0.6,0.6,0.6h10.5c0.3,0,0.6-0.3,0.6-0.6V61.8
		C40.9,61.5,40.7,60.9,40,61.6z"/>
	<path class="st1" d="M73.6,37L73.6,37l-0.1,0l-7.8,1.8l-0.1,0c-0.1,0-0.1,0-0.2,0.1c-0.1,0.1-0.1,0.3,0,0.4l0.1,0.1l1.8,1.8
		L49.7,58.8l-8.1-8.1c-0.1-0.1-0.2-0.1-0.3,0L39,52.8c0,0,0,0,0,0L25.9,65.9c-0.1,0.1-0.1,0.2,0,0.3l2.2,2.2c0.1,0.1,0.2,0.1,0.3,0
		l12.9-12.9l5.9,5.9c0,0,0,0,0,0l2.2,2.2c0.1,0.1,0.2,0.1,0.3,0l20-20l1.9,1.9c0.1,0.1,0.3,0.1,0.4,0c0.1-0.1,0.1-0.1,0.1-0.2l0,0
		l1.7-7.9l0-0.1c0-0.1,0-0.2-0.1-0.2C73.8,37,73.7,37,73.6,37z"/>
	<path class="st1" d="M54.7,63.3l-4.9,5c-0.1,0.1-0.2,0.1-0.3,0L45,63.7c-0.8-0.8-1-0.2-1,0.2v23.4c0,0.3,0.3,0.6,0.6,0.6h10.5
		c0.3,0,0.6-0.3,0.6-0.6V63.5C55.7,63.2,55.4,62.6,54.7,63.3z"/>
	<polygon class="st1" points="26.9,15.7 28.3,15.7 28.3,8.7 29.5,8.7 29.5,7.6 25.8,7.6 25.8,8.7 26.9,8.7 	"/>
	<path class="st1" d="M31.6,12l1.3,3.7h1.4L33,12c0.8-0.2,1.1-0.7,1.1-1.6v-1c0-1.1-0.5-1.8-1.9-1.8h-2v8.2h1.4V12z M31.6,8.7H32
		c0.5,0,0.7,0.2,0.7,0.7v1.2c0,0.4-0.2,0.7-0.7,0.7h-0.5V8.7z"/>
	<path class="st1" d="M36.2,14.2h1.5l0.3,1.5h1.4l-1.6-8.2h-1.6l-1.5,8.2H36L36.2,14.2z M37,9.9L37,9.9l0.6,3.3h-1.1L37,9.9z"/>
	<path class="st1" d="M44,13.9v-1.1c0-0.7-0.3-1.2-1-1.4c0.6-0.2,0.8-0.6,0.8-1.3V9.4c0-1.2-0.5-1.8-1.8-1.8h-2v8.2h2.1
		C43.5,15.7,44,15.1,44,13.9z M41.4,8.7h0.5c0.5,0,0.7,0.2,0.7,0.7v1c0,0.4-0.2,0.7-0.7,0.7h-0.5V8.7z M41.4,14.6v-2.6H42
		c0.5,0,0.7,0.2,0.7,0.7v1.2c0,0.4-0.2,0.7-0.7,0.7H41.4z"/>
	<path class="st1" d="M46.1,14.2h1.5l0.3,1.5h1.4l-1.6-8.2h-1.6l-1.5,8.2h1.3L46.1,14.2z M46.9,9.9L46.9,9.9l0.6,3.3h-1.1L46.9,9.9z
		"/>
	<polygon class="st1" points="52.9,14.6 51.3,14.6 51.3,7.6 49.9,7.6 49.9,15.7 52.9,15.7 	"/>
	<polygon class="st1" points="55,12.1 56.3,12.1 56.3,15.7 57.7,15.7 57.7,7.6 56.3,7.6 56.3,11 55,11 55,7.6 53.6,7.6 53.6,15.7 
		55,15.7 	"/>
	<path class="st1" d="M60.7,15.8c1.5,0,2.1-0.9,2.1-2.2v-4c0-1.3-0.6-2.2-2.1-2.2c-1.4,0-2.1,0.9-2.1,2.2v4
		C58.6,14.9,59.2,15.8,60.7,15.8z M60,9.5c0-0.5,0.2-0.8,0.7-0.8c0.5,0,0.7,0.3,0.7,0.8v4.4c0,0.5-0.2,0.8-0.7,0.8
		c-0.5,0-0.7-0.3-0.7-0.8V9.5z"/>
	<path class="st1" d="M69.1,13.5V9.8c0-1.3-0.5-2.2-2-2.2H65v8.2h2.1C68.6,15.7,69.1,14.8,69.1,13.5z M66.3,14.6V8.7h0.6
		c0.6,0,0.8,0.3,0.8,0.8v4.3c0,0.5-0.2,0.8-0.8,0.8H66.3z"/>
	<polygon class="st1" points="73.2,14.6 71.3,14.6 71.3,12.1 72.7,12.1 72.7,11 71.3,11 71.3,8.7 73.2,8.7 73.2,7.6 69.9,7.6 
		69.9,15.7 73.2,15.7 	"/>
	<path class="st1" d="M76.1,7.5c-1.4,0-2,0.9-2,2.2v4c0,1.3,0.6,2.2,2,2.2c1.5,0,1.9-0.9,1.9-2v-1.4h-1.3v1.5c0,0.5-0.2,0.8-0.7,0.8
		c-0.5,0-0.7-0.3-0.7-0.8V9.5c0-0.5,0.2-0.8,0.7-0.8c0.5,0,0.7,0.3,0.7,0.8v1.1H78v-1C78,8.3,77.6,7.5,76.1,7.5z"/>
	<polygon class="st1" points="78.6,15.7 81.9,15.7 81.9,14.6 80,14.6 80,12.1 81.3,12.1 81.3,11 80,11 80,8.7 81.9,8.7 81.9,7.6 
		78.6,7.6 	"/>
	<polygon class="st1" points="85.3,12.2 83.8,7.6 82.4,7.6 82.4,15.7 83.6,15.7 83.6,10.6 85.2,15.7 86.4,15.7 86.4,7.6 85.3,7.6 	
		"/>
	<polygon class="st1" points="86.9,8.7 88,8.7 88,15.7 89.4,15.7 89.4,8.7 90.5,8.7 90.5,7.6 86.9,7.6 	"/>
	<polygon class="st1" points="94.2,8.7 94.2,7.6 91,7.6 91,15.7 94.2,15.7 94.2,14.6 92.3,14.6 92.3,12.1 93.7,12.1 93.7,11 
		92.3,11 92.3,8.7 	"/>
	<polygon class="st1" points="28.6,26 26.7,26 26.7,23.5 28.1,23.5 28.1,22.4 26.7,22.4 26.7,20.1 28.6,20.1 28.6,18.9 25.3,18.9 
		25.3,27.1 28.6,27.1 	"/>
	<path class="st1" d="M32.4,18.8c-1.4,0-2,0.9-2,2.2v4c0,1.3,0.6,2.2,2,2.2c1.5,0,1.9-0.9,1.9-2v-1.4h-1.3v1.5
		c0,0.5-0.2,0.8-0.7,0.8c-0.5,0-0.7-0.3-0.7-0.8v-4.4c0-0.5,0.2-0.8,0.7-0.8c0.5,0,0.7,0.3,0.7,0.8v1.1h1.3v-1
		C34.3,19.7,33.9,18.8,32.4,18.8z"/>
	<path class="st1" d="M37.8,23.4c0.8-0.2,1.1-0.7,1.1-1.6v-1c0-1.1-0.5-1.8-1.9-1.8h-2v8.2h1.4v-3.7l1.3,3.7h1.4L37.8,23.4z
		 M37.5,21.9c0,0.4-0.2,0.7-0.7,0.7h-0.5v-2.5h0.5c0.5,0,0.7,0.2,0.7,0.7V21.9z"/>
	<polygon class="st1" points="42.7,26 40.8,26 40.8,23.5 42.2,23.5 42.2,22.4 40.8,22.4 40.8,20.1 42.7,20.1 42.7,18.9 39.5,18.9 
		39.5,27.1 42.7,27.1 	"/>
	<path class="st1" d="M43.3,24.3v1.1c0,1.1,0.5,1.9,1.9,1.9c1.4,0,2-0.8,2-1.9v-0.4c0-0.9-0.4-1.4-1.1-2.1l-0.9-0.9
		c-0.4-0.4-0.7-0.7-0.7-1.1v-0.2c0-0.5,0.3-0.7,0.7-0.7c0.4,0,0.7,0.2,0.7,0.7v0.7h1.3v-0.7c0-1.2-0.5-1.9-1.9-1.9
		c-1.3,0-1.9,0.8-1.9,1.8v0.3c0,0.9,0.4,1.4,1.1,2.2l0.8,0.8c0.4,0.4,0.6,0.7,0.6,1.2v0.3c0,0.4-0.2,0.7-0.6,0.7
		c-0.5,0-0.7-0.3-0.7-0.7v-1.1H43.3z"/>
	<path class="st1" d="M47.8,21.1v4c0,1.3,0.6,2.2,2,2.2c1.5,0,1.9-0.9,1.9-2v-1.4h-1.3v1.5c0,0.5-0.2,0.8-0.7,0.8
		c-0.5,0-0.7-0.3-0.7-0.8v-4.4c0-0.5,0.2-0.8,0.7-0.8c0.5,0,0.7,0.3,0.7,0.8v1.1h1.3v-1c0-1.2-0.4-2-1.9-2
		C48.4,18.8,47.8,19.8,47.8,21.1z"/>
	<rect x="52.4" y="18.9" class="st1" width="1.4" height="8.2"/>
	<polygon class="st1" points="56.9,23.5 56.1,18.9 54.5,18.9 54.5,27.1 55.6,27.1 55.6,21.8 55.6,21.8 56.6,27.1 57.3,27.1 
		58.2,21.8 58.2,21.8 58.2,27.1 59.5,27.1 59.5,18.9 57.8,18.9 57,23.5 	"/>
	<polygon class="st1" points="60.1,27.1 63.4,27.1 63.4,26 61.5,26 61.5,23.5 62.9,23.5 62.9,22.4 61.5,22.4 61.5,20.1 63.4,20.1 
		63.4,18.9 60.1,18.9 	"/>
	<polygon class="st1" points="65.2,22 66.8,27.1 68,27.1 68,18.9 66.9,18.9 66.9,23.6 65.4,18.9 64,18.9 64,27.1 65.2,27.1 	"/>
	<polygon class="st1" points="71,27.1 71,20.1 72.1,20.1 72.1,18.9 68.5,18.9 68.5,20.1 69.6,20.1 69.6,27.1 	"/>
	<path class="st1" d="M74.7,18.8c-1.4,0-2.1,0.9-2.1,2.2v4c0,1.3,0.6,2.2,2.1,2.2c1.5,0,2.1-0.9,2.1-2.2v-4
		C76.8,19.8,76.2,18.8,74.7,18.8z M75.4,25.2c0,0.5-0.2,0.8-0.7,0.8c-0.5,0-0.7-0.3-0.7-0.8v-4.4c0-0.5,0.2-0.8,0.7-0.8
		c0.5,0,0.7,0.3,0.7,0.8V25.2z"/>
	<polygon class="st1" points="28.6,37.2 26.7,37.2 26.7,34.7 28.1,34.7 28.1,33.6 26.7,33.6 26.7,31.3 28.6,31.3 28.6,30.1 
		25.3,30.1 25.3,38.3 28.6,38.3 	"/>
	<path class="st1" d="M29.2,36.2c0,1.3,0.6,2.2,2,2.2c1.5,0,1.9-0.9,1.9-2V35h-1.3v1.5c0,0.5-0.2,0.8-0.7,0.8
		c-0.5,0-0.7-0.3-0.7-0.8V32c0-0.5,0.2-0.8,0.7-0.8c0.5,0,0.7,0.3,0.7,0.8V33h1.3v-1c0-1.2-0.4-2-1.9-2c-1.4,0-2,0.9-2,2.2V36.2z"/>
	<path class="st1" d="M35.8,30c-1.4,0-2.1,0.9-2.1,2.2v4c0,1.3,0.6,2.2,2.1,2.2c1.5,0,2.1-0.9,2.1-2.2v-4C37.9,31,37.3,30,35.8,30z
		 M36.5,36.4c0,0.5-0.2,0.8-0.7,0.8c-0.5,0-0.7-0.3-0.7-0.8V32c0-0.5,0.2-0.8,0.7-0.8c0.5,0,0.7,0.3,0.7,0.8V36.4z"/>
	<polygon class="st1" points="39.6,33.2 41.3,38.3 42.5,38.3 42.5,30.1 41.3,30.1 41.3,34.8 39.8,30.1 38.5,30.1 38.5,38.3 
		39.6,38.3 	"/>
	<polygon class="st1" points="44,29.2 44,29.8 45.2,29.5 46.3,29.8 46.3,29.2 45.4,28.5 44.8,28.5 	"/>
	<path class="st1" d="M43.1,36.2c0,1.3,0.6,2.2,2.1,2.2c1.5,0,2.1-0.9,2.1-2.2v-4c0-1.3-0.6-2.2-2.1-2.2c-1.4,0-2.1,0.9-2.1,2.2
		V36.2z M44.4,32c0-0.5,0.2-0.8,0.7-0.8c0.5,0,0.7,0.3,0.7,0.8v4.4c0,0.5-0.2,0.8-0.7,0.8c-0.5,0-0.7-0.3-0.7-0.8V32z"/>
	<polygon class="st1" points="52.9,38.3 52.9,30.1 51.1,30.1 50.3,34.7 50.3,34.7 49.4,30.1 47.8,30.1 47.8,38.3 49,38.3 49,33 
		49,33 50,38.3 50.7,38.3 51.6,33 51.6,33 51.6,38.3 	"/>
	<rect x="53.5" y="30.1" class="st1" width="1.4" height="8.2"/>
	<path class="st1" d="M59.5,33v-1c0-1.2-0.4-2-1.9-2c-1.4,0-2,0.9-2,2.2v4c0,1.3,0.6,2.2,2,2.2c1.5,0,1.9-0.9,1.9-2V35h-1.3v1.5
		c0,0.5-0.2,0.8-0.7,0.8c-0.5,0-0.7-0.3-0.7-0.8V32c0-0.5,0.2-0.8,0.7-0.8c0.5,0,0.7,0.3,0.7,0.8V33H59.5z"/>
	<path class="st1" d="M60,32.2v4c0,1.3,0.6,2.2,2.1,2.2c1.5,0,2.1-0.9,2.1-2.2v-4c0-1.3-0.6-2.2-2.1-2.2C60.6,30,60,31,60,32.2z
		 M62.8,32v4.4c0,0.5-0.2,0.8-0.7,0.8c-0.5,0-0.7-0.3-0.7-0.8V32c0-0.5,0.2-0.8,0.7-0.8C62.6,31.2,62.8,31.5,62.8,32z"/>
</g>
</svg>
