<?xml version="1.0" encoding="utf-8"?>
<!-- Generator: Adobe Illustrator 24.0.0, SVG Export Plug-In . SVG Version: 6.00 Build 0)  -->
<svg version="1.1" id="Layer_1" xmlns="http://www.w3.org/2000/svg" xmlns:xlink="http://www.w3.org/1999/xlink" x="0px" y="0px"
	 viewBox="0 0 100 100" style="enable-background:new 0 0 100 100;" xml:space="preserve">
<style type="text/css">
	.st0{fill:#C5192D;}
	.st1{fill:#FFFFFF;}
</style>
<rect x="0.3" y="-0.2" class="st0" width="100" height="100"/>
<g>
	<path class="st1" d="M19.2,8.2h-3.3L10,23v2.1h6v3.3h3.2v-3.3h1.4v-2.6h-1.4V8.2z M16.1,22.4H13l3-8.3h0V22.4z"/>
	<polygon class="st1" points="44.7,53.4 26.7,43.1 26.7,76.6 44.7,82 	"/>
	<polygon class="st1" points="46.6,82 64.7,76.6 64.7,43.1 46.6,53.5 	"/>
	<path class="st1" d="M76.7,40.1c-1.2,0-2.1,0.9-2.1,2.1v2.3h4.2v-2.3C78.8,41.1,77.8,40.1,76.7,40.1z"/>
	<polygon class="st1" points="77.7,46.2 77.2,46.2 76.1,46.2 75.6,46.2 75.1,46.2 74.5,46.2 74.5,76 74.5,76 76.7,83.4 78.8,76 
		78.8,46.2 78.2,46.2 	"/>
	<polygon class="st1" points="66.6,77.5 46.7,83.9 45.8,83.9 45.6,83.9 44.7,83.9 24.8,78.4 24.8,43 22.9,44.5 22.9,79.7 44.6,85.7 
		45.6,85.7 45.8,85.7 46.8,85.7 66.8,79.4 68.5,78.9 68.5,44.5 66.6,43 	"/>
	<path class="st1" d="M30.5,28.3v0.6l2.6,0.5v-1l-1-0.2c0.7-0.3,1-1,1-1.9v-4c0-1.3-0.6-2.2-2.1-2.2c-1.4,0-2.1,0.9-2.1,2.2v4
		C28.9,27.3,29.4,28.1,30.5,28.3z M30.3,22.1c0-0.5,0.2-0.8,0.7-0.8c0.5,0,0.7,0.3,0.7,0.8v4.5c0,0.5-0.2,0.8-0.7,0.8
		c-0.5,0-0.7-0.4-0.7-0.8V22.1z"/>
	<path class="st1" d="M33.9,20.2v6.2c0,1.3,0.6,2.1,2,2.1c1.4,0,1.9-0.8,1.9-2.1v-6.2h-1.3v6.3c0,0.5-0.2,0.8-0.7,0.8
		c-0.5,0-0.7-0.3-0.7-0.8v-6.3H33.9z"/>
	<path class="st1" d="M40.1,20.2l-1.5,8.2h1.3l0.2-1.5h1.5l0.3,1.5h1.4l-1.6-8.2H40.1z M40.3,25.8l0.5-3.3h0l0.5,3.3H40.3z"/>
	<polygon class="st1" points="45.3,20.2 43.9,20.2 43.9,28.3 46.9,28.3 46.9,27.2 45.3,27.2 	"/>
	<rect x="47.7" y="20.2" class="st1" width="1.4" height="8.2"/>
	<path class="st1" d="M49.9,28.3H52c1.5,0,2-0.9,2-2.2v-3.8c0-1.3-0.5-2.2-2-2.2h-2.1V28.3z M51.3,21.3h0.6c0.6,0,0.8,0.3,0.8,0.8
		v4.3c0,0.5-0.2,0.8-0.8,0.8h-0.6V21.3z"/>
	<path class="st1" d="M57.7,26.8l0.3,1.5h1.4l-1.6-8.2h-1.6l-1.5,8.2H56l0.2-1.5H57.7z M57,22.5L57,22.5l0.6,3.3h-1.1L57,22.5z"/>
	<path class="st1" d="M64.1,26.1v-3.8c0-1.3-0.5-2.2-2-2.2H60v8.2h2.1C63.6,28.3,64.1,27.4,64.1,26.1z M62.8,26.4
		c0,0.5-0.2,0.8-0.8,0.8h-0.6v-5.9H62c0.6,0,0.8,0.3,0.8,0.8V26.4z"/>
	<polygon class="st1" points="68.3,21.3 68.3,20.2 65,20.2 65,28.3 68.3,28.3 68.3,27.2 66.4,27.2 66.4,24.7 67.7,24.7 67.7,23.6 
		66.4,23.6 66.4,21.3 	"/>
	<polygon class="st1" points="32.2,15.2 30.3,15.2 30.3,12.8 31.6,12.8 31.6,11.6 30.3,11.6 30.3,9.3 32.2,9.3 32.2,8.2 28.9,8.2 
		28.9,16.4 32.2,16.4 	"/>
	<path class="st1" d="M37.1,14.2v-3.8c0-1.3-0.5-2.2-2-2.2H33v8.2h2.1C36.6,16.4,37.1,15.4,37.1,14.2z M34.4,15.2V9.3H35
		c0.6,0,0.8,0.3,0.8,0.8v4.3c0,0.5-0.2,0.8-0.8,0.8H34.4z"/>
	<path class="st1" d="M40.1,16.5c1.4,0,1.9-0.8,1.9-2.1V8.2h-1.3v6.3c0,0.5-0.2,0.8-0.7,0.8c-0.5,0-0.7-0.3-0.7-0.8V8.2H38v6.2
		C38,15.6,38.6,16.5,40.1,16.5z"/>
	<path class="st1" d="M45,16.5c1.5,0,1.9-0.9,1.9-2V13h-1.3v1.5c0,0.5-0.2,0.8-0.7,0.8c-0.5,0-0.7-0.3-0.7-0.8v-4.4
		c0-0.5,0.2-0.8,0.7-0.8c0.5,0,0.7,0.3,0.7,0.8v1.1h1.3v-1c0-1.2-0.4-2-1.9-2c-1.4,0-2,0.9-2,2.2v4C42.9,15.5,43.5,16.5,45,16.5z"/>
	<path class="st1" d="M48.8,14.9h1.5l0.3,1.5h1.4l-1.6-8.2h-1.6l-1.5,8.2h1.3L48.8,14.9z M49.5,10.5L49.5,10.5l0.6,3.3H49L49.5,10.5
		z"/>
	<path class="st1" d="M53.9,16.4v0.4H54c0.1,0,0.2,0,0.2,0.1c0,0.1-0.1,0.2-0.4,0.2v0.4c0.9,0,1.2-0.2,1.2-0.6
		c0-0.3-0.2-0.4-0.5-0.4v-0.1c1.4,0,1.8-0.9,1.8-2V13H55v1.5c0,0.5-0.2,0.8-0.7,0.8c-0.5,0-0.7-0.3-0.7-0.8v-4.4
		c0-0.5,0.2-0.8,0.7-0.8c0.5,0,0.7,0.3,0.7,0.8v1.1h1.3v-1c0-1.2-0.4-2-1.9-2c-1.4,0-2,0.9-2,2.2v4C52.3,15.4,52.8,16.3,53.9,16.4z"
		/>
	<path class="st1" d="M58.6,7.7c0.2,0,0.5,0.2,0.8,0.2c0.6,0,0.8-0.5,0.8-1h-0.7C59.5,7,59.5,7,59.4,7c-0.2,0-0.5-0.2-0.8-0.2
		c-0.6,0-0.8,0.5-0.8,1h0.7C58.4,7.7,58.5,7.7,58.6,7.7z"/>
	<path class="st1" d="M58.2,14.9h1.5l0.3,1.5h1.4l-1.6-8.2h-1.6l-1.5,8.2h1.3L58.2,14.9z M58.9,10.5L58.9,10.5l0.6,3.3h-1.1
		L58.9,10.5z"/>
	<path class="st1" d="M63.8,16.5c1.5,0,2.1-0.9,2.1-2.2v-4c0-1.3-0.6-2.2-2.1-2.2c-1.4,0-2.1,0.9-2.1,2.2v4
		C61.7,15.5,62.3,16.5,63.8,16.5z M63.1,10.1c0-0.5,0.2-0.8,0.7-0.8c0.5,0,0.7,0.3,0.7,0.8v4.4c0,0.5-0.2,0.8-0.7,0.8
		c-0.5,0-0.7-0.3-0.7-0.8V10.1z"/>
	<path class="st1" d="M69.7,8.2h-2.1v8.2h2.1c1.5,0,2-0.9,2-2.2v-3.8C71.6,9.1,71.1,8.2,69.7,8.2z M70.3,14.4c0,0.5-0.2,0.8-0.8,0.8
		h-0.6V9.3h0.6c0.6,0,0.8,0.3,0.8,0.8V14.4z"/>
	<polygon class="st1" points="75.5,15.2 73.6,15.2 73.6,12.8 75,12.8 75,11.6 73.6,11.6 73.6,9.3 75.5,9.3 75.5,8.2 72.2,8.2 
		72.2,16.4 75.5,16.4 	"/>
</g>
</svg>
