<?xml version="1.0" encoding="utf-8"?>
<!-- Generator: Adobe Illustrator 24.0.0, SVG Export Plug-In . SVG Version: 6.00 Build 0)  -->
<svg version="1.1" id="Layer_1" xmlns="http://www.w3.org/2000/svg" xmlns:xlink="http://www.w3.org/1999/xlink" x="0px" y="0px"
	 viewBox="0 0 100 100" style="enable-background:new 0 0 100 100;" xml:space="preserve">
<style type="text/css">
	.st0{fill:#FDFEFE;}
	.st1{fill:#4D8ECB;}
	.st2{fill:#498CCA;}
	.st3{fill:#07B0EF;}
	.st4{fill:#09B0EF;}
	.st5{fill:#05AFEE;}
	.st6{fill:#03AEEE;}
	.st7{fill:#4F8FCB;}
	.st8{fill:#0AB1EF;}
	.st9{fill:#5191CC;}
	.st10{fill:#10B2EF;}
	.st11{fill:#E92B45;}
	.st12{fill:#EF4633;}
	.st13{fill:#CA9C33;}
	.st14{fill:#DE1D6C;}
	.st15{fill:#FAC519;}
	.st16{fill:#E5B73A;}
	.st17{fill:#45824B;}
	.st18{fill:#F16F34;}
	.st19{fill:#194C6D;}
	.st20{fill:#61BC4B;}
	.st21{fill:#F8A02F;}
	.st22{fill:#A42248;}
	.st23{fill:#51A34B;}
	.st24{fill:#186DA1;}
	.st25{fill:#2499D4;}
	.st26{fill:#C82634;}
	.st27{fill:#2DC0E5;}
	.st28{fill:#F8FAFC;}
	.st29{fill:#F3F7FB;}
</style>
<g>
	<g>
		<path class="st0" d="M100,86.5c-33.3,0-66.7,0-100,0c0-24.3,0-48.6,0-72.9c33.3,0,66.7,0,100,0C100,37.8,100,62.2,100,86.5z
			 M41,20.2c1.2-0.7,1.7-2,2.6-3C42.3,17.4,41,18.7,41,20.2C41,20.2,41,20.2,41,20.2C41,20.3,41,20.3,41,20.2
			C41,20.2,41,20.2,41,20.2z M58.3,18.2c0,0-0.1,0-0.1,0C58.2,18.2,58.2,18.3,58.3,18.2c0.5,0.8,0.5,1.6,0.6,2.5
			c-0.6-0.5-1.3-1-1.9-1.6c0,0.5,0.3,1,0.7,1.4c0.7,0.7,1.4,1.3,2.1,2c0-0.7,0.1-1.4,0-2.2C59.6,19.4,59.2,18.6,58.3,18.2z
			 M41.3,18.4c-0.6,0-0.9,0.5-1.2,0.9c-0.6,1.1-0.2,2.3-0.3,3.5c0.1-0.1,0.1-0.2,0.2-0.3c0.4-0.3,0.8-0.7,1.2-1
			c-0.6,0.7-1.1,1.4-1.8,2.1c0-1.2,0-2.4,0-3.7c-0.8,1.2-1.1,2.4-0.7,3.7c0.2,0.7,0.4,1.4,0.6,1.9c0.4-0.6,0.8-1.3,1.2-2
			c-0.1,0.3-0.1,0.6-0.2,0.9c-0.3,0.8-0.7,1.5-1,2.2c-0.3-1-0.7-2.2-1.1-3.3c-0.6,2.2,0.2,4,1.7,5.4c0.1-0.6,0.1-1.2,0.3-1.8
			c0.2-0.9,0.4-1.8,0.6-2.8c0-0.2-0.1-0.5-0.2-0.7c0.3-0.6,0.5-1.2,0.8-1.8c0.1-0.1,0.1-0.4-0.2-0.2c0-0.1,0-0.2,0.1-0.3
			c0.3-0.4,0.6-0.7,0.9-1.2c0.2-0.3,0.2-0.6,0.3-0.9c-0.7,0.6-1.4,1.1-2,1.7c-0.1,0-0.1-0.1-0.2-0.1C40.7,20,41,19.2,41.3,18.4
			C41.3,18.4,41.4,18.4,41.3,18.4C41.4,18.4,41.4,18.4,41.3,18.4z M58,21.3C58,21.3,58,21.3,58,21.3C58,21.3,58,21.3,58,21.3
			c0.2,0.6,0.4,1.2,0.6,1.7c0.1,0.2,0.1,0.3,0.2,0.5c0,0.4-0.1,0.8,0,1.1c0.3,1.4,0.6,2.7,0.9,4c1.4-1.5,2.2-3.3,1.6-5.5
			c-0.3,1.1-0.7,2.2-1.1,3.3c-0.4-0.7-0.7-1.4-1.1-2.1c-0.1-0.3-0.2-0.6-0.3-0.8c0.2,0.2,0.4,0.3,0.5,0.5c0.3,0.5,0.5,1,0.8,1.4
			c0.2-0.6,0.5-1.2,0.6-1.9c0.1-0.6,0.1-1.3,0.1-1.9c-0.1-0.6-0.2-1.3-0.8-1.7c0,1.2,0,2.3,0,3.4C59.3,22.7,58.6,22,58,21.3z
			 M43.4,31.8c-0.1,0-0.1-0.1-0.2-0.1C43.3,31.7,43.3,31.8,43.4,31.8c0.3,0.9,0.8,1.7,1.2,2.5c-1.2,0-2.4,0-3.5-0.7
			c0.6,1.1,1.5,1.6,2.6,1.6c1.1,0,2.3-0.3,3.3-0.5c-0.6-0.4-1.2-0.8-1.7-1.2C44.6,32.9,44,32.3,43.4,31.8z M57.9,31.7
			c0.8-0.6,1.6-1.1,2.3-1.7c0.9-0.9,1.3-2,1.2-3.3c-0.3,1.4-1.5,2.1-2.2,3.2c0-0.7-0.1-1.3-0.1-1.8c-0.1-0.5-0.1-1.1-0.2-1.6
			c0,0-0.1,0-0.1,0C58.4,28.2,58.2,30,57.9,31.7C57.9,31.8,57.8,31.8,57.9,31.7C57.8,31.8,57.9,31.8,57.9,31.7z M41.8,31.9
			C41.8,31.9,41.8,31.9,41.8,31.9C41.8,31.9,41.8,31.9,41.8,31.9C41.8,31.9,41.8,31.9,41.8,31.9c-0.3-1.7-0.6-3.5-0.9-5.2
			c0,0-0.1,0-0.1,0c-0.1,1.1-0.2,2.2-0.3,3.3c-0.8-1-1.5-2-2.2-2.9c0,0.8,0.1,1.7,0.8,2.5C39.7,30.6,40.7,31.3,41.8,31.9z
			 M42.3,32.6c-1-0.8-2.5-1-3.2-2.5c0.4,2.3,2.4,3.7,4.7,3.6c-0.4-1-0.7-2-1.1-3c-0.2-0.5-0.6-1-0.9-1.5c-0.1,0-0.1,0.1-0.2,0.1
			c0.3,1.1,0.5,2.1,0.8,3.2C42.4,32.5,42.3,32.6,42.3,32.6z M57.4,32.5c0,0-0.1-0.1-0.1-0.1c0.3-1.1,0.5-2.1,0.8-3.2
			c-0.1,0-0.1-0.1-0.2-0.1c-0.3,0.5-0.6,0.9-0.8,1.4c-0.4,1.1-0.8,2.1-1.2,3.2c3-0.2,4.5-2,4.7-3.5c-0.4,0.4-1,0.8-1.5,1.2
			C58.5,31.9,57.9,32.2,57.4,32.5z M56.7,35.3c-0.3,0.1-0.7,0.3-1,0.3c-0.2,0.1-0.5,0.1-0.7,0c-0.5-0.2-1-0.3-1.5-0.6
			c-1.8-1-3.7-0.5-5.5-0.5c-0.9,0-1.9,0.6-2.8,0.9c-0.6,0.3-1.2,0.3-1.8,0c-0.1-0.1-0.3,0-0.6,0c1.3,1.3,3.5,1.3,4.7,0.1
			c0.4-0.4,0.9-0.8,1.6-0.8c-0.8,0.7-1.6,1.3-2.4,1.9c0.2,0.2,0.4,0.4,0.5,0.5c0.7-0.7,1.4-1.3,2.2-1.9c0.5-0.4,0.9-0.2,1.3,0.2
			c0.7,0.6,1.3,1.2,1.9,1.8c0.1-0.1,0.3-0.3,0.5-0.6c-0.8-0.6-1.6-1.2-2.4-1.9c0.7-0.1,1.1,0.3,1.6,0.6c0.5,0.3,1,0.7,1.5,0.9
			C54.9,36.7,56.2,36.2,56.7,35.3c0.1,0,0.1,0,0.1,0C56.8,35.3,56.7,35.3,56.7,35.3z M41.6,24.7c0,3.5,1.2,6,3.7,7.8
			c1.6,1.2,3.5,1.6,5.5,1.3c1.5-0.2,2.8-0.7,4-1.7c1.9-1.7,3-3.7,3.2-6.3c0.2-3.5-1-6.3-3.8-8.3c-2.8-2-7-1.5-9.3,0.4
			C42.7,19.8,41.6,22.2,41.6,24.7z M18,55.9c1.9,0,3.7,0.1,5.5,0c1.9-0.1,3.4-1,3.9-3c0.5-2-0.1-3.6-2-4.6c0.2-0.2,0.5-0.3,0.7-0.5
			c0.2-0.2,0.4-0.4,0.6-0.7c1.1-2.4-0.1-5.3-2.9-5.6c-1.9-0.2-3.8-0.1-5.7-0.1c0,0-0.1,0-0.1,0.1C18,46.2,18,51,18,55.9z M10.3,56.2
			c2.1,0,3.9-0.9,5.1-2.6c1.3-1.8,1.7-3.9,1.4-6.1c-0.3-2.4-1.3-4.4-3.4-5.6c-2.7-1.5-6.1-1-8.1,1.7c-1.7,2.3-2,4.9-1.2,7.6
			c0.6,2.2,1.9,4,4.3,4.7C9,56.1,9.7,56.1,10.3,56.2z M84.6,51.5c-0.2,1.7,0.9,3.7,2.6,4.2c0.5,0.1,1,0.3,1.5,0.3
			c1.8,0.1,3.6,0,4.9-1.6c1.2-1.5,1.4-4.5-0.3-5.8c-0.7-0.6-1.5-0.9-2.3-1.2c-0.9-0.3-1.8-0.6-2.7-1c-0.9-0.4-1.2-1.5-0.6-2.1
			c0.4-0.4,0.9-0.7,1.5-0.8c1.1-0.2,2.1,0.4,2.4,1.5c0.9,0,1.7,0,2.6,0c-0.1-1.1-0.4-1.9-1.1-2.7c-0.8-0.8-1.8-1.2-2.9-1.3
			c-1.5-0.1-2.8,0-4.1,1.1c-2.2,1.9-2.1,6.1,1.4,7.2c1.2,0.4,2.3,0.9,3.4,1.4c0.8,0.3,1,1.2,0.6,1.8c-0.7,1-2.2,1.3-3.3,0.7
			c-0.8-0.4-1.2-1-1.2-1.9C86.4,51.5,85.5,51.5,84.6,51.5z M35.8,41.4c0,4.8,0,9.6,0,14.5c2.9,0,5.7,0,8.6,0c0-0.9,0-1.7,0-2.7
			c-2,0-3.9,0-5.8,0c0-1.2,0-2.3,0-3.4c1.9,0,3.8,0,5.7,0c0-0.8,0-1.6,0-2.5c-1.9,0-3.8,0-5.7,0c0-1.1,0-2.2,0-3.3c2,0,3.9,0,5.8,0
			c0-0.9,0-1.8,0-2.6C41.5,41.4,38.7,41.4,35.8,41.4z M59.1,41.4c0.2,0.5,0.3,1,0.4,1.5c0.6,2,1.2,4,1.8,5.9
			c0.7,2.3,1.4,4.5,2.1,6.8c0.1,0.3,0.2,0.4,0.5,0.4c0.6,0,1.3,0,1.9,0c0.5,0,0.6-0.2,0.7-0.6c1.3-4.4,2.6-8.7,3.9-13.1
			c0.1-0.3,0.1-0.6,0.2-0.9c-0.9,0-1.8,0-2.6,0c-0.1,0-0.3,0.2-0.4,0.3c-0.2,0.6-0.4,1.3-0.5,2c-0.7,2.8-1.4,5.5-2.2,8.4
			c-0.2-0.7-0.4-1.3-0.5-2c-0.8-2.8-1.5-5.6-2.3-8.4c0-0.1-0.2-0.3-0.3-0.3C60.9,41.4,60,41.4,59.1,41.4z M54.5,41.4
			c-3.3,0-6.5,0-9.8,0c0,0.9,0,1.7,0,2.6c1.2,0,2.3,0,3.5,0c0,4,0,7.9,0,11.8c0.9,0,1.8,0,2.7,0c0-4,0-7.9,0-11.8c1.2,0,2.4,0,3.5,0
			C54.5,43.1,54.5,42.3,54.5,41.4z M55.5,78.4c0-3.5,0-6.8,0-10.2c-0.6,0-1.2,0-1.9,0c0,2.2,0,4.4,0,6.7c-0.1-0.2-0.2-0.2-0.2-0.3
			c-1.1-2-2.3-4.1-3.4-6.1c-0.1-0.1-0.3-0.3-0.4-0.3c-0.6,0-1.2,0-1.9,0c0,3.5,0,6.8,0,10.2c0.6,0,1.2,0,1.9,0c0-2.3,0-4.5,0-6.9
			c0.3,0.5,0.6,0.9,0.8,1.3c1,1.8,2,3.6,3,5.4c0.1,0.1,0.3,0.3,0.5,0.3C54.4,78.5,54.9,78.4,55.5,78.4z M27.9,56.1
			c1.2-0.2,2.4-0.3,3.6-0.5c0.4-0.1,0.8-0.4,1.2-0.7c1.1-1,1.3-2.3,1.4-3.7c0-3.1,0-6.2,0-9.3c0-0.2,0-0.4,0-0.6c-2.1,0-4.1,0-6.2,0
			c0,0.9,0,1.7,0,2.7c1.2,0,2.3,0,3.4,0c0,2.7,0,5.4,0,8.1c0,0.4-0.3,0.8-0.7,1c-0.4,0.2-0.9,0.3-1.4,0.4c-0.4,0.1-0.9,0-1.3,0
			C27.9,54.4,27.9,55.2,27.9,56.1z M19.7,68.2c0,2.1,0,4.2,0,6.2c0,0.6-0.3,1.2-0.6,1.8c-0.5,0.8-2.4,0.7-2.9,0
			c-0.4-0.6-0.6-1.2-0.6-1.9c0-1.8,0-3.6,0-5.4c0-0.2,0-0.4,0-0.6c-0.7,0-1.3,0-1.9,0c0,0.1-0.1,0.1-0.1,0.1c0,2.3,0,4.6,0.1,6.8
			c0,1.2,0.6,2.3,1.7,2.9c2.4,1.4,5.9,0.6,6.2-3.1c0.2-2.2,0-4.4,0-6.7c0,0,0-0.1-0.1-0.1C21,68.2,20.4,68.2,19.7,68.2z M87.7,74.1
			c0-0.7,0-1.2,0-1.9c-1.4,0-2.7,0-4,0c0-0.8,0-1.5,0-2.2c1.4,0,2.8,0,4.1,0c0-0.6,0-1.2,0-1.8c-2,0-4.1,0-6.1,0c0,3.4,0,6.8,0,10.2
			c1,0,2,0,3,0c1,0,2,0,3.1,0c0-0.6,0-1.2,0-1.8c-1.4,0-2.7,0-4.1,0c0-0.8,0-1.6,0-2.5C85.1,74.1,86.4,74.1,87.7,74.1z M4.9,75.4
			c-0.1,1.4,0.7,2.7,2,3c0.6,0.2,1.3,0.2,2,0.2c1.8-0.1,2.9-1.3,3-2.7c0.2-1.6-0.4-2.7-2.4-3.4c-0.7-0.2-1.4-0.5-2.1-0.7
			c-0.5-0.2-0.7-0.7-0.5-1.1c0.1-0.3,0.5-0.7,0.8-0.8c1.1-0.3,1.8,0,2.2,0.9c0.6,0,1.2,0,1.8,0c-0.1-1.1-0.5-1.9-1.4-2.4
			c-1.1-0.5-2.2-0.7-3.4-0.2c-1.3,0.6-1.9,1.5-2,3c0,1,0.7,2.3,2,2.7c0.8,0.3,1.7,0.7,2.5,1c0.4,0.2,0.6,0.4,0.6,0.9
			c0,0.4-0.2,0.8-0.7,1c-1.2,0.5-2.3,0.1-2.6-1.2c0,0-0.1-0.1-0.1-0.1C6.1,75.4,5.5,75.4,4.9,75.4z M23.4,75.4c0,0.1,0,0.2-0.1,0.2
			c-0.1,1.2,0.9,2.6,2.2,2.9c1.3,0.2,2.7,0.4,3.8-0.6c1.8-1.6,1.6-4.4-1.1-5.3c-0.7-0.2-1.4-0.5-2.1-0.7c-0.5-0.2-0.7-0.6-0.7-1.1
			c0-0.5,0.4-0.8,0.9-0.9c1-0.2,1.6,0,2,0.9c0.6,0,1.3,0,1.9,0c-0.1-1.1-0.5-1.9-1.4-2.3c-1.1-0.6-2.2-0.8-3.5-0.2
			c-1.2,0.5-1.9,1.6-1.9,3c0,1.2,0.8,2.1,2,2.6c0.8,0.3,1.7,0.6,2.5,1.1c0.3,0.1,0.5,0.6,0.6,0.9c0,0.4-0.2,0.7-0.6,0.9
			c-1.2,0.5-2.2,0.1-2.7-1.3C24.6,75.4,24,75.4,23.4,75.4z M46.1,76.6c-1.4,0-2.8,0-4.1,0c0-0.9,0-1.7,0-2.5c1.4,0,2.7,0,4,0
			c0-0.6,0-1.2,0-1.9c-1.4,0-2.7,0-4,0c0-0.8,0-1.5,0-2.2c1.4,0,2.8,0,4.1,0c0-0.6,0-1.2,0-1.8c-2,0-4.1,0-6.1,0c0,3.4,0,6.8,0,10.2
			c2,0,4.1,0,6.1,0C46.1,77.8,46.1,77.3,46.1,76.6z M72.8,78.4c-0.3-1-0.6-1.9-0.9-2.8c-0.7-2.1-1.4-4.2-2.1-6.3
			c-0.4-1.3-0.4-1.3-1.7-1.3c-0.1,0-0.2,0-0.3,0c-0.4-0.1-0.5,0.1-0.6,0.5c-0.8,2.5-1.7,4.9-2.5,7.4c-0.3,0.8-0.5,1.6-0.8,2.4
			c0.7,0,1.4,0,2.1,0c0.1-0.4,0.2-0.7,0.3-1.1c0.1-0.4,0.2-0.7,0.4-1c0.6,0,1.1,0,1.6,0c0.6,0,1.3-0.2,1.7,0.1
			c0.4,0.3,0.4,1.1,0.6,1.6c0,0,0,0,0,0.1c0.2,0.1,0.3,0.3,0.5,0.3C71.5,78.5,72.1,78.4,72.8,78.4z M58.4,55.9c0-4.8,0-9.7,0-14.5
			c-0.9,0-1.8,0-2.7,0c0,4.8,0,9.7,0,14.5C56.6,55.9,57.5,55.9,58.4,55.9z M76.5,75.4c0,0-0.1,0-0.1,0c-0.1-0.3-0.2-0.7-0.3-1
			c-0.5-2-1.1-3.9-1.6-5.9c0-0.2-0.2-0.4-0.3-0.4c-0.6,0-1.3,0-1.9,0c0,0.2,0,0.2,0.1,0.3c0.9,2.8,1.7,5.7,2.6,8.5
			c0.1,0.5,0.2,1.2,0.5,1.4c0.4,0.2,1,0.1,1.5,0.1c0.3,0,0.5-0.1,0.6-0.4c0.8-2.7,1.6-5.4,2.4-8c0.2-0.6,0.3-1.2,0.5-1.8
			c-0.6,0-1.1,0-1.7,0c-0.3,0-0.4,0.1-0.5,0.4c-0.2,1-0.5,1.9-0.8,2.9C77.2,72.8,76.9,74.1,76.5,75.4z M64,68.2c-2.3,0-4.6,0-6.9,0
			c0,0.6,0,1.2,0,1.9c0.8,0,1.6,0,2.5,0c0,2.8,0,5.6,0,8.4c0.7,0,1.3,0,2,0c0-2.8,0-5.6,0-8.4c0.9,0,1.7,0,2.5,0
			C64,69.4,64,68.8,64,68.2z M38.5,68.2c-2.3,0-4.6,0-7,0c0,0.6,0,1.2,0,1.9c0.8,0,1.6,0,2.5,0c0,2.8,0,5.6,0,8.4c0.7,0,1.3,0,2,0
			c0-2.8,0-5.6,0-8.4c0.9,0,1.7,0,2.5,0C38.5,69.4,38.5,68.8,38.5,68.2z M91.4,76.5c0-2.8,0-5.6,0-8.3c-0.7,0-1.3,0-1.9,0
			c0,3.4,0,6.8,0,10.2c1.9,0,3.7,0,5.6,0c0-0.6,0-1.3,0-1.9C93.9,76.5,92.7,76.5,91.4,76.5z M73.2,65.1c0-2.1,0-4.2,0-6.2
			c-1.5,0-1.2-0.3-1.7,1.1c-0.4,1-0.8,2-1.2,3c-0.4-1.1-0.8-2-1.2-3c-0.6-1.4-0.2-1.1-1.6-1.1c0,0-0.1,0-0.1,0.1c0,2.1,0,4.1,0,6.2
			c0.4,0,0.7,0,1.1,0c0-1.3,0-2.5,0-3.8c0.5,1.1,0.9,2.3,1.4,3.4c0.1,0.2,0.3,0.4,0.5,0.4c0.3,0.1,0.4-0.2,0.5-0.4
			c0.4-1.2,0.9-2.3,1.3-3.5c0,0,0.1,0,0.1,0c0,1.3,0,2.6,0,3.9C72.5,65.1,72.9,65.1,73.2,65.1z M80.4,61.2c0,0,0.1,0,0.1,0
			c0.6,1.1,1.3,2.2,1.9,3.3c0.4,0.8,0.6,0.8,1.5,0.6c0-2.1,0-4.1,0-6.2c-0.4,0-0.7,0-1.1,0c0,1.3,0,2.6,0,3.8
			c-0.7-1-1.2-1.9-1.8-2.9c-0.5-0.9-0.8-1.1-1.8-0.8c0,2,0,4.1,0,6.1c0.4,0,0.8,0,1.2,0C80.4,63.8,80.4,62.5,80.4,61.2z M39.6,61.2
			c0,0,0.1,0,0.1,0c0.7,1.2,1.3,2.4,2,3.6c0.1,0.2,0.3,0.3,0.4,0.4c0.3,0.1,0.6,0,0.9,0c0-2.1,0-4.2,0-6.2c-0.4,0-0.7,0-1.1,0
			c0,1.3,0,2.5,0,3.8c-0.6-0.9-1.2-1.9-1.7-2.9c-0.5-0.9-0.6-1.1-1.8-0.9c0,2.1,0,4.1,0,6.2c0.4,0,0.7,0,1.1,0
			C39.6,63.8,39.6,62.5,39.6,61.2z M5.3,58.9c0,2.1,0,4.2,0,6.3c1,0,1.9-0.1,2.9-0.1c0.2,0,0.4-0.1,0.6-0.2c1.5-1.1,1.7-2.4,1.3-4.1
			C9.8,59.6,9,59,7.8,58.9C7,58.9,6.1,58.9,5.3,58.9z M18,65.2c0.7,0,1.3,0,2,0c0.3,0,0.6,0,0.8-0.1c0.2,0,0.5-0.1,0.6-0.2
			c1.4-0.9,1.9-2.7,1.3-4.3c-0.3-0.7-0.7-1.4-1.5-1.5c-1-0.1-2.1-0.2-3.2-0.2C18,61,18,63.1,18,65.2z M54.9,62c0.1,0,0.1,0,0.2-0.1
			c-0.3-0.7-0.5-1.3-0.8-2c-0.4-0.9-1.2-1.1-2.1-1.2c-0.9,0-1.7,0.2-2.2,1c-0.7,1-0.9,2.2-0.5,3.4c0.5,1.6,1.8,2.4,3.5,2
			C53.9,64.9,55,63.5,54.9,62z M89,62c0.2,0.6,0.3,1.3,0.6,1.9c0.9,1.4,2,1.8,3.5,1.1c1-0.4,1.5-1.4,1.6-2.5
			c0.2-1.3-0.5-2.8-1.4-3.3C91.4,58.2,89.2,59.2,89,62z M37.4,61.3c-0.8,0-1.6,0-2.4,0c0-0.4,0-0.8,0-1.3c0.8,0,1.6,0,2.4,0
			c0-0.4,0-0.8,0-1.1c-1.2,0-2.4,0-3.7,0c0,2.1,0,4.1,0,6.2c1.2,0,2.5,0,3.7,0c0-0.4,0-0.8,0-1.2c-0.8,0-1.6,0-2.4,0
			c0-0.5,0-0.9,0-1.4c0.8,0,1.6,0,2.4,0C37.4,62.1,37.4,61.8,37.4,61.3z M74.6,58.9c0,2.1,0,4.1,0,6.2c1.2,0,2.4,0,3.7,0
			c0-0.4,0-0.8,0-1.2c-0.8,0-1.6,0-2.4,0c0-0.5,0-0.9,0-1.4c0.8,0,1.6,0,2.4,0c0-0.4,0-0.8,0-1.2c-0.8,0-1.6,0-2.4,0
			c0-0.4,0-0.8,0-1.3c0.8,0,1.6,0,2.4,0c0-0.4,0-0.8,0-1.1C77,58.9,75.8,58.9,74.6,58.9z M28.3,63.3c0.2,0.5,0.3,0.9,0.5,1.2
			c0.5,0.8,1.4,0.8,2.2,0.7c0.9,0,1.5-0.8,1.7-1.5c0.2-0.9-0.1-1.6-1-2c-0.5-0.2-1-0.4-1.5-0.6c-0.5-0.2-0.6-0.7-0.3-1
			c0.4-0.4,1-0.4,1.3,0c0.4,0.6,0.9,0.3,1.4,0.4c-0.1-1.3-1.1-1.9-2.4-1.7c-1,0.2-1.6,0.7-1.6,1.7c-0.1,0.8,0.4,1.5,1.3,1.8
			c0.5,0.2,0.9,0.3,1.4,0.5c0.4,0.2,0.5,0.7,0.2,1c-0.5,0.4-1.4,0.2-1.7-0.3c-0.1-0.1-0.2-0.2-0.3-0.3
			C29.1,63.3,28.8,63.3,28.3,63.3z M27.7,65.1c0-0.4,0-0.8,0-1.2c-0.8,0-1.7,0-2.5,0c0-0.5,0-0.9,0-1.4c0.8,0,1.6,0,2.4,0
			c0-0.4,0-0.8,0-1.2c-0.8,0-1.6,0-2.4,0c0-0.5,0-0.8,0-1.3c0.8,0,1.6,0,2.5,0c0-0.4,0-0.8,0-1.1c-1.2,0-2.4,0-3.6,0
			c0,2.1,0,4.1,0,6.2C25.3,65.1,26.4,65.1,27.7,65.1z M14.9,58.9c-1.3,0-2.5,0-3.7,0c0,2.1,0,4.1,0,6.2c1.2,0,2.4,0,3.7,0
			c0-0.4,0-0.8,0-1.2c-0.8,0-1.7,0-2.5,0c0-0.5,0-0.9,0-1.4c0.8,0,1.6,0,2.4,0c0-0.4,0-0.8,0-1.1c-0.8,0-1.6,0-2.4,0
			c0-0.4,0-0.8,0-1.3c0.8,0,1.7,0,2.5,0C14.9,59.6,14.9,59.3,14.9,58.9z M59.2,58.9c0,0.1,0,0.1,0,0.1c0.6,2,1.1,3.9,1.8,5.9
			c0.2,0.5,0.6,0.2,0.9,0.2c0.1,0,0.4-0.1,0.4-0.3c0.5-1.6,1-3.2,1.5-4.8c0.1-0.4,0.2-0.7,0.3-1.2c-0.2,0-0.4,0-0.6,0
			c-0.5-0.1-0.8,0.1-0.9,0.7c-0.1,0.7-0.4,1.5-0.5,2.2c-0.1,0.5-0.3,1-0.5,1.6c-0.4-1.5-0.8-3-1.2-4.4
			C59.9,58.9,59.5,58.9,59.2,58.9z M43.9,58.9c0,0.1,0,0.1,0,0.2c0.6,1.9,1.1,3.8,1.7,5.8c0.2,0.5,0.6,0.2,0.9,0.3
			c0.3,0.1,0.4,0,0.5-0.3c0.4-1.5,0.9-3.1,1.4-4.6c0.1-0.4,0.2-0.9,0.4-1.3c-1.5-0.1-1.2-0.2-1.5,1c-0.3,1.1-0.6,2.2-0.9,3.4
			c-0.3-1.2-0.7-2.3-0.9-3.4C45.1,58.8,45.2,58.8,43.9,58.9C44,58.9,44,58.9,43.9,58.9z M87.5,65.1c0-1.7,0-3.4,0-5.1
			c0.5,0,1,0,1.4,0c0-0.4,0-0.8,0-1.1c-1.4,0-2.8,0-4.2,0c0,0.4,0,0.7,0,1.2c0.5,0,1,0,1.5,0c0,1.7,0,3.4,0,5
			C86.7,65.1,87.1,65.1,87.5,65.1z M56,58.9c0,2.1,0,4.1,0,6.2c1.1,0,2.2,0,3.3,0c0-0.4,0-0.8,0-1.2c-0.7,0-1.4,0-2.2,0
			c0-1.7,0-3.4,0-5C56.7,58.9,56.3,58.9,56,58.9z M64.8,58.9c0,2.1,0,4.1,0,6.2c0.4,0,0.7,0,1.1,0c0-2.1,0-4.1,0-6.2
			C65.6,58.9,65.2,58.9,64.8,58.9z M54.7,34.3c0.9-0.7,1.3-1.6,1.6-2.7c-1.3,1-2,2.6-3.8,2.9c0.5,0.1,0.9,0.2,1.3,0.3
			c0.8,0.1,1.7,0.3,2.5,0.2c0.9-0.1,1.8-0.6,2.3-1.6c-0.7,0.2-1.2,0.5-1.8,0.6C56.1,34.2,55.4,34.2,54.7,34.3z M77.3,41.3
			c0,1.2,0,2.3,0,3.4c0.3,0.1,0.7,0.1,1,0.2c0.4-1.1,0.7-2.1,1.1-3.2C78.7,41.6,78,41.5,77.3,41.3z M84.2,48.5
			c-1.1,0.2-2.1,0.3-3.1,0.4c0,0.3-0.1,0.6-0.1,1c1,0.3,2,0.6,3.1,1C84.1,50.1,84.1,49.3,84.2,48.5z M73.8,51.5
			c-0.2-0.3-0.2-0.5-0.4-0.7c-0.1-0.1-0.3-0.2-0.4-0.2c-0.9,0.2-1.8,0.5-2.8,0.8c0.4,0.8,0.7,1.4,1,2.2
			C72.1,52.8,72.9,52.1,73.8,51.5z M75.6,56.5c0.2-1.2,0.4-2.3,0.6-3.3c-0.4-0.1-0.7-0.3-1-0.4c-0.5,1-1.1,1.9-1.7,2.9
			C74.2,56,74.9,56.2,75.6,56.5z M82.7,53.7c-0.9-0.7-1.7-1.3-2.5-1.9c-0.3,0.3-0.6,0.5-0.8,0.7c0.5,1,1.1,1.9,1.7,2.9
			C81.6,54.9,82.1,54.4,82.7,53.7z M81.8,43.2c-0.7-0.4-1.3-0.8-1.9-1.2c-0.4,1.1-0.8,2.1-1.1,3.1c0.3,0.2,0.6,0.5,0.9,0.7
			C80.3,44.9,81,44.1,81.8,43.2z M73.2,50c-0.1-0.4-0.1-0.8-0.1-1.1c-1-0.1-2-0.3-3.1-0.4c0.1,0.8,0.1,1.6,0.2,2.5
			C71.2,50.6,72.2,50.3,73.2,50z M78.2,56.5c-0.2-1.2-0.4-2.2-0.6-3.3c-0.4,0-0.7,0-1.1,0c-0.2,1.1-0.4,2.1-0.6,3.3
			C76.8,56.5,77.5,56.5,78.2,56.5z M76.9,44.7c0-1.1,0-2.2,0-3.4c-0.7,0.1-1.4,0.3-2.2,0.4c0.4,1.1,0.8,2.1,1.2,3.1
			C76.2,44.8,76.5,44.8,76.9,44.7z M74.3,46c-0.7-0.8-1.4-1.7-2.1-2.5c-0.4,0.6-0.8,1.1-1.2,1.7c-0.1,0.1,0,0.3,0.1,0.4
			c0.8,0.4,1.7,0.9,2.6,1.3C73.8,46.5,74,46.3,74.3,46z M73.1,55.5c0.6-1.1,1.1-2,1.7-2.9c-0.3-0.2-0.5-0.5-0.8-0.7
			c-0.8,0.7-1.6,1.3-2.5,2C72.1,54.4,72.6,54.9,73.1,55.5z M80.7,55.7c-0.6-1.1-1.1-2-1.7-2.9c-0.4,0.2-0.7,0.3-1,0.4
			c0.2,1.1,0.4,2.1,0.6,3.3C79.4,56.2,80,55.9,80.7,55.7z M82.1,43.5c-0.7,0.9-1.4,1.7-2.1,2.5c0.2,0.3,0.5,0.6,0.6,0.9
			c0.9-0.5,1.8-0.9,2.9-1.5C82.9,44.8,82.5,44.2,82.1,43.5z M74.3,42c-0.7,0.4-1.3,0.8-1.9,1.2c0.8,0.9,1.4,1.7,2.2,2.6
			c0.3-0.2,0.6-0.5,0.8-0.7C75.1,44,74.7,43,74.3,42z M73.4,47.3c-0.9-0.5-1.8-1-2.8-1.5c-0.2,0.8-0.4,1.5-0.6,2.3
			c1.1,0.1,2.1,0.2,3.1,0.3C73.2,48,73.3,47.6,73.4,47.3z M84.2,48.1c-0.2-0.8-0.4-1.5-0.6-2.3c-1,0.6-1.9,1.1-2.8,1.6
			c0.1,0.4,0.2,0.7,0.3,1C82.1,48.3,83.1,48.2,84.2,48.1z M80.4,51.4c0.8,0.6,1.6,1.3,2.6,2c0.3-0.8,0.6-1.4,1-2.1
			c-0.9-0.3-1.8-0.5-2.6-0.7c-0.4-0.1-0.6-0.1-0.7,0.3C80.6,51,80.5,51.2,80.4,51.4z M67.4,67.5c1,0.1,2.1-0.6,2.7-1.9
			c-0.3,0-0.6,0-0.9,0c-0.6-0.1-1,0.2-1.2,0.7C67.8,66.7,67.6,67.1,67.4,67.5z M58.5,20.1c-0.2-1.7-1.2-2.8-2.6-3
			C57,18.7,57.8,19.6,58.5,20.1z"/>
		<path class="st1" d="M41.6,24.7c0-2.5,1.1-4.9,3.3-6.8c2.2-1.9,6.4-2.4,9.3-0.4c2.8,2,4.1,4.8,3.8,8.3c-0.2,2.5-1.3,4.6-3.2,6.3
			c-1.2,1-2.5,1.5-4,1.7c-2,0.3-3.9-0.1-5.5-1.3C42.8,30.7,41.6,28.1,41.6,24.7z M50.2,17.8c0.1,0.1,0.2,0.1,0.4,0.2
			c0.2,0,0.3,0,0.5,0c0.8,0.1,1.5,0.7,2.4,0.6c0.1,0,0.2,0.1,0.3,0.2c0.2,0.2,0.4,0.5,0.7,0.8c0.2-0.3,0.4-0.5,0.6-0.8
			c-1.4-1.4-3-2.1-5-2.2c0,0.3,0,0.6,0,0.9C50.1,17.7,50.1,17.8,50.2,17.8z M49.8,28.2c0.1,0,0.3,0,0.4,0.1c0.5,0.2,0.9,0,1.1-0.4
			c-0.3,0-0.6,0.1-0.9,0.1C50.2,27.8,50,28,49.8,28.2c-0.1,0-0.1,0-0.2,0.1C49.7,28.3,49.8,28.3,49.8,28.2z M53,28
			c0.2,0,0.4,0,0.4-0.1c0.2-0.4,0.4-0.8,0.7-1.4c-0.5,0-1-0.1-1.2,0.4C52.9,27.3,53,27.7,53,28C53,28,53,28,53,28
			C53,28.1,53,28.1,53,28C53,28,53,28,53,28z M48.9,25.5c0.2-0.1,0.5-0.2,0.7-0.3c0.1,0.1,0.1,0.1,0.2,0.2c-0.2,0.3-0.3,0.7-0.5,1
			c0.3,0.1,0.5,0.1,0.9-0.2c0.6-0.4,0.6-0.7,0.3-1.2c0,0,0-0.1,0-0.2c0-0.4-0.4-0.9-0.7-0.9c-0.3,0-1,0.9-1,1.1
			C48.8,25.2,48.9,25.4,48.9,25.5C48.9,25.5,48.9,25.6,48.9,25.5C48.9,25.6,48.9,25.6,48.9,25.5C48.9,25.6,48.9,25.5,48.9,25.5z
			 M55.4,19.3c-0.3,0.3-0.6,0.6-0.9,0.9c1.3,1.3,1.7,2.8,1.9,4.5c0.4,0,0.8,0,1.1,0C57.5,22.6,56.8,20.8,55.4,19.3z M44.1,19.5
			c-1.3,1.5-2,3.3-2,5.4c0.4,0,0.8,0,1.2,0c0-1.7,0.6-3.2,1.7-4.6C44.6,20,44.4,19.7,44.1,19.5z M49.5,16.7c-2,0-3.5,0.9-5,2.2
			c0.3,0.3,0.5,0.6,0.7,0.9c0.7-0.5,1.3-0.9,2-1.3c0.7-0.3,1.5-0.4,2.2-0.6C49.5,17.5,49.5,17.1,49.5,16.7z M55.5,30.7
			c1.4-1.6,2-3.3,2.1-5.3c-0.4,0-0.8,0-1.2,0c-0.1,1.7-0.7,3.2-1.7,4.5C55,30.1,55.2,30.4,55.5,30.7z M44.5,31.2
			c1.5,1.3,3,2.2,5,2.2c0-0.4,0-0.8,0-1.2c-1.6-0.2-3.1-0.6-4.2-1.9C45,30.6,44.7,30.9,44.5,31.2z M50.1,33.4c2.3,0,3.9-1,5.1-2.3
			c-0.3-0.3-0.5-0.6-0.8-0.9c-0.8,0.8-1.6,1.5-2.4,2.3c-0.7-0.5-0.7-0.5-1.9-0.3C50.1,32.5,50.1,32.9,50.1,33.4z M45.3,20.6
			c-1,1.3-1.6,2.7-1.6,4.2c0.4,0,0.8,0,1.1,0c0.1-1.3,0.5-2.4,1.3-3.3C45.8,21.2,45.6,20.9,45.3,20.6z M45.7,20.2
			c0.3,0.3,0.5,0.6,0.8,0.8c0.8-0.8,1.8-1.1,3-1.3c0-0.4,0-0.8,0-1.2C47.9,18.6,46.7,19.2,45.7,20.2z M54.5,29.3
			c0.9-1.1,1.4-2.4,1.5-4c-0.4,0-0.8,0-1,0c-0.2,0.6-0.3,1.2-0.5,1.7c-0.2,0.6-0.5,1.1-0.8,1.6C53.9,28.8,54.2,29,54.5,29.3z
			 M53.3,20.4c-0.1,0.1-0.2,0.1-0.2,0.2c0.3,0.5,0.6,0.9,0.9,1.4c0.1,0.2,0.3,0.3,0.4,0.5c0.2,0.8,0.4,1.6,0.6,2.3
			c0.3,0,0.7,0,1.1,0c-0.2-0.7-0.3-1.3-0.4-1.9c0-0.2-0.1-0.3-0.2-0.4c-0.4-0.3-0.8-0.5-1.1-0.8c-0.3-0.2-0.7-0.4-0.7-0.9
			C53.6,20.6,53.4,20.5,53.3,20.4z M49.5,30.5c-0.7-0.2-1.3-0.3-1.9-0.6c-0.7-0.4-1.1,0-1.7,0.1c1,1,2.2,1.5,3.6,1.6
			C49.5,31.2,49.5,30.8,49.5,30.5z M50.1,19.6c0.8,0.3,1.6,0.5,2.4,0.7c0-0.1,0-0.2,0-0.3c0.2,0.2,0.3,0.3,0.5,0.5
			c-0.3-1.4-1.6-2.2-2.9-1.9C50.1,19,50.1,19.3,50.1,19.6z M52.7,21.5c-0.7-0.8-1.6-1.2-2.7-1.2c0,0.4,0,0.8,0,1.1
			c0.7,0.3,1.3,0.5,2,0.8C52.3,21.9,52.5,21.7,52.7,21.5z M47.5,22.2c0.7-0.3,1.3-0.6,2-0.8c0-0.3,0-0.7,0-1.1
			c-1,0.1-1.9,0.4-2.6,1.2C47.1,21.7,47.3,22,47.5,22.2z M44,30.8c0.3-0.3,0.6-0.6,1-1c-0.9-0.4-1.2-1.5-2.5-1.6
			C43,29.2,43.5,30,44,30.8z M46.3,24.7c-0.2,0.3-0.2,0.6-0.4,0.8c-0.3,0.3-0.3,0.5-0.1,0.8c0.1,0.1,0.1,0.3,0.2,0.5
			c0.1,0.5,0.2,1,0.4,1.6c0.4-0.4,0.6-0.6,0.8-0.9c-0.3-0.6-0.6-1.1-0.8-1.7c0,0.1-0.1,0.2-0.1,0.3c-0.1,0-0.1,0-0.2-0.1
			c0-0.2,0-0.5,0.3-0.7c0.1-0.1,0.1-0.4,0.1-0.6C46.5,24.8,46.3,24.7,46.3,24.7z M46.4,21.8c-0.7,0.8-1,1.7-1.1,2.7
			c0,0.1,0.1,0.2,0.2,0.3c0.1-0.1,0.2-0.1,0.2-0.2c0-0.6,0.4-0.9,0.8-1.3C47.5,22.6,47.5,22.8,46.4,21.8z M42,25.3
			c0.1,0.8,0.3,1.5,0.4,2.1c0.3-0.3,0.7-0.5,1-0.8c0-0.4-0.1-0.8-0.1-1.2C42.8,25.3,42.4,25.3,42,25.3z M48.6,29.8
			c0.1-0.5,0.1-0.8,0.1-1.2c-0.4-0.2-0.8-0.5-1.2-0.7c-0.2,0.2-0.4,0.5-0.8,0.8C47.4,29.1,48,29.5,48.6,29.8z M49.7,27.1
			c-0.4-0.2-0.8-0.3-1.1-0.4c-0.2,0.3-0.4,0.5-0.7,0.8c0.5,0.2,1,0.5,1.5,0.7C49.5,27.8,49.6,27.4,49.7,27.1z M50.6,23.4
			c0.5,0.2,0.8-0.1,0.9-0.9c-0.5-0.2-0.9-0.3-1.4-0.5C50,23,50,23,50.9,22.7C50.8,22.9,50.7,23.1,50.6,23.4z M53.6,22.9
			c0,0,0.1,0,0.1,0c-0.2-0.4-0.3-0.7-0.6-1.2c-0.4,0.4-0.6,0.7-0.8,1c0.6,0.4,1.2,0.7,1.8,1c0,0,0.1-0.1,0.1-0.1
			C54,23.3,53.8,23.1,53.6,22.9z M47.9,22.8c0.5,0.9,1,0.2,1.5,0c0-0.2,0-0.5,0-0.8C48.8,22.1,48.2,22.2,47.9,22.8z M43.7,25.4
			c0.1,0.5,0.2,1,0.2,1.6c0.1-0.4,0.2-0.6,0.4-0.9c0.1-0.3,0.3-0.5,0.5-0.7c-0.3,0-0.6-0.1-0.9-0.1C43.8,25.3,43.8,25.4,43.7,25.4z
			 M50.7,31.6c-0.1-0.3-0.2-0.6-0.3-1c-0.6,0.2-0.2,0.7-0.4,1.1C50.3,31.6,50.5,31.6,50.7,31.6z M53.2,29c0,0-0.1,0-0.1,0.1
			c0.1,0.1,0.1,0.3,0.2,0.4c0.2,0.2,0.3,0.3,0.1,0.6c-0.1,0.1-0.1,0.2-0.1,0.4c0.3-0.2,0.5-0.4,0.7-0.5C53.6,29.6,53.4,29.3,53.2,29
			z M47.2,26c0,0-0.1,0.1-0.1,0.1c0.2,0.3,0.3,0.6,0.5,1c0.2-0.2,0.3-0.3,0.4-0.5C47.7,26.4,47.4,26.2,47.2,26z"/>
		<path class="st2" d="M18,55.9c0-4.8,0-9.6,0-14.4c0,0,0.1-0.1,0.1-0.1c1.9,0,3.8-0.1,5.7,0.1c2.9,0.2,4,3.2,2.9,5.6
			c-0.1,0.3-0.3,0.5-0.6,0.7c-0.2,0.2-0.5,0.4-0.7,0.5c1.9,1,2.5,2.6,2,4.6c-0.5,2-1.9,2.9-3.9,3C21.7,56,19.9,55.9,18,55.9z
			 M20.7,53.4c0.9-0.1,1.8,0,2.6-0.2c0.9-0.1,1.4-0.8,1.4-1.6c0-0.7-0.6-1.8-1.5-1.8c-0.8-0.1-1.7,0-2.5,0
			C20.7,50.9,20.7,52.1,20.7,53.4z M20.8,44c0,1.2,0,2.3,0,3.4c0.7,0,1.4,0,2,0c0.2,0,0.3-0.1,0.5-0.1c0.8-0.2,1.2-1,1.2-1.8
			c-0.1-0.8-0.6-1.4-1.4-1.4C22.3,43.9,21.5,44,20.8,44z"/>
		<path class="st2" d="M10.3,56.2c-0.6-0.1-1.3-0.2-1.9-0.3c-2.3-0.7-3.6-2.4-4.3-4.7c-0.8-2.7-0.5-5.3,1.2-7.6
			c2-2.7,5.4-3.2,8.1-1.7c2.1,1.2,3.1,3.2,3.4,5.6c0.3,2.2-0.1,4.3-1.4,6.1C14.2,55.3,12.5,56.2,10.3,56.2z M14.1,48.9
			c0-1.5-0.1-2.1-0.8-3.5c-0.6-1.2-1.6-1.6-2.9-1.6c-1.2,0-2.3,0.4-2.9,1.5c-1.2,2.1-1.2,4.2-0.1,6.4c0.5,1.1,1.5,1.6,2.6,1.8
			c1.2,0.2,2.1-0.3,3-1.1c0.2-0.2,0.3-0.3,0.4-0.5C13.8,50.9,14.1,49.8,14.1,48.9z"/>
		<path class="st2" d="M84.6,51.5c0.9,0,1.7,0,2.6,0c0,0.8,0.4,1.5,1.2,1.9c1.1,0.6,2.6,0.2,3.3-0.7c0.4-0.6,0.2-1.5-0.6-1.8
			c-1.1-0.5-2.2-1-3.4-1.4c-3.6-1.1-3.6-5.3-1.4-7.2c1.2-1.1,2.6-1.2,4.1-1.1c1.1,0.1,2.1,0.4,2.9,1.3c0.7,0.8,1.1,1.6,1.1,2.7
			c-0.9,0-1.8,0-2.6,0c-0.3-1.1-1.4-1.7-2.4-1.5c-0.5,0.1-1.1,0.4-1.5,0.8c-0.6,0.6-0.3,1.7,0.6,2.1c0.9,0.4,1.8,0.7,2.7,1
			c0.8,0.3,1.6,0.6,2.3,1.2c1.7,1.3,1.5,4.3,0.3,5.8c-1.3,1.6-3,1.7-4.9,1.6c-0.5,0-1-0.2-1.5-0.3C85.6,55.3,84.5,53.3,84.6,51.5z"
			/>
		<path class="st2" d="M35.8,41.4c2.9,0,5.7,0,8.5,0c0,0.9,0,1.7,0,2.6c-1.9,0-3.8,0-5.8,0c0,1.1,0,2.2,0,3.3c1.9,0,3.8,0,5.7,0
			c0,0.8,0,1.6,0,2.5c-1.9,0-3.8,0-5.7,0c0,1.2,0,2.3,0,3.4c1.9,0,3.9,0,5.8,0c0,0.9,0,1.8,0,2.7c-2.9,0-5.7,0-8.6,0
			C35.8,51,35.8,46.2,35.8,41.4z"/>
		<path class="st2" d="M59.1,41.4c1,0,1.8,0,2.7,0c0.1,0,0.3,0.2,0.3,0.3c0.8,2.8,1.5,5.6,2.3,8.4c0.2,0.6,0.3,1.2,0.5,2
			c0.8-2.9,1.5-5.6,2.2-8.4c0.2-0.7,0.3-1.3,0.5-2c0-0.1,0.2-0.3,0.4-0.3c0.8,0,1.7,0,2.6,0c-0.1,0.4-0.1,0.7-0.2,0.9
			c-1.3,4.3-2.6,8.7-3.9,13.1c-0.1,0.4-0.3,0.6-0.7,0.6c-0.6,0-1.3,0-1.9,0c-0.3,0-0.4-0.1-0.5-0.4c-0.7-2.3-1.4-4.5-2.1-6.8
			c-0.6-2-1.2-4-1.8-5.9C59.4,42.4,59.2,41.9,59.1,41.4z"/>
		<path class="st2" d="M54.5,41.4c0,0.9,0,1.7,0,2.6c-1.2,0-2.3,0-3.5,0c0,4,0,7.9,0,11.8c-0.9,0-1.8,0-2.7,0c0-3.9,0-7.8,0-11.8
			c-1.2,0-2.3,0-3.5,0c0-0.9,0-1.7,0-2.6C48,41.4,51.3,41.4,54.5,41.4z"/>
		<path class="st3" d="M55.5,78.4c-0.6,0-1.1,0-1.7,0c-0.2,0-0.4-0.1-0.5-0.3c-1-1.8-2-3.6-3-5.4c-0.2-0.4-0.4-0.7-0.8-1.3
			c0,2.4,0,4.6,0,6.9c-0.7,0-1.2,0-1.9,0c0-3.4,0-6.8,0-10.2c0.6,0,1.3,0,1.9,0c0.1,0,0.3,0.2,0.4,0.3c1.2,2,2.3,4.1,3.4,6.1
			c0,0.1,0.1,0.1,0.2,0.3c0-2.3,0-4.5,0-6.7c0.7,0,1.2,0,1.9,0C55.5,71.6,55.5,75,55.5,78.4z"/>
		<path class="st2" d="M27.9,56.1c0-1,0-1.7,0-2.6c0.4,0,0.9,0,1.3,0c0.5-0.1,1-0.1,1.4-0.4c0.3-0.2,0.7-0.7,0.7-1
			c0.1-2.7,0-5.3,0-8.1c-1.1,0-2.3,0-3.4,0c0-0.9,0-1.8,0-2.7c2.1,0,4.1,0,6.2,0c0,0.2,0,0.4,0,0.6c0,3.1,0,6.2,0,9.3
			c0,1.4-0.2,2.8-1.4,3.7c-0.3,0.3-0.8,0.6-1.2,0.7C30.3,55.9,29.1,56,27.9,56.1z"/>
		<path class="st3" d="M19.7,68.2c0.7,0,1.3,0,1.9,0c0,0,0.1,0.1,0.1,0.1c0,2.2,0.1,4.5,0,6.7c-0.3,3.7-3.8,4.4-6.2,3.1
			c-1-0.6-1.6-1.7-1.7-2.9c-0.1-2.3-0.1-4.6-0.1-6.8c0,0,0-0.1,0.1-0.1c0.6,0,1.2,0,1.9,0c0,0.2,0,0.4,0,0.6c0,1.8,0,3.6,0,5.4
			c0,0.7,0.2,1.3,0.6,1.9c0.6,0.8,2.4,0.9,2.9,0c0.3-0.5,0.6-1.2,0.6-1.8C19.8,72.4,19.7,70.3,19.7,68.2z"/>
		<path class="st4" d="M87.7,74.1c-1.3,0-2.6,0-4,0c0,0.8,0,1.6,0,2.5c1.4,0,2.7,0,4.1,0c0,0.6,0,1.2,0,1.8c-1,0-2,0-3.1,0
			c-1,0-2,0-3,0c0-3.4,0-6.8,0-10.2c2,0,4,0,6.1,0c0,0.6,0,1.2,0,1.8c-1.4,0-2.7,0-4.1,0c0,0.8,0,1.5,0,2.2c1.3,0,2.6,0,4,0
			C87.7,72.9,87.7,73.4,87.7,74.1z"/>
		<path class="st5" d="M4.9,75.4c0.6,0,1.2,0,1.8,0c0,0,0,0.1,0.1,0.1c0.4,1.2,1.4,1.7,2.6,1.2c0.4-0.2,0.6-0.5,0.7-1
			c0-0.4-0.2-0.7-0.6-0.9c-0.8-0.4-1.6-0.8-2.5-1c-1.3-0.4-2-1.7-2-2.7c0.1-1.4,0.7-2.4,2-3c1.2-0.5,2.3-0.3,3.4,0.2
			c1,0.5,1.4,1.3,1.4,2.4c-0.6,0-1.2,0-1.8,0c-0.4-0.9-1-1.2-2.2-0.9C7.5,70,7.2,70.3,7,70.6c-0.2,0.4,0,0.9,0.5,1.1
			c0.7,0.3,1.4,0.5,2.1,0.7c2,0.7,2.6,1.7,2.4,3.4c-0.2,1.4-1.2,2.6-3,2.7c-0.7,0-1.4,0-2-0.2C5.6,78.1,4.8,76.8,4.9,75.4z"/>
		<path class="st5" d="M23.4,75.4c0.6,0,1.2,0,1.8,0c0.5,1.4,1.5,1.8,2.7,1.3c0.4-0.2,0.7-0.5,0.6-0.9c0-0.3-0.3-0.7-0.6-0.9
			c-0.8-0.4-1.6-0.7-2.5-1.1c-1.2-0.5-2-1.4-2-2.6c0-1.4,0.7-2.5,1.9-3c1.2-0.5,2.4-0.3,3.5,0.2c0.9,0.5,1.3,1.3,1.4,2.3
			c-0.6,0-1.2,0-1.9,0c-0.5-0.9-1-1.2-2-0.9c-0.5,0.1-0.9,0.4-0.9,0.9c0,0.5,0.2,0.9,0.7,1.1c0.7,0.3,1.4,0.5,2.1,0.7
			c2.7,0.9,2.9,3.7,1.1,5.3c-1.1,0.9-2.4,0.8-3.8,0.6c-1.3-0.2-2.3-1.7-2.2-2.9C23.3,75.5,23.3,75.5,23.4,75.4z"/>
		<path class="st5" d="M46.1,76.6c0,0.7,0,1.2,0,1.8c-2,0-4,0-6.1,0c0-3.4,0-6.8,0-10.2c2,0,4,0,6.1,0c0,0.6,0,1.2,0,1.8
			c-1.4,0-2.7,0-4.1,0c0,0.7,0,1.5,0,2.2c1.3,0,2.6,0,4,0c0,0.7,0,1.2,0,1.9c-1.3,0-2.6,0-4,0c0,0.8,0,1.6,0,2.5
			C43.3,76.6,44.7,76.6,46.1,76.6z"/>
		<path class="st6" d="M72.8,78.4c-0.7,0-1.2,0-1.8,0c-0.2,0-0.3-0.2-0.5-0.3c0,0,0,0,0-0.1c-0.2-0.6-0.2-1.3-0.6-1.6
			c-0.4-0.3-1.1-0.1-1.7-0.1c-0.5,0-1.1,0-1.6,0c-0.1,0.3-0.2,0.7-0.4,1c-0.1,0.3-0.2,0.7-0.3,1.1c-0.7,0-1.4,0-2.1,0
			c0.3-0.8,0.5-1.6,0.8-2.4c0.8-2.5,1.7-4.9,2.5-7.4c0.1-0.3,0.3-0.5,0.6-0.5c0.1,0,0.2,0,0.3,0c1.3,0,1.3,0,1.7,1.3
			c0.7,2.1,1.4,4.2,2.1,6.3C72.2,76.6,72.4,77.5,72.8,78.4z M69.5,74.6c-0.4-1.3-0.8-2.6-1.2-4c-0.4,1.4-0.8,2.7-1.2,4
			C67.9,74.6,68.6,74.6,69.5,74.6z"/>
		<path class="st7" d="M58.4,55.9c-0.9,0-1.8,0-2.7,0c0-4.8,0-9.7,0-14.5c0.9,0,1.8,0,2.7,0C58.4,46.2,58.4,51,58.4,55.9z"/>
		<path class="st5" d="M76.5,75.4c0.4-1.3,0.7-2.7,1.1-4c0.3-1,0.5-1.9,0.8-2.9c0.1-0.3,0.2-0.4,0.5-0.4c0.5,0,1.1,0,1.7,0
			c-0.2,0.6-0.3,1.2-0.5,1.8c-0.8,2.7-1.6,5.3-2.4,8c-0.1,0.3-0.2,0.5-0.6,0.4c-0.5,0-1.2,0.1-1.5-0.1c-0.3-0.2-0.4-0.9-0.5-1.4
			c-0.9-2.8-1.7-5.7-2.6-8.5c0-0.1,0-0.1-0.1-0.3c0.7,0,1.3,0,1.9,0c0.1,0,0.3,0.2,0.3,0.4c0.5,2,1.1,3.9,1.6,5.9
			c0.1,0.3,0.2,0.7,0.3,1C76.5,75.4,76.5,75.4,76.5,75.4z"/>
		<path class="st8" d="M64,68.2c0,0.6,0,1.2,0,1.8c-0.8,0-1.6,0-2.5,0c0,2.8,0,5.6,0,8.4c-0.7,0-1.3,0-2,0c0-2.8,0-5.5,0-8.4
			c-0.9,0-1.7,0-2.5,0c0-0.7,0-1.2,0-1.9C59.3,68.2,61.6,68.2,64,68.2z"/>
		<path class="st8" d="M38.5,68.2c0,0.6,0,1.2,0,1.8c-0.8,0-1.6,0-2.5,0c0,2.8,0,5.6,0,8.4c-0.7,0-1.3,0-2,0c0-2.8,0-5.5,0-8.4
			c-0.9,0-1.7,0-2.5,0c0-0.7,0-1.2,0-1.9C33.9,68.2,36.1,68.2,38.5,68.2z"/>
		<path class="st3" d="M91.4,76.5c1.3,0,2.4,0,3.7,0c0,0.6,0,1.2,0,1.9c-1.8,0-3.7,0-5.6,0c0-3.4,0-6.8,0-10.2c0.6,0,1.2,0,1.9,0
			C91.4,70.9,91.4,73.7,91.4,76.5z"/>
		<path class="st5" d="M73.2,65.1c-0.4,0-0.7,0-1.1,0c0-1.3,0-2.6,0-3.9c0,0-0.1,0-0.1,0c-0.4,1.2-0.9,2.3-1.3,3.5
			c-0.1,0.3-0.2,0.5-0.5,0.4c-0.2-0.1-0.4-0.2-0.5-0.4c-0.5-1.1-0.9-2.3-1.4-3.4c0,1.3,0,2.5,0,3.8c-0.4,0-0.7,0-1.1,0
			c0-2.1,0-4.1,0-6.2c0,0,0.1-0.1,0.1-0.1c1.5,0,1.1-0.3,1.6,1.1c0.4,1,0.8,1.9,1.2,3c0.4-1.1,0.8-2.1,1.2-3
			c0.5-1.3,0.2-1.1,1.7-1.1C73.2,61,73.2,63,73.2,65.1z"/>
		<path class="st4" d="M80.4,61.2c0,1.3,0,2.6,0,3.9c-0.4,0-0.8,0-1.2,0c0-2.1,0-4.1,0-6.1c1-0.3,1.3-0.1,1.8,0.8
			c0.5,1,1.1,2,1.8,2.9c0-1.3,0-2.5,0-3.8c0.4,0,0.7,0,1.1,0c0,2,0,4.1,0,6.2c-0.9,0.2-1.1,0.2-1.5-0.6c-0.6-1.1-1.3-2.2-1.9-3.3
			C80.4,61.2,80.4,61.2,80.4,61.2z"/>
		<path class="st3" d="M39.6,61.2c0,1.3,0,2.6,0,3.9c-0.4,0-0.7,0-1.1,0c0-2.1,0-4.1,0-6.2c1.1-0.2,1.3-0.1,1.8,0.9
			c0.5,1,1.1,2,1.7,2.9c0-1.2,0-2.5,0-3.8c0.4,0,0.7,0,1.1,0c0,2,0,4.1,0,6.2c-0.3,0-0.6,0-0.9,0c-0.2,0-0.3-0.2-0.4-0.4
			c-0.7-1.2-1.4-2.4-2-3.6C39.7,61.2,39.7,61.2,39.6,61.2z"/>
		<path class="st8" d="M5.3,58.9c0.9,0,1.7,0,2.6,0C9,59,9.8,59.6,10,60.7c0.4,1.7,0.2,3-1.3,4.1C8.6,65,8.3,65,8.1,65.1
			c-1,0.1-1.9,0.1-2.9,0.1C5.3,63.1,5.3,61,5.3,58.9z M6.4,64c1.2,0.1,1.9,0,2.2-0.6c0.5-0.8,0.5-2.1,0-2.7C8,59.9,7.2,60,6.4,60.1
			C6.4,61.4,6.4,62.7,6.4,64z"/>
		<path class="st4" d="M18,65.2c0-2.1,0-4.1,0-6.3c1.1,0.1,2.1,0.1,3.2,0.2c0.8,0.1,1.3,0.8,1.5,1.5c0.6,1.6,0.1,3.4-1.3,4.3
			c-0.2,0.1-0.4,0.2-0.6,0.2c-0.3,0.1-0.6,0.1-0.8,0.1C19.4,65.2,18.7,65.2,18,65.2z M19.2,64c0.9,0,1.7,0.2,2.2-0.6
			c0.5-0.9,0.6-1.8,0-2.7c-0.5-0.8-1.4-0.6-2.2-0.6c0,0.1,0,0.3,0,0.4C19.2,61.6,19.2,62.7,19.2,64z"/>
		<path class="st3" d="M54.9,62c0.1,1.6-1,2.9-2,3.2c-1.7,0.4-2.9-0.3-3.5-2c-0.4-1.2-0.2-2.4,0.5-3.4c0.5-0.8,1.3-1,2.2-1
			c0.9,0,1.7,0.3,2.1,1.2c0.3,0.6,0.5,1.3,0.8,2C55,61.9,55,62,54.9,62z M53.8,62C53.7,62,53.7,62,53.8,62c-0.1-0.2-0.1-0.4-0.1-0.5
			C53.5,60.6,53,60,52.2,60c-0.8,0-1.4,0.4-1.6,1.3c-0.2,0.7-0.1,1.4,0.2,2c0.2,0.5,0.7,0.8,1.3,0.8c0.6,0,1.1-0.2,1.3-0.8
			C53.6,62.9,53.6,62.4,53.8,62z"/>
		<path class="st3" d="M89,62c0.2-2.7,2.4-3.8,4.3-2.8c1,0.5,1.6,2,1.4,3.3c-0.1,1.1-0.6,2.1-1.6,2.5c-1.5,0.7-2.7,0.3-3.5-1.1
			C89.3,63.3,89.2,62.6,89,62z M90.3,62c0.1,0.4,0.2,0.9,0.3,1.3c0.2,0.5,0.7,0.8,1.3,0.8c0.6,0,1.1-0.2,1.3-0.7
			c0.4-0.7,0.5-1.5,0.2-2.3c-0.2-0.6-0.6-1-1.3-1.1C91,59.9,90.4,60.7,90.3,62z"/>
		<path class="st8" d="M37.4,61.3c0,0.4,0,0.8,0,1.2c-0.8,0-1.6,0-2.4,0c0,0.5,0,0.9,0,1.4c0.8,0,1.6,0,2.4,0c0,0.4,0,0.8,0,1.2
			c-1.2,0-2.4,0-3.7,0c0-2.1,0-4.1,0-6.2c1.2,0,2.4,0,3.7,0c0,0.4,0,0.7,0,1.1c-0.8,0-1.6,0-2.4,0c0,0.4,0,0.8,0,1.3
			C35.8,61.3,36.6,61.3,37.4,61.3z"/>
		<path class="st8" d="M74.6,58.9c1.2,0,2.4,0,3.6,0c0,0.4,0,0.7,0,1.1c-0.8,0-1.6,0-2.4,0c0,0.5,0,0.8,0,1.3c0.8,0,1.5,0,2.4,0
			c0,0.4,0,0.8,0,1.2c-0.8,0-1.5,0-2.4,0c0,0.5,0,1,0,1.4c0.8,0,1.6,0,2.4,0c0,0.4,0,0.8,0,1.2c-1.2,0-2.4,0-3.7,0
			C74.6,63.1,74.6,61,74.6,58.9z"/>
		<path class="st3" d="M28.3,63.3c0.5,0,0.8,0,1,0c0.1,0,0.3,0.1,0.3,0.3c0.3,0.6,1.2,0.8,1.7,0.3c0.3-0.3,0.3-0.8-0.2-1
			c-0.4-0.2-0.9-0.3-1.4-0.5c-0.9-0.3-1.3-1-1.3-1.8c0.1-1,0.6-1.6,1.6-1.7c1.4-0.2,2.3,0.4,2.4,1.7c-0.5,0-1,0.2-1.4-0.4
			c-0.3-0.4-1-0.4-1.3,0c-0.3,0.3-0.2,0.8,0.3,1c0.5,0.2,1,0.4,1.5,0.6c0.9,0.4,1.2,1,1,2c-0.2,0.7-0.8,1.5-1.7,1.5
			c-0.8,0-1.7,0.1-2.2-0.7C28.6,64.1,28.5,63.8,28.3,63.3z"/>
		<path class="st4" d="M27.7,65.1c-1.2,0-2.4,0-3.6,0c0-2.1,0-4.1,0-6.2c1.2,0,2.4,0,3.6,0c0,0.4,0,0.7,0,1.1c-0.8,0-1.6,0-2.5,0
			c0,0.4,0,0.8,0,1.3c0.8,0,1.6,0,2.4,0c0,0.4,0,0.8,0,1.2c-0.8,0-1.6,0-2.4,0c0,0.5,0,0.9,0,1.4c0.8,0,1.6,0,2.5,0
			C27.7,64.4,27.7,64.7,27.7,65.1z"/>
		<path class="st4" d="M14.9,58.9c0,0.4,0,0.7,0,1.1c-0.8,0-1.6,0-2.5,0c0,0.5,0,0.9,0,1.3c0.8,0,1.6,0,2.4,0c0,0.4,0,0.7,0,1.1
			c-0.8,0-1.6,0-2.4,0c0,0.5,0,0.9,0,1.4c0.8,0,1.6,0,2.5,0c0,0.4,0,0.8,0,1.2c-1.2,0-2.4,0-3.7,0c0-2.1,0-4.1,0-6.2
			C12.4,58.9,13.6,58.9,14.9,58.9z"/>
		<path class="st3" d="M59.2,58.9c0.4,0,0.8,0,1.2,0c0.4,1.4,0.8,2.9,1.2,4.4c0.2-0.6,0.3-1.1,0.5-1.6c0.2-0.7,0.4-1.4,0.5-2.2
			c0.1-0.5,0.3-0.8,0.9-0.7c0.2,0,0.3,0,0.6,0c-0.1,0.4-0.2,0.8-0.3,1.2c-0.5,1.6-1,3.2-1.5,4.8c0,0.1-0.3,0.3-0.4,0.3
			c-0.3,0-0.8,0.3-0.9-0.2c-0.6-2-1.2-3.9-1.8-5.9C59.1,59,59.1,59,59.2,58.9z"/>
		<path class="st3" d="M43.9,58.9C44,58.9,44,58.9,43.9,58.9c1.2-0.1,1.2-0.1,1.5,1c0.3,1.1,0.6,2.2,0.9,3.4
			c0.3-1.2,0.6-2.3,0.9-3.4c0.3-1.2,0-1.1,1.5-1c-0.1,0.4-0.2,0.9-0.4,1.3c-0.5,1.5-0.9,3.1-1.4,4.6c-0.1,0.3-0.3,0.4-0.5,0.3
			c-0.3-0.1-0.8,0.2-0.9-0.3c-0.6-1.9-1.2-3.8-1.7-5.8C43.9,59,43.9,59,43.9,58.9z"/>
		<path class="st9" d="M56.8,35.4c-0.5,0.9-1.9,1.3-3.1,0.9c-0.6-0.2-1-0.5-1.5-0.9c-0.5-0.3-0.9-0.7-1.6-0.6
			c0.8,0.6,1.6,1.2,2.4,1.9c-0.2,0.2-0.3,0.4-0.5,0.6c-0.7-0.6-1.3-1.2-1.9-1.8c-0.4-0.3-0.8-0.6-1.3-0.2c-0.7,0.6-1.4,1.3-2.2,1.9
			c-0.1-0.1-0.2-0.3-0.5-0.5c0.8-0.7,1.6-1.3,2.4-1.9c-0.7,0-1.2,0.3-1.6,0.8c-1.2,1.2-3.4,1.2-4.7-0.1c0.3,0,0.4,0,0.6,0
			c0.6,0.3,1.2,0.3,1.8,0c0.9-0.4,1.9-0.9,2.8-0.9c1.8,0,3.7-0.5,5.5,0.5c0.4,0.3,1,0.4,1.5,0.6c0.2,0.1,0.5,0,0.7,0
			C56,35.6,56.4,35.4,56.8,35.4C56.7,35.3,56.7,35.4,56.8,35.4z"/>
		<path class="st10" d="M87.5,65.1c-0.4,0-0.8,0-1.2,0c0-1.7,0-3.3,0-5c-0.5,0-1,0-1.5,0c0-0.4,0-0.8,0-1.2c1.4,0,2.8,0,4.2,0
			c0,0.4,0,0.7,0,1.1c-0.5,0-0.9,0-1.4,0C87.5,61.8,87.5,63.4,87.5,65.1z"/>
		<path class="st3" d="M56,58.9c0.4,0,0.7,0,1.1,0c0,1.7,0,3.3,0,5c0.8,0,1.5,0,2.2,0c0,0.4,0,0.8,0,1.2c-1.1,0-2.2,0-3.3,0
			C56,63.1,56,61,56,58.9z"/>
		<path class="st10" d="M64.8,58.9c0.4,0,0.7,0,1.1,0c0,2.1,0,4.1,0,6.2c-0.4,0-0.7,0-1.1,0C64.8,63.1,64.8,61,64.8,58.9z"/>
		<path class="st9" d="M57.4,32.5c0.5-0.3,1.1-0.6,1.6-1c0.6-0.4,1.1-0.9,1.5-1.2c-0.2,1.5-1.7,3.2-4.7,3.5c0.4-1,0.7-2.1,1.2-3.2
			c0.2-0.5,0.5-1,0.8-1.4c0.1,0,0.1,0.1,0.2,0.1c-0.3,1.1-0.5,2.1-0.8,3.2c0,0-0.1,0.1-0.1,0.1c0,0,0,0.1-0.1,0.1c0,0,0.1,0,0.1,0
			C57.3,32.6,57.3,32.5,57.4,32.5z"/>
		<path class="st7" d="M42.4,32.5c-0.3-1.1-0.5-2.1-0.8-3.2c0.1,0,0.1-0.1,0.2-0.1c0.3,0.5,0.6,1,0.9,1.5c0.4,1,0.8,2,1.1,3
			c-2.3,0.1-4.3-1.3-4.7-3.6c0.7,1.5,2.2,1.6,3.2,2.5c0.1,0,0.1,0.1,0.2,0.1C42.4,32.6,42.4,32.6,42.4,32.5z"/>
		<path class="st9" d="M41.8,31.9c-1.1-0.5-2.1-1.3-2.8-2.2c-0.6-0.7-0.8-1.7-0.8-2.5c0.7,0.9,1.4,1.9,2.2,2.9
			c0.1-1.2,0.2-2.3,0.3-3.3c0,0,0.1,0,0.1,0C41.2,28.4,41.5,30.1,41.8,31.9L41.8,31.9z"/>
		<path class="st9" d="M57.9,31.8c0.3-1.8,0.6-3.5,0.8-5.3c0,0,0.1,0,0.1,0c0.1,0.5,0.2,1.1,0.2,1.6c0.1,0.6,0.1,1.1,0.1,1.8
			c0.7-1.2,1.9-1.8,2.2-3.2c0.2,1.3-0.2,2.4-1.2,3.3C59.5,30.6,58.6,31.2,57.9,31.8C57.9,31.7,57.9,31.8,57.9,31.8z"/>
		<path class="st9" d="M54.7,34.3c0.8-0.1,1.4-0.1,2.1-0.2c0.6-0.1,1.2-0.4,1.8-0.6c-0.5,1-1.3,1.5-2.3,1.6
			c-0.8,0.1-1.7-0.1-2.5-0.2c-0.4,0-0.8-0.2-1.3-0.3c1.8-0.4,2.5-1.9,3.8-2.9C56,32.7,55.6,33.5,54.7,34.3z"/>
		<path class="st9" d="M43.4,31.8c0.6,0.6,1.2,1.1,1.8,1.7c0.5,0.4,1.1,0.8,1.7,1.2c-1,0.2-2.2,0.4-3.3,0.5c-1.1,0-2-0.5-2.6-1.6
			c1.1,0.7,2.4,0.7,3.5,0.7C44.2,33.5,43.8,32.7,43.4,31.8C43.4,31.8,43.4,31.8,43.4,31.8z"/>
		<path class="st9" d="M40.8,23.6c0.1,0.2,0.2,0.5,0.2,0.7c-0.2,0.9-0.4,1.8-0.6,2.8c-0.1,0.6-0.2,1.3-0.3,1.8
			c-1.5-1.5-2.3-3.3-1.7-5.4c0.4,1.1,0.8,2.3,1.1,3.3c0.3-0.7,0.7-1.5,1-2.2C40.7,24.2,40.7,23.9,40.8,23.6
			C40.8,23.6,40.8,23.6,40.8,23.6z"/>
		<path class="st7" d="M58.8,23.6c0.1,0.3,0.2,0.6,0.3,0.8c0.3,0.7,0.7,1.4,1.1,2.1c0.4-1.1,0.7-2.3,1.1-3.3
			c0.6,2.1-0.2,3.9-1.6,5.5c-0.3-1.3-0.6-2.6-0.9-4C58.7,24.4,58.8,24,58.8,23.6C58.8,23.6,58.8,23.6,58.8,23.6z"/>
		<path class="st9" d="M58,21.3c0.6,0.7,1.3,1.3,2,2c0-1.1,0-2.2,0-3.4c0.6,0.5,0.7,1.1,0.8,1.7c0.1,0.6,0,1.3-0.1,1.9
			c-0.1,0.6-0.4,1.3-0.6,1.9c-0.2-0.5-0.5-1-0.8-1.4c-0.1-0.2-0.4-0.3-0.5-0.5c0,0,0,0,0,0c-0.1-0.2-0.1-0.3-0.2-0.5
			C58.4,22.5,58.2,21.9,58,21.3C58,21.3,58,21.3,58,21.3z"/>
		<path class="st11" d="M77.3,41.3c0.7,0.1,1.4,0.3,2.2,0.4c-0.4,1.1-0.8,2.1-1.1,3.2c-0.4-0.1-0.7-0.1-1-0.2
			C77.3,43.6,77.3,42.5,77.3,41.3z"/>
		<path class="st9" d="M41.3,21.6c0.3-0.1,0.3,0.1,0.2,0.2c-0.2,0.6-0.5,1.2-0.8,1.8c0,0,0,0,0,0c-0.4,0.7-0.9,1.4-1.2,2
			c-0.2-0.5-0.4-1.2-0.6-1.9c-0.4-1.3-0.1-2.5,0.7-3.7c0,1.3,0,2.4,0,3.7C40.2,22.9,40.8,22.3,41.3,21.6L41.3,21.6z"/>
		<path class="st12" d="M84.2,48.5c-0.1,0.8-0.1,1.6-0.2,2.4c-1.1-0.4-2.1-0.7-3.1-1c0-0.4,0.1-0.7,0.1-1
			C82.1,48.8,83.1,48.6,84.2,48.5z"/>
		<path class="st13" d="M73.8,51.5c-0.8,0.7-1.6,1.3-2.5,2c-0.3-0.7-0.7-1.4-1-2.2c1-0.3,1.9-0.6,2.8-0.8c0.1,0,0.3,0.1,0.4,0.2
			C73.5,50.9,73.6,51.2,73.8,51.5z"/>
		<path class="st14" d="M75.6,56.5c-0.7-0.3-1.4-0.5-2.1-0.8c0.6-1,1.1-2,1.7-2.9c0.3,0.1,0.6,0.2,1,0.4
			C76,54.2,75.8,55.3,75.6,56.5z"/>
		<path class="st15" d="M82.7,53.7c-0.6,0.6-1.1,1.2-1.7,1.7c-0.6-1-1.1-1.9-1.7-2.9c0.3-0.2,0.5-0.4,0.8-0.7
			C81,52.4,81.8,53,82.7,53.7z"/>
		<path class="st16" d="M81.8,43.2c-0.8,0.9-1.4,1.7-2.2,2.6c-0.3-0.2-0.6-0.5-0.9-0.7c0.4-1,0.7-2,1.1-3.1
			C80.5,42.4,81.1,42.8,81.8,43.2z"/>
		<path class="st17" d="M73.2,50c-1,0.3-2,0.6-3.1,1c-0.1-0.9-0.1-1.6-0.2-2.5c1.1,0.1,2.1,0.3,3.1,0.4C73.1,49.2,73.1,49.5,73.2,50
			z"/>
		<path class="st18" d="M78.2,56.5c-0.8,0-1.5,0-2.2,0c0.2-1.1,0.4-2.2,0.6-3.3c0.4,0,0.7,0,1.1,0C77.8,54.3,78,55.4,78.2,56.5z"/>
		<path class="st19" d="M76.9,44.7c-0.3,0.1-0.6,0.1-1,0.2c-0.4-1-0.7-2-1.2-3.1c0.8-0.1,1.4-0.3,2.2-0.4
			C76.9,42.5,76.9,43.6,76.9,44.7z"/>
		<path class="st20" d="M74.3,46c-0.2,0.3-0.4,0.5-0.7,0.8c-0.9-0.4-1.7-0.8-2.6-1.3c-0.1,0-0.2-0.3-0.1-0.4
			c0.4-0.6,0.8-1.1,1.2-1.7C72.9,44.3,73.5,45.1,74.3,46z"/>
		<path class="st21" d="M73.1,55.5c-0.6-0.6-1.1-1.1-1.6-1.7c0.8-0.7,1.6-1.3,2.5-2c0.3,0.2,0.5,0.5,0.8,0.7
			C74.3,53.5,73.7,54.4,73.1,55.5z"/>
		<path class="st22" d="M80.7,55.7c-0.7,0.3-1.4,0.5-2.1,0.8c-0.2-1.2-0.4-2.2-0.6-3.3c0.3-0.1,0.6-0.3,1-0.4
			C79.6,53.7,80.1,54.6,80.7,55.7z"/>
		<path class="st23" d="M82.1,43.5c0.5,0.7,0.9,1.3,1.4,1.9c-1,0.5-1.9,1-2.9,1.5c-0.2-0.2-0.4-0.5-0.6-0.9
			C80.6,45.2,81.3,44.4,82.1,43.5z"/>
		<path class="st24" d="M74.3,42c0.4,1.1,0.8,2.1,1.1,3.1c-0.3,0.2-0.5,0.4-0.8,0.7c-0.7-0.9-1.4-1.7-2.2-2.6
			C73.1,42.8,73.7,42.4,74.3,42z"/>
		<path class="st25" d="M73.4,47.3c-0.1,0.4-0.2,0.7-0.3,1c-1-0.1-2-0.2-3.1-0.3c0.2-0.8,0.4-1.5,0.6-2.3
			C71.6,46.3,72.5,46.8,73.4,47.3z"/>
		<path class="st26" d="M84.2,48.1c-1.1,0.1-2.1,0.2-3.1,0.3c-0.1-0.3-0.2-0.6-0.3-1c0.9-0.5,1.8-1,2.8-1.6
			C83.8,46.6,84,47.3,84.2,48.1z"/>
		<path class="st27" d="M80.4,51.4c0.1-0.2,0.2-0.4,0.2-0.5c0.1-0.4,0.4-0.4,0.7-0.3c0.8,0.3,1.6,0.5,2.6,0.7
			c-0.3,0.7-0.6,1.3-1,2.1C82,52.7,81.2,52,80.4,51.4z"/>
		<path class="st9" d="M41.3,21.6c-0.4,0.3-0.8,0.6-1.2,1c-0.1,0.1-0.1,0.2-0.2,0.3c0.1-1.2-0.3-2.4,0.3-3.5
			c0.3-0.5,0.5-0.9,1.2-0.9l0,0c-0.3,0.8-0.6,1.6-0.9,2.4c0.1,0,0.1,0.1,0.2,0.1c0.7-0.6,1.3-1.1,2-1.7c-0.1,0.3-0.1,0.6-0.3,0.9
			c-0.3,0.4-0.6,0.8-0.9,1.2C41.4,21.4,41.4,21.5,41.3,21.6C41.3,21.6,41.3,21.6,41.3,21.6z"/>
		<path class="st7" d="M58.3,18.2c1,0.4,1.3,1.2,1.4,2.1c0.1,0.7,0,1.5,0,2.2c-0.7-0.6-1.4-1.3-2.1-2c-0.4-0.4-0.6-0.9-0.7-1.4
			c0.7,0.5,1.3,1.1,1.9,1.6C58.8,19.9,58.8,19,58.3,18.2C58.2,18.3,58.2,18.3,58.3,18.2z"/>
		<path class="st10" d="M67.4,67.5c0.2-0.4,0.4-0.8,0.6-1.2c0.2-0.5,0.6-0.8,1.2-0.7c0.3,0,0.6,0,0.9,0
			C69.5,66.9,68.4,67.6,67.4,67.5z"/>
		<path class="st9" d="M58.5,20.1c-0.8-0.5-1.6-1.4-2.6-3C57.3,17.2,58.3,18.4,58.5,20.1z"/>
		<path class="st9" d="M41,20.2c0-1.5,1.2-2.8,2.6-3C42.7,18.2,42.2,19.5,41,20.2L41,20.2z"/>
		<path class="st9" d="M43.4,31.9c0-0.1-0.1-0.1-0.1-0.2C43.3,31.7,43.4,31.7,43.4,31.9C43.4,31.8,43.4,31.8,43.4,31.9z"/>
		<path class="st9" d="M41,20.2C41,20.2,41,20.2,41,20.2C41,20.3,41,20.3,41,20.2C41,20.2,41,20.2,41,20.2C41,20.2,41,20.2,41,20.2z
			"/>
		<path class="st9" d="M58,21.3C58,21.3,58,21.3,58,21.3C58,21.3,58,21.3,58,21.3C58,21.3,58,21.3,58,21.3z"/>
		<path class="st9" d="M41.3,18.4C41.4,18.4,41.4,18.4,41.3,18.4C41.4,18.4,41.3,18.4,41.3,18.4C41.3,18.4,41.3,18.4,41.3,18.4z"/>
		<path class="st7" d="M58.2,18.3C58.2,18.3,58.2,18.2,58.2,18.3C58.2,18.2,58.2,18.2,58.2,18.3C58.2,18.3,58.2,18.3,58.2,18.3z"/>
		<path class="st9" d="M57.9,31.7C57.9,31.8,57.8,31.8,57.9,31.7C57.8,31.8,57.9,31.8,57.9,31.7C57.9,31.8,57.9,31.7,57.9,31.7z"/>
		<path class="st9" d="M41.8,31.9C41.8,31.9,41.8,31.9,41.8,31.9C41.8,31.9,41.8,31.9,41.8,31.9C41.8,31.9,41.8,31.9,41.8,31.9
			C41.8,31.9,41.8,31.9,41.8,31.9z"/>
		<path class="st9" d="M56.7,35.3c0,0,0.1,0,0.1,0C56.8,35.3,56.8,35.3,56.7,35.3C56.7,35.4,56.7,35.3,56.7,35.3z"/>
		<path class="st28" d="M55.4,19.3c1.3,1.5,2,3.3,2.2,5.4c-0.4,0-0.7,0-1.1,0c-0.2-1.7-0.6-3.3-1.9-4.5
			C54.9,19.9,55.2,19.6,55.4,19.3z"/>
		<path class="st28" d="M44.1,19.5c0.3,0.3,0.6,0.5,0.9,0.8c-1.1,1.4-1.7,2.9-1.7,4.6c-0.4,0-0.7,0-1.2,0
			C42.1,22.8,42.7,21,44.1,19.5z"/>
		<path class="st28" d="M49.5,16.7c0,0.4,0,0.8,0,1.2c-0.7,0.2-1.5,0.3-2.2,0.6c-0.7,0.3-1.3,0.8-2,1.3c-0.2-0.2-0.5-0.5-0.7-0.9
			C45.9,17.6,47.5,16.8,49.5,16.7z"/>
		<path class="st28" d="M55.5,30.7c-0.3-0.3-0.6-0.6-0.8-0.8c1-1.3,1.6-2.8,1.7-4.5c0.4,0,0.8,0,1.2,0
			C57.5,27.3,56.9,29.1,55.5,30.7z"/>
		<path class="st28" d="M44.5,31.2c0.3-0.3,0.5-0.6,0.8-1c1.1,1.3,2.6,1.8,4.2,1.9c0,0.4,0,0.8,0,1.2C47.5,33.4,45.9,32.5,44.5,31.2
			z"/>
		<path class="st28" d="M50.1,33.4c0-0.4,0-0.8,0-1.2c1.2-0.2,1.2-0.2,1.9,0.3c0.8-0.7,1.5-1.5,2.4-2.3c0.3,0.3,0.5,0.6,0.8,0.9
			C53.9,32.3,52.4,33.3,50.1,33.4z"/>
		<path class="st28" d="M50,17.6c0-0.3,0-0.6,0-0.9c2,0,3.6,0.8,5,2.2c-0.2,0.3-0.4,0.5-0.6,0.8c-0.3-0.3-0.5-0.5-0.7-0.8
			c-0.1-0.1-0.2-0.2-0.3-0.2c-0.9,0.1-1.6-0.5-2.4-0.6c-0.2,0-0.3,0-0.5,0c0,0,0-0.1,0-0.1c0.2,0,0.5,0,0.7-0.1
			c0.1,0,0.2-0.2,0.3-0.3c-0.1-0.1-0.2-0.2-0.3-0.2c-0.4,0.1-0.7,0.2-1.1,0.3C50.1,17.6,50.1,17.6,50,17.6z"/>
		<path class="st28" d="M45.3,20.6c0.3,0.3,0.5,0.6,0.8,0.9c-0.8,0.9-1.2,2.1-1.3,3.3c-0.4,0-0.7,0-1.1,0
			C43.8,23.2,44.3,21.8,45.3,20.6z"/>
		<path class="st28" d="M45.7,20.2c1-1,2.2-1.6,3.7-1.7c0,0.4,0,0.8,0,1.2c-1.1,0.1-2.2,0.5-3,1.3C46.2,20.7,46,20.5,45.7,20.2z"/>
		<path class="st28" d="M54.5,29.3c-0.3-0.3-0.6-0.5-0.8-0.7c0.2-0.5,0.6-1,0.8-1.6c0.2-0.5,0.3-1.1,0.5-1.7c0.2,0,0.6,0,1,0
			C55.9,26.9,55.4,28.2,54.5,29.3z"/>
		<path class="st29" d="M53.3,20.4c0.1,0.1,0.3,0.2,0.3,0.3c0,0.5,0.4,0.7,0.7,0.9c0.4,0.3,0.8,0.5,1.1,0.8c0.1,0.1,0.2,0.3,0.2,0.4
			c0.1,0.6,0.3,1.2,0.4,1.9c-0.5,0-0.8,0-1.1,0c-0.2-0.8-0.4-1.6-0.6-2.3c0-0.2-0.3-0.3-0.4-0.5c-0.3-0.5-0.6-0.9-0.9-1.4
			C53.1,20.5,53.2,20.5,53.3,20.4z"/>
		<path class="st28" d="M49.5,30.5c0,0.3,0,0.7,0,1.1c-1.4-0.1-2.6-0.6-3.6-1.6c0.6-0.1,1.1-0.5,1.7-0.1
			C48.1,30.2,48.8,30.3,49.5,30.5z"/>
		<path class="st28" d="M50.1,19.6c0-0.3,0-0.7,0-1c1.4-0.3,2.6,0.5,2.9,1.9c-0.2-0.2-0.3-0.3-0.5-0.5c0,0.2,0,0.3,0,0.3
			C51.7,20.1,50.9,19.9,50.1,19.6z"/>
		<path class="st29" d="M48.9,25.5c-0.1-0.2-0.2-0.4-0.2-0.5c-0.1-0.3,0.7-1.1,1-1.1c0.3,0,0.7,0.5,0.7,0.9c0,0.1,0,0.1,0,0.2
			c0.3,0.5,0.3,0.8-0.3,1.2c-0.4,0.3-0.6,0.3-0.9,0.2c0.2-0.3,0.3-0.7,0.5-1c-0.1-0.1-0.1-0.1-0.2-0.2
			C49.4,25.3,49.2,25.4,48.9,25.5L48.9,25.5z"/>
		<path class="st28" d="M52.7,21.5c-0.2,0.2-0.4,0.5-0.6,0.7c-0.7-0.3-1.3-0.5-2-0.8c0-0.3,0-0.7,0-1.1C51.1,20.3,52,20.6,52.7,21.5
			z"/>
		<path class="st28" d="M47.5,22.2c-0.2-0.2-0.4-0.5-0.6-0.7c0.6-0.8,1.5-1.1,2.6-1.2c0,0.4,0,0.8,0,1.1
			C48.8,21.6,48.2,21.9,47.5,22.2z"/>
		<path class="st28" d="M44,30.8c-0.5-0.8-1-1.7-1.5-2.6c1.3,0,1.6,1.2,2.5,1.6C44.6,30.2,44.4,30.5,44,30.8z"/>
		<path class="st29" d="M46.3,24.7c0,0,0.2,0.1,0.2,0.1c0,0.2,0,0.5-0.1,0.6c-0.3,0.2-0.3,0.4-0.3,0.7c0.1,0,0.1,0,0.2,0.1
			c0.1-0.1,0.1-0.2,0.1-0.3c0.3,0.5,0.5,1.1,0.8,1.7c-0.2,0.2-0.5,0.5-0.8,0.9c-0.1-0.6-0.2-1.1-0.4-1.6c0-0.2-0.1-0.4-0.2-0.5
			c-0.2-0.3-0.2-0.6,0.1-0.8C46.1,25.3,46.1,25,46.3,24.7z"/>
		<path class="st29" d="M46.4,21.8c1,0.9,1,0.8,0.1,1.5c-0.4,0.3-0.9,0.6-0.8,1.3c0,0.1-0.1,0.1-0.2,0.2c-0.1-0.1-0.2-0.2-0.2-0.3
			C45.4,23.6,45.8,22.6,46.4,21.8z"/>
		<path class="st29" d="M42,25.3c0.5,0,0.8,0,1.2,0c0.1,0.4,0.1,0.9,0.1,1.2c-0.4,0.3-0.7,0.6-1,0.8C42.2,26.8,42.1,26.1,42,25.3z"
			/>
		<path class="st28" d="M48.6,29.8c-0.6-0.4-1.2-0.7-1.9-1.1c0.3-0.4,0.5-0.6,0.8-0.8c0.4,0.3,0.9,0.5,1.2,0.7
			C48.7,29,48.6,29.3,48.6,29.8z"/>
		<path class="st28" d="M49.7,27.1c-0.1,0.3-0.2,0.7-0.3,1.1c-0.5-0.2-1-0.4-1.5-0.7c0.3-0.3,0.5-0.6,0.7-0.8
			C48.9,26.8,49.2,26.9,49.7,27.1z"/>
		<path class="st29" d="M50.6,23.4c0.1-0.2,0.2-0.4,0.3-0.7C50,23,50,23,50.1,21.9c0.5,0.2,1,0.3,1.4,0.5
			C51.4,23.3,51.1,23.6,50.6,23.4z"/>
		<path class="st29" d="M53.6,22.9c0.2,0.2,0.4,0.4,0.6,0.7c0,0-0.1,0.1-0.1,0.1c-0.6-0.3-1.1-0.6-1.8-1c0.2-0.3,0.5-0.6,0.8-1
			c0.2,0.5,0.4,0.8,0.6,1.2C53.7,22.9,53.7,22.9,53.6,22.9z"/>
		<path class="st29" d="M47.9,22.8c0.3-0.6,0.9-0.7,1.5-0.8c0,0.3,0,0.6,0,0.8C49,23,48.4,23.7,47.9,22.8z"/>
		<path class="st29" d="M53,28c0-0.4-0.1-0.7,0-1.1c0.1-0.5,0.6-0.4,1.2-0.4c-0.3,0.5-0.5,0.9-0.7,1.4C53.4,28,53.2,28,53,28L53,28z
			"/>
		<path class="st29" d="M43.7,25.4c0.1-0.1,0.2-0.1,0.2-0.1c0.3,0,0.6,0,0.9,0.1c-0.2,0.2-0.4,0.5-0.5,0.7c-0.1,0.2-0.2,0.5-0.4,0.9
			C43.8,26.4,43.8,25.9,43.7,25.4z"/>
		<path class="st29" d="M49.8,28.2c0.2-0.2,0.4-0.4,0.7-0.3c0.3,0.1,0.6,0,0.9-0.1c-0.3,0.5-0.6,0.6-1.1,0.4
			C50.1,28.3,50,28.3,49.8,28.2C49.8,28.2,49.8,28.2,49.8,28.2z"/>
		<path class="st29" d="M50.7,31.6c-0.2,0-0.4,0-0.7,0.1c0.1-0.4-0.3-0.9,0.4-1.1C50.5,30.9,50.6,31.2,50.7,31.6z"/>
		<path class="st29" d="M53.2,29c0.2,0.3,0.5,0.6,0.7,0.9c-0.2,0.2-0.4,0.3-0.7,0.5c0.1-0.3,0.1-0.4,0.1-0.4
			c0.2-0.2,0.2-0.4-0.1-0.6c-0.1-0.1-0.1-0.3-0.2-0.4C53.1,29,53.1,29,53.2,29z"/>
		<path class="st29" d="M47.2,26c0.2,0.2,0.5,0.4,0.7,0.6c-0.1,0.1-0.2,0.3-0.4,0.5c-0.2-0.4-0.3-0.7-0.5-1C47.1,26,47.1,26,47.2,26
			z"/>
		<path class="st9" d="M50.5,18c0,0,0,0.1,0,0.1c-0.1-0.1-0.2-0.1-0.4-0.2c0,0,0,0,0,0C50.3,17.9,50.4,17.9,50.5,18z"/>
		<path class="st9" d="M50,17.6c0.1,0,0.1,0,0.2,0c0,0.1,0,0.1,0,0.2c0,0,0,0,0,0C50.1,17.8,50.1,17.7,50,17.6z"/>
		<path class="st29" d="M49.8,28.2c-0.1,0-0.1,0-0.2,0.1C49.7,28.3,49.8,28.2,49.8,28.2C49.8,28.2,49.8,28.2,49.8,28.2z"/>
		<path class="st29" d="M48.9,25.5C48.9,25.5,48.9,25.6,48.9,25.5C48.9,25.6,48.9,25.6,48.9,25.5C48.9,25.6,48.9,25.5,48.9,25.5
			C48.9,25.5,48.9,25.5,48.9,25.5z"/>
		<path class="st29" d="M53,28C53,28,53,28,53,28C53,28.1,53,28.1,53,28C53,28,53,28,53,28C53,28,53,28,53,28z"/>
		<path class="st0" d="M20.7,53.4c0-1.3,0-2.5,0-3.7c0.9,0,1.7,0,2.5,0c0.9,0.1,1.5,1.1,1.5,1.8c0,0.9-0.5,1.5-1.4,1.6
			C22.5,53.4,21.7,53.3,20.7,53.4z"/>
		<path class="st0" d="M20.8,44c0.8,0,1.5-0.1,2.3,0c0.8,0.1,1.4,0.6,1.4,1.4c0.1,0.8-0.4,1.6-1.2,1.8c-0.2,0-0.3,0.1-0.5,0.1
			c-0.7,0-1.3,0-2,0C20.8,46.2,20.8,45.1,20.8,44z"/>
		<path class="st0" d="M14.1,48.9c0,1-0.2,2-0.8,3c-0.1,0.2-0.3,0.4-0.4,0.5c-0.8,0.8-1.8,1.4-3,1.1c-1.1-0.2-2.1-0.7-2.6-1.8
			c-1-2.2-1-4.3,0.1-6.4c0.6-1.1,1.7-1.5,2.9-1.5c1.2,0,2.3,0.4,2.9,1.6C13.9,46.8,14.1,47.4,14.1,48.9z"/>
		<path class="st29" d="M69.5,74.6c-0.9,0-1.6,0-2.5,0c0.4-1.3,0.8-2.6,1.2-4C68.7,72,69.1,73.3,69.5,74.6z"/>
		<path class="st0" d="M6.4,64c0-1.3,0-2.6,0-3.9C7.2,60,8,59.9,8.6,60.6c0.5,0.6,0.5,2,0,2.7C8.3,63.9,7.7,64.1,6.4,64z"/>
		<path class="st0" d="M19.2,64c0-1.2,0-2.4,0-3.6c0-0.1,0-0.2,0-0.4c0.8,0,1.6-0.2,2.2,0.6c0.6,0.9,0.5,1.8,0,2.7
			C20.9,64.2,20.1,64,19.2,64z"/>
		<path class="st0" d="M53.8,62c-0.1,0.4-0.2,0.9-0.4,1.3c-0.2,0.5-0.7,0.8-1.3,0.8c-0.6,0-1-0.3-1.3-0.8c-0.3-0.6-0.4-1.3-0.2-2
			c0.2-0.9,0.8-1.4,1.6-1.3c0.8,0,1.3,0.6,1.5,1.5C53.7,61.6,53.7,61.8,53.8,62C53.7,62,53.7,62,53.8,62z"/>
		<path class="st0" d="M90.3,62c0.1-1.3,0.7-2.1,1.8-2c0.7,0,1.1,0.5,1.3,1.1c0.3,0.8,0.2,1.6-0.2,2.3c-0.3,0.5-0.7,0.7-1.3,0.7
			c-0.6,0-1-0.3-1.3-0.8C90.5,62.9,90.4,62.4,90.3,62z"/>
		<path class="st0" d="M57.2,32.6c0,0-0.1,0-0.1,0C57.1,32.6,57.2,32.6,57.2,32.6C57.2,32.5,57.2,32.6,57.2,32.6z"/>
		<path class="st0" d="M57.4,32.5c0,0-0.1,0.1-0.1,0.1c0,0,0,0-0.1-0.1c0,0,0.1-0.1,0.1-0.1C57.3,32.4,57.3,32.5,57.4,32.5z"/>
		<path class="st0" d="M42.4,32.5c0,0.1,0,0.1,0,0.2c-0.1,0-0.1-0.1-0.2-0.1C42.3,32.6,42.4,32.5,42.4,32.5z"/>
		<path class="st1" d="M50.2,17.8c0-0.1,0-0.1,0-0.2c0.4-0.1,0.7-0.2,1.1-0.3c0.1,0,0.2,0.1,0.3,0.2c-0.1,0.1-0.2,0.2-0.3,0.3
			c-0.2,0.1-0.5,0.1-0.7,0.1C50.4,17.9,50.3,17.9,50.2,17.8z"/>
	</g>
</g>
</svg>
