<svg id="svg22" xmlns="http://www.w3.org/2000/svg" viewBox="0 0 300 255.2"><title>logo</title><path d="M134.28,144.36v0l0-.7A.81.81,0,0,0,134.28,144.36Z" style="fill:#fa0"/><path d="M156.24,108.72l24-36.06c-.11.06-37.67,33.37-37.7,33.4-.36.35-.53.64-.37,1.1a.74.74,0,0,0,.6.44v0l10.46.87-19,35.19,31.62-34.52.77,0-3.88-.17Z" style="fill:#fa0"/><path d="M162.87,109.67l18.39-35.73c.2-.41.27-.6.12-.91a.82.82,0,0,0-1.09-.37l-24.66,36.78Z" style="fill:#ff433f"/><path d="M134.26,143.68l0,.7a.81.81,0,0,0,1.08.35c.18-.09,38-34.07,38-34.07a.79.79,0,0,0,0-.8c-.18-.38-.36-.48-1.07-.49l-5.68-.26-.77,0Z" style="fill:#ff433f"/><path d="M178.56,75.49a.54.54,0,0,0-.36.14c-7.49,6.61-29,25.74-34.18,30.29a.56.56,0,0,0,.32,1l10.3.85-.09.17L136.66,141a.57.57,0,0,0,.14.71.59.59,0,0,0,.72,0c6.08-5.45,22.14-19.86,34-30.55a.59.59,0,0,0,.16-.61.55.55,0,0,0-.5-.37l-9.82-.44,17.66-33.42a.57.57,0,0,0-.15-.7A.55.55,0,0,0,178.56,75.49Z" style="fill:none"/><path d="M183.69,71.87A3.42,3.42,0,0,0,180.64,70,3.36,3.36,0,0,0,180,70a3.56,3.56,0,0,0-.87.29c-.33.17-.33.17-2.21,1.83-1,.91-2.51,2.22-4.28,3.79l-13,11.47L140.78,104.2a3.45,3.45,0,0,0-1,3.84,4.18,4.18,0,0,0,2.32,2.1l6.16.54a.56.56,0,0,1,.44.83l-16.87,31.24a3.47,3.47,0,0,0,.12,2.77l.11.19a3.44,3.44,0,0,0,3,1.71,3.28,3.28,0,0,0,1.49-.36c.34-.17.34-.17,2.25-1.87l4.33-3.88,13.05-11.7,18.93-17,.27-.24.21-.33a3.45,3.45,0,0,0,.16-3.34,3.38,3.38,0,0,0-3.3-1.93l-4.57-.21a.56.56,0,0,1-.46-.28.57.57,0,0,1,0-.54L183.62,75h0A3.39,3.39,0,0,0,183.69,71.87Zm-12,38.67a.59.59,0,0,1-.16.61c-11.9,10.69-28,25.1-34,30.55a.59.59,0,0,1-.72,0,.57.57,0,0,1-.14-.71l17.89-33.09.09-.17-10.3-.85a.56.56,0,0,1-.32-1c5.13-4.55,26.69-23.68,34.18-30.29a.54.54,0,0,1,.36-.14.55.55,0,0,1,.35.12.57.57,0,0,1,.15.7L161.4,109.73l9.82.44A.55.55,0,0,1,171.72,110.54Z" style="fill:blue"/><path d="M129.43,165a3.54,3.54,0,0,0-1.25-2.85,4.19,4.19,0,0,0-2.85-1.05,4.5,4.5,0,0,0-2.5.75,4.21,4.21,0,0,0-1.6,2.15l-7.15,20.15-6.8-20.1a4.17,4.17,0,0,0-4-3,4.5,4.5,0,0,0-2.5.75,4.21,4.21,0,0,0-1.6,2.15l-7.25,19.7L85,164a3.78,3.78,0,0,0-1.7-2.15,4.51,4.51,0,0,0-2.43-.74v0H62.69a7.06,7.06,0,0,0-.48-.73,6.86,6.86,0,1,0,.6,7.66H77.1l9.73,26.2a4.17,4.17,0,0,0,1.8,2.2,5.7,5.7,0,0,0,2.9.75,5.62,5.62,0,0,0,2.85-.75,4.46,4.46,0,0,0,1.85-2.2l6.8-18.55,6.5,18.55a4.17,4.17,0,0,0,1.8,2.2,6,6,0,0,0,5.8,0,4.14,4.14,0,0,0,1.85-2.2L129,167A6.5,6.5,0,0,0,129.43,165Zm-69.24-.34A3.47,3.47,0,0,1,56.73,168h0a3.46,3.46,0,0,1-3.46-3.47h0a3.46,3.46,0,0,1,6.92-.12Z" style="fill:blue"/><path d="M56.73,164.61l0,0v0Z" style="fill:blue"/><path d="M186.28,164a4.5,4.5,0,0,0-1.95-2.07,5.52,5.52,0,0,0-2.8-.75,5.62,5.62,0,0,0-2.85.75,4.6,4.6,0,0,0-1.9,2.07l-13.2,27.34a4.47,4.47,0,0,0-.44,1.75,4.33,4.33,0,0,0-.43-1.76L149.51,164a4.55,4.55,0,0,0-1.95-2.07,5.7,5.7,0,0,0-5.65,0A4.5,4.5,0,0,0,140,164l-13.2,27.33a4.37,4.37,0,0,0-.45,1.86,3.6,3.6,0,0,0,1.35,2.83,4.74,4.74,0,0,0,3.1,1.16,3.81,3.81,0,0,0,2.1-.61,4,4,0,0,0,1.55-1.81l2.3-5.09H153l2.25,5.09a4,4,0,0,0,1.5,1.81,3.76,3.76,0,0,0,2.1.61,4.4,4.4,0,0,0,3-1.16,3.57,3.57,0,0,0,1.33-2.69,3.58,3.58,0,0,0,1.34,2.7,4.71,4.71,0,0,0,3.1,1.16,3.84,3.84,0,0,0,2.1-.6,4,4,0,0,0,1.55-1.82l2.3-5.09h16.2l2.25,5.09a4.15,4.15,0,0,0,1.5,1.82,3.84,3.84,0,0,0,2.1.6,4.35,4.35,0,0,0,3-1.16,3.58,3.58,0,0,0,1.35-2.82,4.38,4.38,0,0,0-.45-1.87Zm-46.42,18.71,5-11.25,5,11.25Zm36.77,0,5-11.25,5,11.25Z" style="fill:blue"/><path d="M248.92,160.78a6.75,6.75,0,0,0-11.13-.34,7.06,7.06,0,0,0-.48.73H219.78c-.36,0-.71,0-1.08,0a18.13,18.13,0,0,0-7.5,1.49,12.45,12.45,0,0,0-5.2,4,9.51,9.51,0,0,0-1.9,5.77,9.66,9.66,0,0,0,1.1,4.77,9.37,9.37,0,0,0,4,3.38,31.83,31.83,0,0,0,7.75,2.48,19.24,19.24,0,0,1,5.4,1.64,2.3,2.3,0,0,1,1.45,1.94,2.83,2.83,0,0,1-1.55,2.58,9.21,9.21,0,0,1-4.45.85,19.58,19.58,0,0,1-4.6-.5,16.33,16.33,0,0,1-4.05-1.64,8.62,8.62,0,0,0-1.5-.75,4,4,0,0,0-1.25-.19,2.65,2.65,0,0,0-2.1,1.09,3.94,3.94,0,0,0-.9,2.58,3.88,3.88,0,0,0,.35,1.79,4.43,4.43,0,0,0,1.25,1.34,17.38,17.38,0,0,0,5.6,2.44,31.42,31.42,0,0,0,7.45.84,20.26,20.26,0,0,0,7.7-1.34,12.18,12.18,0,0,0,5.2-3.87,9.64,9.64,0,0,0,1.85-5.82,8.86,8.86,0,0,0-1.15-4.57,9.52,9.52,0,0,0-3.9-3.38,29.26,29.26,0,0,0-7.55-2.53,32.21,32.21,0,0,1-4.45-1.15,5.57,5.57,0,0,1-2-1.19,2.17,2.17,0,0,1-.55-1.54,2.84,2.84,0,0,1,1.55-2.53,7.52,7.52,0,0,1,4.1-1l13.25,0h5.19a6.92,6.92,0,1,0,11.73-7.32Zm-2.19,3.85a3.46,3.46,0,0,1-3.46,3.47h0a3.47,3.47,0,0,1-3.46-3.34v-.26a3.46,3.46,0,0,1,6.92.13Z" style="fill:blue"/><path d="M243.23,164.66v0l0,0,0,0Z" style="fill:blue"/><path d="M174.86,98.28A6.89,6.89,0,1,0,186,98L193,80.19A4.89,4.89,0,0,1,195,77.63a6.38,6.38,0,0,1,3.4-.94A6.1,6.1,0,0,1,202.35,78a3.46,3.46,0,0,1,1.34,3,8.49,8.49,0,0,1-.63,2.74l-21.61,53.4a4.67,4.67,0,0,1-2.33,2.5,9.44,9.44,0,0,1-4.55,1.09,9.15,9.15,0,0,1-4.47-1.07,4.82,4.82,0,0,1-2.3-2.51l-4-10.1-5.68,5.1,3,7.34a11.54,11.54,0,0,0,5.43,6,16.6,16.6,0,0,0,8,2,16.83,16.83,0,0,0,8-2,11.47,11.47,0,0,0,5.5-6L209.74,86a14.92,14.92,0,0,0,1.06-5,10,10,0,0,0-3.93-8.2,13.35,13.35,0,0,0-8.44-2.83,13.67,13.67,0,0,0-7,1.84l-1,.61v0a11.78,11.78,0,0,0-4.19,5.42l-6.77,17.43A6.78,6.78,0,0,0,174.86,98.28Zm9.12,3.86a3.46,3.46,0,0,1-3.47,3.46h0a3.46,3.46,0,0,1-3.46-3.46h0a3.47,3.47,0,0,1,6.93,0Z" style="fill:blue"/><path d="M112.35,139.48a11.54,11.54,0,0,0,5.43,6,16.6,16.6,0,0,0,8,2,17,17,0,0,0,2.68-.22l-.08-.15a7,7,0,0,1-.19-5.78l.23-.47.33-.63a9.57,9.57,0,0,1-7.44-.59,4.7,4.7,0,0,1-2.31-2.53L97.3,83.72a7.08,7.08,0,0,1-.54-2.55,3.41,3.41,0,0,1,1.49-3.08,7.13,7.13,0,0,1,4.42-1.4,7.36,7.36,0,0,1,3.72,1,4.54,4.54,0,0,1,2.08,2.52l18,47.19,19-47.16a5,5,0,0,1,2.08-2.56,6.41,6.41,0,0,1,3.41-.94,7.21,7.21,0,0,1,1.06.09A6.93,6.93,0,0,0,165.81,76a6.89,6.89,0,0,0-1.45-4.16,6.77,6.77,0,0,0-5.7-2.75,6.62,6.62,0,0,0-3.91,1.44,14,14,0,0,0-11.06,1.46,11.7,11.7,0,0,0-4.89,5.86L126.62,108,115.15,77.86a11.38,11.38,0,0,0-5.13-6,14.79,14.79,0,0,0-7.35-1.89,14.47,14.47,0,0,0-8.79,2.82,10,10,0,0,0-4.22,8.41,13.75,13.75,0,0,0,1,4.91ZM155.42,76a3.45,3.45,0,0,1,.57-1.9l.06-.09a3.46,3.46,0,1,1,2.83,5.45h0A3.46,3.46,0,0,1,155.42,76Z" style="fill:blue"/><path d="M158.92,76l0,0,0,0h0Z" style="fill:blue"/><path d="M180.55,102.17l0,0,0,0h0Z" style="fill:blue"/></svg>