<svg id="svg22" xmlns="http://www.w3.org/2000/svg" viewBox="0 0 363.11 162.03"><title>logo</title><path d="M161,68.65a3.54,3.54,0,0,0-1.25-2.85,4.19,4.19,0,0,0-2.85-1,4.5,4.5,0,0,0-2.5.75,4.25,4.25,0,0,0-1.6,2.15L145.63,87.8l-6.8-20.1a4.17,4.17,0,0,0-4.05-3,4.5,4.5,0,0,0-2.5.75,4.31,4.31,0,0,0-1.6,2.15l-7.25,19.7-6.85-19.7a3.85,3.85,0,0,0-1.7-2.15,4.59,4.59,0,0,0-2.42-.74v0H94.25a8.48,8.48,0,0,0-.48-.74,6.87,6.87,0,1,0,.59,7.66h14.29l9.73,26.2a4.19,4.19,0,0,0,1.8,2.2,5.72,5.72,0,0,0,2.9.75,5.57,5.57,0,0,0,2.85-.75,4.33,4.33,0,0,0,1.85-2.2l6.8-18.55,6.5,18.55a4.19,4.19,0,0,0,1.8,2.2,6,6,0,0,0,5.8,0,4.06,4.06,0,0,0,1.85-2.2l10.05-27.2A6.44,6.44,0,0,0,161,68.65Zm-69.24-.33a3.45,3.45,0,0,1-3.45,3.33h0a3.46,3.46,0,0,1-3.47-3.46h0a3.46,3.46,0,0,1,6.92-.13Z" style="fill:blue"/><path d="M217.83,67.58a4.45,4.45,0,0,0-2-2.07,5.5,5.5,0,0,0-2.8-.76,5.63,5.63,0,0,0-2.85.76,4.61,4.61,0,0,0-1.9,2.07l-13.2,27.34a4.37,4.37,0,0,0-.43,1.74,4.56,4.56,0,0,0-.44-1.76l-13.2-27.32a4.45,4.45,0,0,0-1.95-2.07,5.53,5.53,0,0,0-2.8-.76,5.63,5.63,0,0,0-2.85.76,4.55,4.55,0,0,0-1.9,2.07L158.36,94.9a4.38,4.38,0,0,0-.45,1.87,3.58,3.58,0,0,0,1.35,2.82,4.71,4.71,0,0,0,3.1,1.16,3.84,3.84,0,0,0,2.1-.6A4,4,0,0,0,166,98.33l2.3-5.09h16.2l2.25,5.09a4.15,4.15,0,0,0,1.5,1.82,3.84,3.84,0,0,0,2.1.6,4.35,4.35,0,0,0,3-1.16,3.59,3.59,0,0,0,1.34-2.68,3.61,3.61,0,0,0,1.33,2.7,4.78,4.78,0,0,0,3.1,1.16,3.76,3.76,0,0,0,2.1-.61,3.91,3.91,0,0,0,1.55-1.81l2.3-5.1h16.2l2.25,5.1a4.12,4.12,0,0,0,1.5,1.81,3.81,3.81,0,0,0,2.1.61,4.36,4.36,0,0,0,3-1.16,3.61,3.61,0,0,0,1.35-2.83,4.37,4.37,0,0,0-.45-1.86Zm-46.42,18.7,5-11.24,5,11.24Zm36.77,0,5-11.25,5,11.25Z" style="fill:blue"/><path d="M280.48,64.39a6.76,6.76,0,0,0-11.14-.34,7.06,7.06,0,0,0-.48.73H251.34c-.36,0-.72,0-1.09,0a18.29,18.29,0,0,0-7.5,1.49,12.47,12.47,0,0,0-5.2,4,9.46,9.46,0,0,0-1.9,5.76,9.61,9.61,0,0,0,1.1,4.77,9.37,9.37,0,0,0,3.95,3.38,31.78,31.78,0,0,0,7.75,2.49,18.91,18.91,0,0,1,5.4,1.64,2.29,2.29,0,0,1,1.45,1.93,2.84,2.84,0,0,1-1.55,2.59,9.35,9.35,0,0,1-4.45.84,19.07,19.07,0,0,1-4.6-.5,16.29,16.29,0,0,1-4-1.63,7.39,7.39,0,0,0-1.5-.75,4,4,0,0,0-1.25-.2,2.68,2.68,0,0,0-2.1,1.09,4.38,4.38,0,0,0-.55,4.38,4.55,4.55,0,0,0,1.25,1.34,17.16,17.16,0,0,0,5.6,2.43,30.9,30.9,0,0,0,7.45.85,20.45,20.45,0,0,0,7.7-1.34,12.12,12.12,0,0,0,5.2-3.88,9.63,9.63,0,0,0,1.85-5.81,8.84,8.84,0,0,0-1.15-4.57,9.45,9.45,0,0,0-3.9-3.38,29.23,29.23,0,0,0-7.55-2.54A32.48,32.48,0,0,1,247.25,78a5.87,5.87,0,0,1-2.05-1.19,2.17,2.17,0,0,1-.55-1.54,2.86,2.86,0,0,1,1.55-2.54,7.52,7.52,0,0,1,4.1-1l13.26-.05h5.19a6.92,6.92,0,1,0,11.73-7.32Zm-2.2,3.86a3.46,3.46,0,0,1-3.46,3.46h0a3.45,3.45,0,0,1-3.45-3.34v-.25a3.46,3.46,0,0,1,6.91.13Z" style="fill:blue"/></svg>