<svg xmlns="http://www.w3.org/2000/svg" xmlns:xlink="http://www.w3.org/1999/xlink" width="320" height="2241" viewBox="0 0 320 2241">
  <defs>
    <style>
      .cls-1 {
        fill: none;
      }

      .cls-2 {
        clip-path: url(#clip-Artigo_Mobile_320x568_);
      }

      .cls-3 {
        fill: #d9d9d9;
      }

      .cls-4 {
        fill: rgba(144,144,144,0.33);
        stroke: rgba(0,0,0,0.5);
        stroke-linecap: round;
        stroke-miterlimit: 10;
        stroke-width: 2px;
      }

      .cls-12, .cls-13, .cls-16, .cls-18, .cls-19, .cls-23, .cls-25, .cls-26, .cls-5, .cls-6 {
        fill: #707070;
      }

      .cls-10, .cls-12, .cls-5 {
        font-size: 30px;
      }

      .cls-10, .cls-5 {
        font-family: Nunito-Black, Nunito;
      }

      .cls-10, .cls-12, .cls-5, .cls-7, .cls-9 {
        font-weight: 800;
      }

      .cls-15, .cls-27, .cls-7, .cls-9 {
        fill: #fff;
      }

      .cls-23, .cls-7, .cls-9 {
        font-size: 22px;
      }

      .cls-12, .cls-7, .cls-9 {
        font-family: Nunito-ExtraBold, Nunito;
      }

      .cls-7 {
        opacity: 0.545;
      }

      .cls-8 {
        fill: #9f9f9f;
      }

      .cls-9 {
        opacity: 0.486;
      }

      .cls-10 {
        fill: #c3c3c3;
      }

      .cls-11 {
        fill: #d1d1d1;
      }

      .cls-13 {
        font-size: 10px;
      }

      .cls-13, .cls-16, .cls-19 {
        font-family: Nunito-Regular, Nunito;
      }

      .cls-14 {
        clip-path: url(#clip-path);
      }

      .cls-15 {
        opacity: 0.633;
      }

      .cls-16 {
        font-size: 11px;
      }

      .cls-17 {
        fill: #f0f0f0;
      }

      .cls-18 {
        font-size: 18px;
      }

      .cls-18, .cls-23, .cls-26 {
        font-family: Nunito-Bold, Nunito;
        font-weight: 700;
      }

      .cls-19, .cls-26 {
        font-size: 16px;
      }

      .cls-20 {
        fill: #f8f7f7;
      }

      .cls-21 {
        fill: #d8d8d8;
      }

      .cls-22 {
        fill: #95989a;
      }

      .cls-24 {
        fill: #efe7e7;
      }

      .cls-25 {
        font-size: 14px;
        font-family: Nunito-SemiBold, Nunito;
        font-weight: 600;
      }
    </style>
    <clipPath id="clip-path">
      <rect class="cls-1" width="50" height="15"/>
    </clipPath>
    <clipPath id="clip-Artigo_Mobile_320x568_">
      <rect width="320" height="2241"/>
    </clipPath>
  </defs>
  <g id="Artigo_Mobile_320x568_" data-name="Artigo Mobile  320x568 " class="cls-2">
    <rect class="cls-27" width="320" height="2241"/>
    <g id="Header">
      <rect id="Rectangle_1" data-name="Rectangle 1" class="cls-3" width="320" height="60"/>
      <g id="Menu" transform="translate(-57 -705)">
        <path id="Path_15" data-name="Path 15" class="cls-4" d="M4,8H28M4,16H28M4,24H28" transform="translate(69.5 719.5)"/>
      </g>
      <path id="ic_search_24px" d="M20.845,18.7H19.717l-.4-.385a9.293,9.293,0,1,0-1,1l.385.4v1.128l7.138,7.124,2.127-2.127Zm-8.566,0A6.424,6.424,0,1,1,18.7,12.279,6.416,6.416,0,0,1,12.279,18.7Z" transform="translate(274.521 14.521)"/>
      <text id="WAAS" class="cls-5" transform="translate(155.5 40)"><tspan x="-48.36" y="0">WAAS</tspan></text>
    </g>
    <g id="Group_89" data-name="Group 89" transform="translate(0 -1000)">
      <g id="Group_20" data-name="Group 20">
        <rect id="Rectangle_12" data-name="Rectangle 12" class="cls-6" width="320" height="362" transform="translate(0 2881)"/>
        <text id="Rodapé" class="cls-7" transform="translate(138.5 2905)"><tspan x="0" y="22">Rodapé</tspan></text>
        <g id="Group_18" data-name="Group 18">
          <rect id="Rectangle_13" data-name="Rectangle 13" class="cls-8" width="126" height="18" transform="translate(26 2957)"/>
          <rect id="Rectangle_14" data-name="Rectangle 14" class="cls-8" width="96" height="18" transform="translate(26 2991)"/>
          <rect id="Rectangle_15" data-name="Rectangle 15" class="cls-8" width="63" height="18" transform="translate(26 3025)"/>
        </g>
        <g id="Group_62" data-name="Group 62" transform="translate(0 30)">
          <rect id="Rectangle_16" data-name="Rectangle 16" class="cls-8" width="128.438" height="18" transform="translate(179.563 2957)"/>
          <rect id="Rectangle_17" data-name="Rectangle 17" class="cls-8" width="78" height="18" transform="translate(179.563 2991)"/>
          <rect id="Rectangle_18" data-name="Rectangle 18" class="cls-8" width="120.438" height="18" transform="translate(179.563 3025)"/>
        </g>
        <g id="Group_19" data-name="Group 19" transform="translate(0 144)">
          <rect id="Rectangle_13-2" data-name="Rectangle 13" class="cls-8" width="126" height="18" transform="translate(26 2957)"/>
          <rect id="Rectangle_14-2" data-name="Rectangle 14" class="cls-8" width="96" height="18" transform="translate(26 2991)"/>
          <rect id="Rectangle_15-2" data-name="Rectangle 15" class="cls-8" width="63" height="18" transform="translate(26 3025)"/>
        </g>
        <g id="Group_63" data-name="Group 63" transform="translate(0 33)">
          <rect id="Rectangle_19" data-name="Rectangle 19" class="cls-8" width="128.438" height="18" transform="translate(179.563 3067)"/>
          <rect id="Rectangle_20" data-name="Rectangle 20" class="cls-8" width="78" height="18" transform="translate(179.563 3101)"/>
          <rect id="Rectangle_21" data-name="Rectangle 21" class="cls-8" width="120.438" height="18" transform="translate(179.563 3135)"/>
        </g>
        <text id="Contato" class="cls-9" transform="translate(25.5 3065)"><tspan x="0" y="22">Contato</tspan></text>
        <text id="Sociais" class="cls-9" transform="translate(179.5 2946)"><tspan x="0" y="22">Sociais</tspan></text>
      </g>
      <text id="WAAS-2" data-name="WAAS" class="cls-10" transform="translate(76.5 2929)"><tspan x="-48.36" y="0">WAAS</tspan></text>
    </g>
    <g id="Group_132" data-name="Group 132" transform="translate(0 -33)">
      <rect id="Rectangle_2" data-name="Rectangle 2" class="cls-11" width="300" height="250.439" rx="5" transform="translate(10 108.259)"/>
      <text id="Tecnologia_Fortacelendo_Jovens" data-name="Tecnologia 
Fortacelendo
Jovens" class="cls-12" transform="translate(25 245.912)"><tspan x="0" y="30">Tecnologia </tspan><tspan x="0" y="62">Fortacelendo</tspan><tspan x="0" y="94">Jovens</tspan></text>
      <text id="_20_03_2019" data-name="20/03/2019" class="cls-13" transform="translate(299 346.703)"><tspan x="-53.66" y="0">20/03/2019</tspan></text>
      <g id="Group_91" data-name="Group 91" transform="translate(-3262 -2402)">
        <g id="Tag" class="cls-14" transform="translate(3287 2632.246)">
          <rect id="Rectangle_24" data-name="Rectangle 24" class="cls-15" width="50" height="15" rx="3"/>
          <text id="Ciências" class="cls-16" transform="translate(5 11)"><tspan x="0" y="0">Ciências</tspan></text>
        </g>
        <g id="Group_66" data-name="Group 66" transform="translate(3341 2632.246)">
          <rect id="Rectangle_24-2" data-name="Rectangle 24" class="cls-15" width="57.241" height="15" rx="3"/>
          <text id="Educação" class="cls-16" transform="translate(5 11)"><tspan x="0" y="0">Educação</tspan></text>
        </g>
      </g>
    </g>
    <g id="Group_133" data-name="Group 133" transform="translate(-9 -30)">
      <g id="Group_90" data-name="Group 90" transform="translate(20 369.698)">
        <circle id="Ellipse_6" data-name="Ellipse 6" class="cls-17" cx="21.5" cy="21.5" r="21.5"/>
        <text id="Name" class="cls-18" transform="translate(51 27.005)"><tspan x="0" y="0">Name</tspan></text>
      </g>
      <text id="Lorem_ipsum_dolor_sit_amet_consectetur_adipiscing_elit_sed_do_eiusmod_tempor_incididunt_ut_labore_et_dolore_magna_aliqua._Lacinia_quis_vel_eros_donec_ac_odio_tempor_orci_dapibus._Mauris_ultrices_eros_in_cursus_turpis_massa_tincidunt_dui._Diam_maecenas_se" data-name="Lorem ipsum dolor sit amet, consectetur adipiscing elit, sed do eiusmod tempor incididunt ut labore et dolore magna aliqua. Lacinia quis vel eros donec ac odio tempor orci dapibus. Mauris ultrices eros in cursus turpis massa tincidunt dui. Diam maecenas se" class="cls-19" transform="translate(25.5 425)"><tspan x="0" y="16">Lorem ipsum dolor sit amet, consectetur </tspan><tspan x="0" y="34">adipiscing elit, sed do eiusmod tempor </tspan><tspan x="0" y="52">incididunt ut labore et dolore magna </tspan><tspan x="0" y="70">aliqua. Lacinia quis vel eros donec ac </tspan><tspan x="0" y="88">odio tempor orci dapibus. Mauris ultrices </tspan><tspan x="0" y="106">eros in cursus turpis massa tincidunt dui. </tspan><tspan x="0" y="124">Diam maecenas sed enim ut sem viverra </tspan><tspan x="0" y="142">aliquet. Ultrices dui sapien eget mi. </tspan><tspan x="0" y="160">Semper eget duis at tellus at urna </tspan><tspan x="0" y="178">condimentum. Mauris commodo quis </tspan><tspan x="0" y="196">imperdiet massa tincidunt nunc pulvinar. </tspan><tspan x="0" y="214">Mi bibendum neque egestas congue </tspan><tspan x="0" y="232">quisque egestas diam. Tellus in metus </tspan><tspan x="0" y="250">vulputate eu scelerisque felis imperdiet. </tspan><tspan x="0" y="268">Egestas purus viverra accumsan in nisl </tspan><tspan x="0" y="286">nisi. Bibendum neque egestas congue </tspan><tspan x="0" y="304">quisque egestas diam in arcu cursus. </tspan><tspan x="0" y="322">Dolor sed viverra ipsum nunc aliquet. </tspan><tspan x="0" y="340">Lectus proin nibh nisl condimentum. </tspan><tspan x="0" y="358">Nunc lobortis mattis aliquam faucibus </tspan><tspan x="0" y="376">purus in massa tempor nec.</tspan><tspan x="0" y="394"></tspan><tspan x="0" y="412">Scelerisque eu ultrices vitae auctor eu </tspan></text>
    </g>
    <g id="Group_134" data-name="Group 134" transform="translate(0 -14)">
      <rect id="Rectangle_25" data-name="Rectangle 25" class="cls-11" width="297" height="159" rx="5" transform="translate(11 837)"/>
      <text id="Scelerisque_eu_ultrices_vitae_auctor_eu_augue._Pharetra_diam_sit_amet_nisl._Id_velit_ut_tortor_pretium_viverra_suspendisse._Dolor_sit_amet_consectetur_adipiscing._Sagittis_eu_volutpat_odio_facilisis_mauris_sit_amet._Nulla_facilisi_etiam_dignissim_diam_quis" data-name="Scelerisque eu ultrices vitae auctor eu augue. Pharetra diam sit amet nisl. Id velit ut tortor pretium viverra suspendisse. Dolor sit amet consectetur adipiscing. Sagittis eu volutpat odio facilisis mauris sit amet. Nulla facilisi etiam dignissim diam quis" class="cls-19" transform="translate(10.5 1005)"><tspan x="0" y="16">Scelerisque eu ultrices vitae auctor eu </tspan><tspan x="0" y="34">augue. Pharetra diam sit amet nisl. Id velit </tspan><tspan x="0" y="52">ut tortor pretium viverra suspendisse. </tspan><tspan x="0" y="70">Dolor sit amet consectetur adipiscing. </tspan><tspan x="0" y="88">Sagittis eu volutpat odio facilisis mauris </tspan><tspan x="0" y="106">sit amet. Nulla facilisi etiam dignissim </tspan><tspan x="0" y="124">diam quis enim lobortis scelerisque </tspan><tspan x="0" y="142">fermentum. Ut sem nulla pharetra diam </tspan><tspan x="0" y="160">sit amet. Tortor at auctor urna nunc. </tspan><tspan x="0" y="178">Rhoncus dolor purus non enim praesent </tspan><tspan x="0" y="196">elementum. Non curabitur gravida arcu </tspan><tspan x="0" y="214">ac. Morbi tristique senectus et netus et.</tspan><tspan x="0" y="232"></tspan><tspan x="0" y="250">A erat nam at lectus urna duis convallis </tspan><tspan x="0" y="268">convallis tellus. Magnis dis parturient </tspan><tspan x="0" y="286">montes nascetur ridiculus mus. Ipsum a </tspan><tspan x="0" y="304">arcu cursus vitae congue mauris. Vivamus </tspan><tspan x="0" y="322">at augue eget arcu dictum varius duis at </tspan><tspan x="0" y="340">consectetur. Sagittis aliquam malesuada </tspan><tspan x="0" y="358">bibendum arcu vitae elementum curabitur </tspan><tspan x="0" y="376">vitae. Sagittis vitae et leo duis ut diam </tspan><tspan x="0" y="394">quam nulla porttitor. Gravida cum sociis </tspan><tspan x="0" y="412">natoque penatibus et magnis dis </tspan><tspan x="0" y="430">parturient. Nulla aliquet enim tortor at </tspan><tspan x="0" y="448">auctor urna nunc. </tspan></text>
    </g>
    <g id="Group_96" data-name="Group 96" transform="translate(0 -87)">
      <rect id="Rectangle_26" data-name="Rectangle 26" class="cls-20" width="151" height="38" rx="16" transform="translate(11 1553)"/>
      <g id="Group_95" data-name="Group 95" transform="translate(2)">
        <circle id="Ellipse_9" data-name="Ellipse 9" class="cls-21" cx="12" cy="12" r="12" transform="translate(58 1561)"/>
        <circle id="Ellipse_10" data-name="Ellipse 10" class="cls-21" cx="12" cy="12" r="12" transform="translate(89 1561)"/>
        <circle id="Ellipse_11" data-name="Ellipse 11" class="cls-21" cx="12" cy="12" r="12" transform="translate(120 1561)"/>
        <path id="ic_share_24px" class="cls-22" d="M18,16.08a2.912,2.912,0,0,0-1.96.77L8.91,12.7A3.274,3.274,0,0,0,9,12a3.274,3.274,0,0,0-.09-.7l7.05-4.11A2.993,2.993,0,1,0,15,5a3.274,3.274,0,0,0,.09.7L8.04,9.81a3,3,0,1,0,0,4.38l7.12,4.16a2.821,2.821,0,0,0-.08.65A2.92,2.92,0,1,0,18,16.08Z" transform="translate(21 1561)"/>
      </g>
    </g>
    <g id="Group_135" data-name="Group 135" transform="translate(0 -30)">
      <g id="Group_92" data-name="Group 92" transform="translate(10 1667.359)">
        <text id="Artigo_recomendado" data-name="Artigo recomendado" class="cls-23" transform="translate(1 142)"><tspan x="0" y="22">Artigo </tspan><tspan x="0" y="46">recomendado</tspan></text>
        <rect id="Rectangle_9" data-name="Rectangle 9" class="cls-24" width="142" height="134" rx="5" transform="translate(0.5)"/>
        <text id="by" class="cls-25" transform="translate(1 198)"><tspan x="0" y="14">by</tspan></text>
        <text id="Author_Name" data-name="Author Name" class="cls-26" transform="translate(23 197)"><tspan x="0" y="16">Author Name</tspan></text>
      </g>
      <g id="Group_93" data-name="Group 93" transform="translate(166.5 1667.359)">
        <text id="Artigo_recomendado-2" data-name="Artigo recomendado" class="cls-23" transform="translate(1 142)"><tspan x="0" y="22">Artigo </tspan><tspan x="0" y="46">recomendado</tspan></text>
        <rect id="Rectangle_9-2" data-name="Rectangle 9" class="cls-24" width="142" height="134" rx="5" transform="translate(0.5)"/>
        <text id="by-2" data-name="by" class="cls-25" transform="translate(1 198)"><tspan x="0" y="14">by</tspan></text>
        <text id="Author_Name-2" data-name="Author Name" class="cls-26" transform="translate(23 197)"><tspan x="0" y="16">Author Name</tspan></text>
      </g>
      <text id="Leia_também" data-name="Leia também" class="cls-23" transform="translate(11.5 1633)"><tspan x="0" y="22">Leia também</tspan></text>
    </g>
  </g>
</svg>
