<svg xmlns="http://www.w3.org/2000/svg" xmlns:xlink="http://www.w3.org/1999/xlink" width="1280" height="2333" viewBox="0 0 1280 2333">
  <defs>
    <style>
      .cls-1 {
        clip-path: url(#clip-Blog_Desktop_1280x768);
      }

      .cls-2 {
        fill: #d9d9d9;
      }

      .cls-12, .cls-14, .cls-16, .cls-3, .cls-30, .cls-32 {
        fill: #fff;
      }

      .cls-3 {
        opacity: 0.436;
      }

      .cls-4 {
        opacity: 0.463;
      }

      .cls-10, .cls-11, .cls-17, .cls-18, .cls-20, .cls-21, .cls-22, .cls-23, .cls-24, .cls-27, .cls-5, .cls-6, .cls-8 {
        fill: #707070;
      }

      .cls-5 {
        font-size: 60px;
      }

      .cls-15, .cls-5, .cls-8 {
        font-family: Nunito-Black, Nunito;
      }

      .cls-10, .cls-12, .cls-14, .cls-15, .cls-21, .cls-23, .cls-24, .cls-5, .cls-8 {
        font-weight: 800;
      }

      .cls-12, .cls-14, .cls-6, .cls-8 {
        font-size: 22px;
      }

      .cls-6 {
        font-family: Nunito-SemiBold, Nunito;
        font-weight: 600;
      }

      .cls-7 {
        fill: #edebeb;
      }

      .cls-9 {
        fill: #d1d1d1;
      }

      .cls-10 {
        font-size: 55px;
      }

      .cls-10, .cls-12, .cls-14, .cls-21, .cls-23, .cls-24 {
        font-family: Nunito-ExtraBold, Nunito;
      }

      .cls-12 {
        opacity: 0.537;
      }

      .cls-13 {
        fill: #9f9f9f;
      }

      .cls-14 {
        opacity: 0.486;
      }

      .cls-15 {
        fill: #c3c3c3;
      }

      .cls-15, .cls-23 {
        font-size: 30px;
      }

      .cls-16 {
        opacity: 0.633;
      }

      .cls-17 {
        font-size: 14px;
      }

      .cls-17, .cls-20, .cls-22, .cls-27 {
        font-family: Nunito-Regular, Nunito;
      }

      .cls-18, .cls-27, .cls-30 {
        font-size: 18px;
      }

      .cls-18, .cls-30 {
        font-family: Nunito-Bold, Nunito;
        font-weight: 700;
      }

      .cls-19 {
        fill: #f0f0f0;
      }

      .cls-20 {
        font-size: 10px;
      }

      .cls-21 {
        font-size: 24px;
      }

      .cls-22 {
        font-size: 11px;
      }

      .cls-24 {
        font-size: 48px;
      }

      .cls-25 {
        fill: #d8d8d8;
      }

      .cls-26 {
        fill: #efe7e7;
      }

      .cls-28 {
        font-size: 16px;
      }

      .cls-29 {
        fill: #a2a2a2;
      }

      .cls-31 {
        fill: #95989a;
      }
    </style>
    <clipPath id="clip-Blog_Desktop_1280x768">
      <rect width="1280" height="2333"/>
    </clipPath>
  </defs>
  <g id="Blog_Desktop_1280x768" data-name="Blog Desktop 1280x768" class="cls-1">
    <rect class="cls-32" width="1280" height="2333"/>
    <g id="Header">
      <rect id="Rectangle_1" data-name="Rectangle 1" class="cls-2" width="1280" height="80"/>
      <rect id="Rectangle_22" data-name="Rectangle 22" class="cls-3" width="242" height="65" rx="5" transform="translate(1027 7)"/>
      <path id="ic_search_24px" class="cls-4" d="M29.291,26.136H27.629l-.589-.568a13.692,13.692,0,1,0-1.472,1.472l.568.589v1.662l10.516,10.5,3.134-3.134Zm-12.62,0a9.465,9.465,0,1,1,9.465-9.465A9.452,9.452,0,0,1,16.671,26.136Z" transform="translate(1215.704 19.707)"/>
      <text id="WAAS" class="cls-5" transform="translate(131.214 61)"><tspan x="-96.72" y="0">WAAS</tspan></text>
      <text id="Contato" class="cls-6" transform="translate(890 52)"><tspan x="-39.732" y="0">Contato</tspan></text>
      <rect id="Rectangle_28" data-name="Rectangle 28" class="cls-7" width="185" height="32" rx="15" transform="translate(656 28)"/>
      <text id="Blog_Transmitir" data-name="Blog Transmitir" class="cls-8" transform="translate(748 52)"><tspan x="-81.312" y="0">Blog Transmitir</tspan></text>
      <text id="Metodologia" class="cls-6" transform="translate(453 51)"><tspan x="-61.765" y="0">Metodologia</tspan></text>
      <text id="Hackateen" class="cls-6" transform="translate(595 51)"><tspan x="-52.976" y="0">Hackateen</tspan></text>
      <text id="Sobre_nós" data-name="Sobre nós" class="cls-6" transform="translate(314 51)"><tspan x="-50.083" y="0">Sobre nós</tspan></text>
    </g>
    <g id="Group_21" data-name="Group 21" transform="translate(181.5 19.375)">
      <path id="Path_19" data-name="Path 19" class="cls-9" d="M5,0H892a4.793,4.793,0,0,1,5,4.554V357.075a4.793,4.793,0,0,1-5,4.554H5a4.793,4.793,0,0,1-5-4.554V4.554A4.793,4.793,0,0,1,5,0Z" transform="translate(10 72)"/>
      <text id="Tecnologia_Fortacelendo_Jovens" data-name="Tecnologia 
Fortacelendo
Jovens" class="cls-10" transform="translate(27.5 179.965)"><tspan x="0" y="56">Tecnologia </tspan><tspan x="0" y="114">Fortacelendo</tspan><tspan x="0" y="172">Jovens</tspan></text>
    </g>
    <g id="Group_43" data-name="Group 43" transform="translate(87 -912)">
      <rect id="Rectangle_12" data-name="Rectangle 12" class="cls-11" width="1280" height="362" transform="translate(-87 2881)"/>
      <text id="Rodapé" class="cls-12" transform="translate(216 2910)"><tspan x="0" y="22">Rodapé</tspan></text>
      <g id="Group_18" data-name="Group 18" transform="translate(104 2993)">
        <rect id="Rectangle_13" data-name="Rectangle 13" class="cls-13" width="126" height="18"/>
        <rect id="Rectangle_14" data-name="Rectangle 14" class="cls-13" width="96" height="18" transform="translate(0 34)"/>
        <rect id="Rectangle_15" data-name="Rectangle 15" class="cls-13" width="63" height="18" transform="translate(0 68)"/>
      </g>
      <g id="Group_19" data-name="Group 19" transform="translate(317.5 2993)">
        <rect id="Rectangle_13-2" data-name="Rectangle 13" class="cls-13" width="126" height="18"/>
        <rect id="Rectangle_14-2" data-name="Rectangle 14" class="cls-13" width="96" height="18" transform="translate(0 34)"/>
        <rect id="Rectangle_15-2" data-name="Rectangle 15" class="cls-13" width="63" height="18" transform="translate(0 68)"/>
      </g>
      <g id="Group_60" data-name="Group 60" transform="translate(303.5 36)">
        <g id="Group_44" data-name="Group 44" transform="translate(469.5 2957)">
          <rect id="Rectangle_19" data-name="Rectangle 19" class="cls-13" width="167" height="18"/>
          <rect id="Rectangle_20" data-name="Rectangle 20" class="cls-13" width="78" height="18" transform="translate(0 34)"/>
          <rect id="Rectangle_21" data-name="Rectangle 21" class="cls-13" width="159" height="18" transform="translate(0 68)"/>
        </g>
      </g>
      <text id="Contato-2" data-name="Contato" class="cls-14" transform="translate(317 2957)"><tspan x="0" y="22">Contato</tspan></text>
      <text id="WAAS-2" data-name="WAAS" class="cls-15" transform="translate(151.5 2935)"><tspan x="-48.36" y="0">WAAS</tspan></text>
      <g id="Group_61" data-name="Group 61" transform="translate(60.5 36)">
        <g id="Group_44-2" data-name="Group 44" transform="translate(469.5 2957)">
          <rect id="Rectangle_19-2" data-name="Rectangle 19" class="cls-13" width="167" height="18"/>
          <rect id="Rectangle_20-2" data-name="Rectangle 20" class="cls-13" width="78" height="18" transform="translate(0 34)"/>
          <rect id="Rectangle_21-2" data-name="Rectangle 21" class="cls-13" width="159" height="18" transform="translate(0 68)"/>
        </g>
      </g>
      <text id="Redes_Sociais" data-name="Redes Sociais" class="cls-14" transform="translate(773 2957)"><tspan x="0" y="22">Redes Sociais</tspan></text>
    </g>
    <g id="Group_117" data-name="Group 117" transform="translate(-25 -359)">
      <g id="Group_115" data-name="Group 115" transform="translate(234 534.088)">
        <rect id="Rectangle_24" data-name="Rectangle 24" class="cls-16" width="67.193" height="20.158" rx="3" transform="translate(0)"/>
        <text id="Ciências" class="cls-17" transform="translate(6.719 14)"><tspan x="0" y="0">Ciências</tspan></text>
      </g>
      <g id="Group_114" data-name="Group 114" transform="translate(306.568 534.088)">
        <rect id="Rectangle_24-2" data-name="Rectangle 24" class="cls-16" width="76.924" height="20.158" rx="3"/>
        <text id="Educação" class="cls-17" transform="translate(6.719 14)"><tspan x="0" y="0">Educação</tspan></text>
      </g>
    </g>
    <g id="Group_97" data-name="Group 97" transform="translate(-4010 127)">
      <text id="Name" class="cls-18" transform="translate(4273 294.004)"><tspan x="0" y="0">Name</tspan></text>
      <circle id="Ellipse_7" data-name="Ellipse 7" class="cls-19" cx="21.5" cy="21.5" r="21.5" transform="translate(4219 265.004)"/>
    </g>
    <text id="_20_03_2019" data-name="20/03/2019" class="cls-20" transform="translate(1066 423.004)"><tspan x="-53.66" y="0">20/03/2019</tspan></text>
    <g id="Group_118" data-name="Group 118" transform="translate(789 135.708)">
      <rect id="Rectangle_3" data-name="Rectangle 3" class="cls-9" width="290.262" height="301.74" rx="5" transform="translate(10 333)"/>
      <text id="MAKER_a_revolução_na_sociedade_contemporânea_" data-name="MAKER a revolução na sociedade contemporânea
" class="cls-21" transform="translate(26 490.58)"><tspan x="0" y="24">MAKER a revolução </tspan><tspan x="0" y="48">na sociedade </tspan><tspan x="0" y="72">contemporânea</tspan></text>
      <text id="Name-2" data-name="Name" class="cls-18" transform="translate(75.372 606.74)"><tspan x="0" y="0">Name</tspan></text>
      <circle id="Ellipse_7-2" data-name="Ellipse 7" class="cls-19" cx="21.5" cy="21.5" r="21.5" transform="translate(24 577.74)"/>
      <g id="Group_69" data-name="Group 69" transform="translate(27 484.152) rotate(-90)">
        <rect id="Rectangle_24-3" data-name="Rectangle 24" class="cls-16" width="41" height="15" rx="3" transform="translate(15) rotate(90)"/>
        <text id="Maker" class="cls-22" transform="translate(4 5) rotate(90)"><tspan x="0" y="0">Maker</tspan></text>
      </g>
      <g id="Group_70" data-name="Group 70" transform="translate(74.83 469.152)">
        <rect id="Rectangle_24-4" data-name="Rectangle 24" class="cls-16" width="57.241" height="15" rx="3"/>
        <text id="Educação-2" data-name="Educação" class="cls-22" transform="translate(5 11)"><tspan x="0" y="0">Educação</tspan></text>
      </g>
      <text id="_20_03_2019-2" data-name="20/03/2019" class="cls-20" transform="translate(290.262 616.74)"><tspan x="-53.66" y="0">20/03/2019</tspan></text>
    </g>
    <g id="Group_119" data-name="Group 119" transform="translate(181 135.708)">
      <rect id="Rectangle_3-2" data-name="Rectangle 3" class="cls-9" width="593" height="301.74" rx="5" transform="translate(10 333)"/>
      <text id="MAKER_a_revolução_na_sociedade_contemporânea_2" data-name="MAKER a revolução     na sociedade contemporânea
" class="cls-23" transform="translate(26 463.58)"><tspan x="0" y="30" xml:space="preserve">MAKER a revolução     </tspan><tspan x="0" y="64">na sociedade </tspan><tspan x="0" y="98">contemporânea</tspan></text>
      <text id="Name-3" data-name="Name" class="cls-18" transform="translate(83.063 606.74)"><tspan x="0" y="0">Name</tspan></text>
      <circle id="Ellipse_7-3" data-name="Ellipse 7" class="cls-19" cx="21.5" cy="21.5" r="21.5" transform="translate(24 577.74)"/>
      <g id="Group_69-2" data-name="Group 69" transform="translate(27 461.152) rotate(-90)">
        <rect id="Rectangle_24-5" data-name="Rectangle 24" class="cls-16" width="41" height="15" rx="3" transform="translate(15) rotate(90)"/>
        <text id="Maker-2" data-name="Maker" class="cls-22" transform="translate(4 5) rotate(90)"><tspan x="0" y="0">Maker</tspan></text>
      </g>
      <g id="Group_70-2" data-name="Group 70" transform="translate(77.055 446.152)">
        <rect id="Rectangle_24-6" data-name="Rectangle 24" class="cls-16" width="57.241" height="15" rx="3"/>
        <text id="Educação-3" data-name="Educação" class="cls-22" transform="translate(5 11)"><tspan x="0" y="0">Educação</tspan></text>
      </g>
      <text id="_20_03_2019-3" data-name="20/03/2019" class="cls-20" transform="translate(593 616.74)"><tspan x="-53.66" y="0">20/03/2019</tspan></text>
    </g>
    <g id="Group_106" data-name="Group 106" transform="translate(182 -314.284)">
      <rect id="Rectangle_3-3" data-name="Rectangle 3" class="cls-9" width="897.262" height="470.54" rx="5" transform="translate(10 1102)"/>
      <g id="Group_108" data-name="Group 108" transform="translate(23.5 1435.728)">
        <text id="Post_especial_sobre_os_vencedores_do_HACKATEEN_" data-name="Post especial sobre os vencedores do HACKATEEN
" class="cls-24" transform="translate(0 -13.189)"><tspan x="16.075" y="49">Post especial sobre os vencedores do </tspan><tspan x="288.475" y="101">HACKATEEN</tspan></text>
        <g id="Group_107" data-name="Group 107" transform="translate(380.556 -28)">
          <g id="Group_69-3" data-name="Group 69" transform="translate(0 15) rotate(-90)">
            <rect id="Rectangle_24-7" data-name="Rectangle 24" class="cls-16" width="41" height="15" rx="3" transform="translate(15) rotate(90)"/>
            <text id="Maker-3" data-name="Maker" class="cls-22" transform="translate(4 5) rotate(90)"><tspan x="0" y="0">Maker</tspan></text>
          </g>
          <g id="Group_70-3" data-name="Group 70" transform="translate(47)">
            <rect id="Rectangle_24-8" data-name="Rectangle 24" class="cls-16" width="57.241" height="15" rx="3"/>
            <text id="Educação-4" data-name="Educação" class="cls-22" transform="translate(5 11)"><tspan x="0" y="0">Educação</tspan></text>
          </g>
        </g>
        <text id="_20_03_2019-4" data-name="20/03/2019" class="cls-20" transform="translate(461.131 117.811)"><tspan x="-53.66" y="0">20/03/2019</tspan></text>
      </g>
    </g>
    <g id="Group_126" data-name="Group 126" transform="translate(487 56)">
      <g id="Group_83" data-name="Group 83">
        <circle id="Ellipse_8" data-name="Ellipse 8" class="cls-25" cx="23.351" cy="23.351" r="23.351" transform="translate(47 1562)"/>
        <text id="_1" data-name="1" class="cls-21" transform="translate(69.5 1593)"><tspan x="-7.2" y="0">1</tspan></text>
      </g>
      <g id="Group_84" data-name="Group 84" transform="translate(56)">
        <circle id="Ellipse_8-2" data-name="Ellipse 8" class="cls-25" cx="23.351" cy="23.351" r="23.351" transform="translate(47 1562)"/>
        <text id="_2" data-name="2" class="cls-21" transform="translate(69.5 1593)"><tspan x="-7.212" y="0">2</tspan></text>
      </g>
      <g id="Group_85" data-name="Group 85" transform="translate(112)">
        <circle id="Ellipse_8-3" data-name="Ellipse 8" class="cls-25" cx="23.351" cy="23.351" r="23.351" transform="translate(47 1562)"/>
        <text id="_3" data-name="3" class="cls-21" transform="translate(69.5 1593)"><tspan x="-7.2" y="0">3</tspan></text>
      </g>
      <g id="Group_86" data-name="Group 86" transform="translate(165)">
        <circle id="Ellipse_8-4" data-name="Ellipse 8" class="cls-25" cx="23.351" cy="23.351" r="23.351" transform="translate(47 1562)"/>
        <text id="_4" data-name="4" class="cls-21" transform="translate(69.5 1593)"><tspan x="-7.2" y="0">4</tspan></text>
      </g>
    </g>
    <g id="Group_127" data-name="Group 127" transform="translate(333.5 -945)">
      <rect id="Rectangle_3-4" data-name="Rectangle 3" class="cls-9" width="593" height="199" rx="5" transform="translate(10 2644)"/>
      <text id="Newsletter" class="cls-23" transform="translate(25.5 2663)"><tspan x="0" y="30">Newsletter</tspan></text>
      <rect id="Rectangle_10" data-name="Rectangle 10" class="cls-26" width="562" height="41" rx="5" transform="translate(25.5 2734)"/>
      <text id="Inscreva-se_para_receber_as_novidades_mais_recentes." data-name="Inscreva-se para receber as novidades mais recentes." class="cls-27" transform="translate(25.5 2698)"><tspan x="0" y="18">Inscreva-se para receber </tspan><tspan class="cls-28" y="18">as novidades mais recentes.</tspan></text>
      <g id="Group_17" data-name="Group 17" transform="translate(487.5 2783)">
        <rect id="Rectangle_11" data-name="Rectangle 11" class="cls-29" width="100" height="41" rx="5"/>
        <text id="Inscrever" class="cls-30" transform="translate(13 26)"><tspan x="0" y="0">Inscrever</tspan></text>
      </g>
    </g>
    <path id="ic_share_24px" class="cls-31" d="M18,16.08a2.912,2.912,0,0,0-1.96.77L8.91,12.7A3.274,3.274,0,0,0,9,12a3.274,3.274,0,0,0-.09-.7l7.05-4.11A2.993,2.993,0,1,0,15,5a3.274,3.274,0,0,0,.09.7L8.04,9.81a3,3,0,1,0,0,4.38l7.12,4.16a2.821,2.821,0,0,0-.08.65A2.92,2.92,0,1,0,18,16.08Z" transform="translate(1054 102)"/>
    <path id="ic_share_24px-2" data-name="ic_share_24px" class="cls-31" d="M18,16.08a2.912,2.912,0,0,0-1.96.77L8.91,12.7A3.274,3.274,0,0,0,9,12a3.274,3.274,0,0,0-.09-.7l7.05-4.11A2.993,2.993,0,1,0,15,5a3.274,3.274,0,0,0,.09.7L8.04,9.81a3,3,0,1,0,0,4.38l7.12,4.16a2.821,2.821,0,0,0-.08.65A2.92,2.92,0,1,0,18,16.08Z" transform="translate(753 479)"/>
    <path id="ic_share_24px-3" data-name="ic_share_24px" class="cls-31" d="M18,16.08a2.912,2.912,0,0,0-1.96.77L8.91,12.7A3.274,3.274,0,0,0,9,12a3.274,3.274,0,0,0-.09-.7l7.05-4.11A2.993,2.993,0,1,0,15,5a3.274,3.274,0,0,0,.09.7L8.04,9.81a3,3,0,1,0,0,4.38l7.12,4.16a2.821,2.821,0,0,0-.08.65A2.92,2.92,0,1,0,18,16.08Z" transform="translate(1054 479)"/>
    <path id="ic_share_24px-4" data-name="ic_share_24px" class="cls-31" d="M18,16.08a2.912,2.912,0,0,0-1.96.77L8.91,12.7A3.274,3.274,0,0,0,9,12a3.274,3.274,0,0,0-.09-.7l7.05-4.11A2.993,2.993,0,1,0,15,5a3.274,3.274,0,0,0,.09.7L8.04,9.81a3,3,0,1,0,0,4.38l7.12,4.16a2.821,2.821,0,0,0-.08.65A2.92,2.92,0,1,0,18,16.08Z" transform="translate(1057 800)"/>
    <g id="Group_129" data-name="Group 129">
      <g id="Group_128" data-name="Group 128">
        <g id="Group_123" data-name="Group 123" transform="translate(181 942.63)">
          <rect id="Rectangle_3-5" data-name="Rectangle 3" class="cls-9" width="290.262" height="301.74" rx="5" transform="translate(10 333)"/>
          <text id="MAKER_a_revolução_na_sociedade_contemporânea_3" data-name="MAKER a revolução na sociedade contemporânea
" class="cls-21" transform="translate(26 490.58)"><tspan x="0" y="24">MAKER a revolução </tspan><tspan x="0" y="48">na sociedade </tspan><tspan x="0" y="72">contemporânea</tspan></text>
          <text id="Name-4" data-name="Name" class="cls-18" transform="translate(75.372 606.74)"><tspan x="0" y="0">Name</tspan></text>
          <circle id="Ellipse_7-4" data-name="Ellipse 7" class="cls-19" cx="21.5" cy="21.5" r="21.5" transform="translate(24 577.74)"/>
          <g id="Group_69-4" data-name="Group 69" transform="translate(27 484.152) rotate(-90)">
            <rect id="Rectangle_24-9" data-name="Rectangle 24" class="cls-16" width="41" height="15" rx="3" transform="translate(15) rotate(90)"/>
            <text id="Maker-4" data-name="Maker" class="cls-22" transform="translate(4 5) rotate(90)"><tspan x="0" y="0">Maker</tspan></text>
          </g>
          <g id="Group_70-4" data-name="Group 70" transform="translate(74.83 469.152)">
            <rect id="Rectangle_24-10" data-name="Rectangle 24" class="cls-16" width="57.241" height="15" rx="3"/>
            <text id="Educação-5" data-name="Educação" class="cls-22" transform="translate(5 11)"><tspan x="0" y="0">Educação</tspan></text>
          </g>
          <text id="_20_03_2019-5" data-name="20/03/2019" class="cls-20" transform="translate(290.262 616.74)"><tspan x="-53.66" y="0">20/03/2019</tspan></text>
        </g>
        <path id="ic_share_24px-5" data-name="ic_share_24px" class="cls-31" d="M18,16.08a2.912,2.912,0,0,0-1.96.77L8.91,12.7A3.274,3.274,0,0,0,9,12a3.274,3.274,0,0,0-.09-.7l7.05-4.11A2.993,2.993,0,1,0,15,5a3.274,3.274,0,0,0,.09.7L8.04,9.81a3,3,0,1,0,0,4.38l7.12,4.16a2.821,2.821,0,0,0-.08.65A2.92,2.92,0,1,0,18,16.08Z" transform="translate(448 1287)"/>
      </g>
    </g>
    <g id="Group_130" data-name="Group 130" transform="translate(303.869)">
      <g id="Group_128-2" data-name="Group 128">
        <g id="Group_123-2" data-name="Group 123" transform="translate(181 942.63)">
          <rect id="Rectangle_3-6" data-name="Rectangle 3" class="cls-9" width="290.262" height="301.74" rx="5" transform="translate(10 333)"/>
          <text id="MAKER_a_revolução_na_sociedade_contemporânea_4" data-name="MAKER a revolução na sociedade contemporânea
" class="cls-21" transform="translate(26 490.58)"><tspan x="0" y="24">MAKER a revolução </tspan><tspan x="0" y="48">na sociedade </tspan><tspan x="0" y="72">contemporânea</tspan></text>
          <text id="Name-5" data-name="Name" class="cls-18" transform="translate(75.372 606.74)"><tspan x="0" y="0">Name</tspan></text>
          <circle id="Ellipse_7-5" data-name="Ellipse 7" class="cls-19" cx="21.5" cy="21.5" r="21.5" transform="translate(24 577.74)"/>
          <g id="Group_69-5" data-name="Group 69" transform="translate(27 484.152) rotate(-90)">
            <rect id="Rectangle_24-11" data-name="Rectangle 24" class="cls-16" width="41" height="15" rx="3" transform="translate(15) rotate(90)"/>
            <text id="Maker-5" data-name="Maker" class="cls-22" transform="translate(4 5) rotate(90)"><tspan x="0" y="0">Maker</tspan></text>
          </g>
          <g id="Group_70-5" data-name="Group 70" transform="translate(74.83 469.152)">
            <rect id="Rectangle_24-12" data-name="Rectangle 24" class="cls-16" width="57.241" height="15" rx="3"/>
            <text id="Educação-6" data-name="Educação" class="cls-22" transform="translate(5 11)"><tspan x="0" y="0">Educação</tspan></text>
          </g>
          <text id="_20_03_2019-6" data-name="20/03/2019" class="cls-20" transform="translate(290.262 616.74)"><tspan x="-53.66" y="0">20/03/2019</tspan></text>
        </g>
        <path id="ic_share_24px-6" data-name="ic_share_24px" class="cls-31" d="M18,16.08a2.912,2.912,0,0,0-1.96.77L8.91,12.7A3.274,3.274,0,0,0,9,12a3.274,3.274,0,0,0-.09-.7l7.05-4.11A2.993,2.993,0,1,0,15,5a3.274,3.274,0,0,0,.09.7L8.04,9.81a3,3,0,1,0,0,4.38l7.12,4.16a2.821,2.821,0,0,0-.08.65A2.92,2.92,0,1,0,18,16.08Z" transform="translate(448 1287)"/>
      </g>
    </g>
    <g id="Group_131" data-name="Group 131" transform="translate(608)">
      <g id="Group_128-3" data-name="Group 128">
        <g id="Group_123-3" data-name="Group 123" transform="translate(181 942.63)">
          <rect id="Rectangle_3-7" data-name="Rectangle 3" class="cls-9" width="290.262" height="301.74" rx="5" transform="translate(10 333)"/>
          <text id="MAKER_a_revolução_na_sociedade_contemporânea_5" data-name="MAKER a revolução na sociedade contemporânea
" class="cls-21" transform="translate(26 490.58)"><tspan x="0" y="24">MAKER a revolução </tspan><tspan x="0" y="48">na sociedade </tspan><tspan x="0" y="72">contemporânea</tspan></text>
          <text id="Name-6" data-name="Name" class="cls-18" transform="translate(75.372 606.74)"><tspan x="0" y="0">Name</tspan></text>
          <circle id="Ellipse_7-6" data-name="Ellipse 7" class="cls-19" cx="21.5" cy="21.5" r="21.5" transform="translate(24 577.74)"/>
          <g id="Group_69-6" data-name="Group 69" transform="translate(27 484.152) rotate(-90)">
            <rect id="Rectangle_24-13" data-name="Rectangle 24" class="cls-16" width="41" height="15" rx="3" transform="translate(15) rotate(90)"/>
            <text id="Maker-6" data-name="Maker" class="cls-22" transform="translate(4 5) rotate(90)"><tspan x="0" y="0">Maker</tspan></text>
          </g>
          <g id="Group_70-6" data-name="Group 70" transform="translate(74.83 469.152)">
            <rect id="Rectangle_24-14" data-name="Rectangle 24" class="cls-16" width="57.241" height="15" rx="3"/>
            <text id="Educação-7" data-name="Educação" class="cls-22" transform="translate(5 11)"><tspan x="0" y="0">Educação</tspan></text>
          </g>
          <text id="_20_03_2019-7" data-name="20/03/2019" class="cls-20" transform="translate(290.262 616.74)"><tspan x="-53.66" y="0">20/03/2019</tspan></text>
        </g>
        <path id="ic_share_24px-7" data-name="ic_share_24px" class="cls-31" d="M18,16.08a2.912,2.912,0,0,0-1.96.77L8.91,12.7A3.274,3.274,0,0,0,9,12a3.274,3.274,0,0,0-.09-.7l7.05-4.11A2.993,2.993,0,1,0,15,5a3.274,3.274,0,0,0,.09.7L8.04,9.81a3,3,0,1,0,0,4.38l7.12,4.16a2.821,2.821,0,0,0-.08.65A2.92,2.92,0,1,0,18,16.08Z" transform="translate(448 1287)"/>
      </g>
    </g>
  </g>
</svg>
