<svg xmlns="http://www.w3.org/2000/svg" xmlns:xlink="http://www.w3.org/1999/xlink" width="768" height="2664" viewBox="0 0 768 2664">
  <defs>
    <style>
      .cls-1, .cls-28 {
        fill: none;
      }

      .cls-2 {
        clip-path: url(#clip-Blog_Tablet_768x1024_);
      }

      .cls-3 {
        fill: #d9d9d9;
      }

      .cls-4 {
        fill: rgba(144,144,144,0.33);
        stroke: rgba(0,0,0,0.5);
        stroke-miterlimit: 10;
        stroke-width: 2px;
      }

      .cls-28, .cls-4 {
        stroke-linecap: round;
      }

      .cls-13, .cls-15, .cls-17, .cls-21, .cls-32, .cls-5 {
        fill: #fff;
      }

      .cls-5 {
        opacity: 0.436;
      }

      .cls-10, .cls-14, .cls-19, .cls-22, .cls-23, .cls-25, .cls-27, .cls-29, .cls-30, .cls-6, .cls-8 {
        fill: #707070;
      }

      .cls-18, .cls-6, .cls-8 {
        font-size: 30px;
      }

      .cls-18, .cls-6 {
        font-family: Nunito-Black, Nunito;
      }

      .cls-15, .cls-17, .cls-18, .cls-19, .cls-27, .cls-29, .cls-30, .cls-6, .cls-8 {
        font-weight: 800;
      }

      .cls-7 {
        fill: #d1d1d1;
      }

      .cls-15, .cls-17, .cls-19, .cls-27, .cls-29, .cls-30, .cls-8 {
        font-family: Nunito-ExtraBold, Nunito;
      }

      .cls-9 {
        fill: #efe7e7;
      }

      .cls-10, .cls-13, .cls-23 {
        font-size: 18px;
      }

      .cls-10, .cls-22, .cls-25 {
        font-family: Nunito-Regular, Nunito;
      }

      .cls-11 {
        font-size: 16px;
      }

      .cls-12 {
        fill: #a2a2a2;
      }

      .cls-13, .cls-23 {
        font-family: Nunito-Bold, Nunito;
        font-weight: 700;
      }

      .cls-15, .cls-17, .cls-27 {
        font-size: 22px;
      }

      .cls-15 {
        opacity: 0.537;
      }

      .cls-16 {
        fill: #9f9f9f;
      }

      .cls-17 {
        opacity: 0.486;
      }

      .cls-18 {
        fill: #c3c3c3;
      }

      .cls-19 {
        font-size: 44px;
      }

      .cls-20 {
        clip-path: url(#clip-path);
      }

      .cls-21 {
        opacity: 0.633;
      }

      .cls-22 {
        font-size: 11px;
      }

      .cls-24 {
        fill: #f0f0f0;
      }

      .cls-25 {
        font-size: 10px;
      }

      .cls-26 {
        fill: #edebeb;
      }

      .cls-28 {
        stroke: #707070;
      }

      .cls-29 {
        font-size: 24px;
      }

      .cls-30 {
        font-size: 38px;
      }

      .cls-31 {
        fill: #d8d8d8;
      }
    </style>
    <clipPath id="clip-path">
      <rect class="cls-1" width="50" height="15"/>
    </clipPath>
    <clipPath id="clip-Blog_Tablet_768x1024_">
      <rect width="768" height="2664"/>
    </clipPath>
  </defs>
  <g id="Blog_Tablet_768x1024_" data-name="Blog  Tablet  768x1024 " class="cls-2">
    <rect class="cls-32" width="768" height="2664"/>
    <g id="Header">
      <rect id="Rectangle_1" data-name="Rectangle 1" class="cls-3" width="768" height="60"/>
      <g id="Menu" transform="translate(16.5 22.5)">
        <path id="Path_15" data-name="Path 15" class="cls-4" d="M4,8H28M4,16H28M4,24H28" transform="translate(-4 -8)"/>
      </g>
      <path id="ic_search_24px" d="M20.845,18.7H19.717l-.4-.385a9.293,9.293,0,1,0-1,1l.385.4v1.128l7.138,7.124,2.127-2.127Zm-8.566,0A6.424,6.424,0,1,1,18.7,12.279,6.416,6.416,0,0,1,12.279,18.7Z" transform="translate(722.521 14.521)"/>
      <rect id="Rectangle_23" data-name="Rectangle 23" class="cls-5" width="230" height="45" rx="5" transform="translate(528 8)"/>
      <text id="WAAS" class="cls-6" transform="translate(370.5 40)"><tspan x="-48.36" y="0">WAAS</tspan></text>
    </g>
    <g id="Group_42" data-name="Group 42" transform="translate(77 -555)">
      <rect id="Rectangle_3" data-name="Rectangle 3" class="cls-7" width="593" height="199" rx="5" transform="translate(10 2644)"/>
      <text id="Newsletter" class="cls-8" transform="translate(25.5 2663)"><tspan x="0" y="30">Newsletter</tspan></text>
      <rect id="Rectangle_10" data-name="Rectangle 10" class="cls-9" width="562" height="41" rx="5" transform="translate(25.5 2734)"/>
      <text id="Inscreva-se_para_receber_as_novidades_mais_recentes." data-name="Inscreva-se para receber as novidades mais recentes." class="cls-10" transform="translate(25.5 2698)"><tspan x="0" y="18">Inscreva-se para receber </tspan><tspan class="cls-11" y="18">as novidades mais recentes.</tspan></text>
      <g id="Group_17" data-name="Group 17" transform="translate(487.5 2783)">
        <rect id="Rectangle_11" data-name="Rectangle 11" class="cls-12" width="100" height="41" rx="5"/>
        <text id="Inscrever" class="cls-13" transform="translate(13 26)"><tspan x="0" y="0">Inscrever</tspan></text>
      </g>
    </g>
    <g id="Group_43" data-name="Group 43" transform="translate(87 -576)">
      <rect id="Rectangle_12" data-name="Rectangle 12" class="cls-14" width="768" height="362" transform="translate(-87 2881)"/>
      <text id="Rodapé" class="cls-15" transform="translate(137 2912)"><tspan x="0" y="22">Rodapé</tspan></text>
      <g id="Group_18" data-name="Group 18">
        <rect id="Rectangle_13" data-name="Rectangle 13" class="cls-16" width="126" height="18" transform="translate(26 2957)"/>
        <rect id="Rectangle_14" data-name="Rectangle 14" class="cls-16" width="96" height="18" transform="translate(26 2991)"/>
        <rect id="Rectangle_15" data-name="Rectangle 15" class="cls-16" width="63" height="18" transform="translate(26 3025)"/>
      </g>
      <g id="Group_64" data-name="Group 64" transform="translate(0 17)">
        <rect id="Rectangle_16" data-name="Rectangle 16" class="cls-16" width="128.438" height="18" transform="translate(441 2962)"/>
        <rect id="Rectangle_17" data-name="Rectangle 17" class="cls-16" width="78" height="18" transform="translate(441 2996)"/>
        <rect id="Rectangle_18" data-name="Rectangle 18" class="cls-16" width="120.438" height="18" transform="translate(441 3030)"/>
      </g>
      <g id="Group_19" data-name="Group 19" transform="translate(0 144)">
        <rect id="Rectangle_13-2" data-name="Rectangle 13" class="cls-16" width="126" height="18" transform="translate(26 2957)"/>
        <rect id="Rectangle_14-2" data-name="Rectangle 14" class="cls-16" width="96" height="18" transform="translate(26 2991)"/>
        <rect id="Rectangle_15-2" data-name="Rectangle 15" class="cls-16" width="63" height="18" transform="translate(26 3025)"/>
      </g>
      <g id="Group_44" data-name="Group 44" transform="translate(33.938 -110)">
        <rect id="Rectangle_19" data-name="Rectangle 19" class="cls-16" width="167" height="18" transform="translate(179.563 3067)"/>
        <rect id="Rectangle_20" data-name="Rectangle 20" class="cls-16" width="78" height="18" transform="translate(179.563 3101)"/>
        <rect id="Rectangle_21" data-name="Rectangle 21" class="cls-16" width="159" height="18" transform="translate(179.563 3135)"/>
      </g>
      <text id="Contato" class="cls-17" transform="translate(25.5 3065)"><tspan x="0" y="22">Contato</tspan></text>
      <text id="WAAS-2" data-name="WAAS" class="cls-18" transform="translate(73.5 2935)"><tspan x="-48.36" y="0">WAAS</tspan></text>
      <text id="Sociais" class="cls-17" transform="translate(441.5 2939)"><tspan x="0" y="22">Sociais</tspan></text>
    </g>
    <g id="Group_98" data-name="Group 98" transform="translate(-1 36)">
      <rect id="Rectangle_2" data-name="Rectangle 2" class="cls-7" width="593" height="515.438" rx="5" transform="translate(87 75)"/>
      <text id="Tecnologia_Fortacelendo_Jovens" data-name="Tecnologia 
Fortacelendo
Jovens" class="cls-19" transform="translate(105 367.438)"><tspan x="0" y="44">Tecnologia </tspan><tspan x="0" y="90">Fortacelendo</tspan><tspan x="0" y="136">Jovens</tspan></text>
      <g id="Tag" class="cls-20" transform="translate(105 349.246)">
        <rect id="Rectangle_24" data-name="Rectangle 24" class="cls-21" width="50" height="15" rx="3"/>
        <text id="Ciências" class="cls-22" transform="translate(5 11)"><tspan x="0" y="0">Ciências</tspan></text>
      </g>
      <g id="Group_66" data-name="Group 66" transform="translate(159 349.246)">
        <rect id="Rectangle_24-2" data-name="Rectangle 24" class="cls-21" width="57.241" height="15" rx="3"/>
        <text id="Educação" class="cls-22" transform="translate(5 11)"><tspan x="0" y="0">Educação</tspan></text>
      </g>
      <g id="Group_97" data-name="Group 97" transform="translate(-4114 259)">
        <text id="Name" class="cls-23" transform="translate(4273 294.004)"><tspan x="0" y="0">Name</tspan></text>
        <circle id="Ellipse_7" data-name="Ellipse 7" class="cls-24" cx="21.5" cy="21.5" r="21.5" transform="translate(4219 265.004)"/>
      </g>
      <text id="_20_03_2019" data-name="20/03/2019" class="cls-25" transform="translate(656 561.004)"><tspan x="-53.66" y="0">20/03/2019</tspan></text>
    </g>
    <g id="Group_116" data-name="Group 116">
      <rect id="Rectangle_27" data-name="Rectangle 27" class="cls-26" width="595" height="32" rx="15" transform="translate(86 69)"/>
      <g id="Group_75" data-name="Group 75" transform="translate(223.5 6)">
        <text id="Blog_Transmitir" data-name="Blog Transmitir" class="cls-27" transform="translate(11.5 63)"><tspan x="69.602" y="22">Blog Transmitir</tspan></text>
        <g id="Group_73" data-name="Group 73" transform="translate(248 71)">
          <path id="Path_16" data-name="Path 16" class="cls-28" d="M3145,82s3.975,3.126,0,8.156" transform="translate(-3145 -77.743)"/>
          <path id="Path_17" data-name="Path 17" class="cls-28" d="M3145,82s6.976,4.738,0,12.363" transform="translate(-3144.293 -79.928)"/>
          <path id="Path_18" data-name="Path 18" class="cls-28" d="M3145,82s9.182,6.331,0,16.521" transform="translate(-3143.233 -82)"/>
        </g>
        <g id="Group_74" data-name="Group 74" transform="translate(72.848 87.521) rotate(180)">
          <path id="Path_16-2" data-name="Path 16" class="cls-28" d="M0,0S3.975,3.126,0,8.156" transform="translate(0 4.257)"/>
          <path id="Path_17-2" data-name="Path 17" class="cls-28" d="M0,0S6.976,4.738,0,12.363" transform="translate(0.707 2.072)"/>
          <path id="Path_18-2" data-name="Path 18" class="cls-28" d="M0,0S9.182,6.331,0,16.521" transform="translate(1.767 0)"/>
        </g>
      </g>
    </g>
    <g id="Group_100" data-name="Group 100" transform="translate(77 389)">
      <rect id="Rectangle_3-2" data-name="Rectangle 3" class="cls-7" width="289" height="371.652" rx="5" transform="translate(10 248)"/>
      <text id="MAKER_a_revolução_na_sociedade_contemporânea_" data-name="MAKER a revolução na sociedade contemporânea
" class="cls-29" transform="translate(26 466.137)"><tspan x="0" y="24">MAKER a revolução </tspan><tspan x="0" y="50">na sociedade </tspan><tspan x="0" y="76">contemporânea</tspan></text>
      <text id="Name-2" data-name="Name" class="cls-23" transform="translate(75.032 582.652)"><tspan x="0" y="0">Name</tspan></text>
      <circle id="Ellipse_7-2" data-name="Ellipse 7" class="cls-24" cx="21.5" cy="21.5" r="21.5" transform="translate(24 553.652)"/>
      <g id="Group_69" data-name="Group 69" transform="translate(27 459.917) rotate(-90)">
        <rect id="Rectangle_24-3" data-name="Rectangle 24" class="cls-21" width="41" height="15" rx="3" transform="translate(15) rotate(90)"/>
        <text id="Maker" class="cls-22" transform="translate(4 5) rotate(90)"><tspan x="0" y="0">Maker</tspan></text>
      </g>
      <g id="Group_70" data-name="Group 70" transform="translate(70.19 444.917)">
        <rect id="Rectangle_24-4" data-name="Rectangle 24" class="cls-21" width="57.241" height="15" rx="3" transform="translate(0 0)"/>
        <text id="Educação-2" data-name="Educação" class="cls-22" transform="translate(5 11)"><tspan x="0" y="0">Educação</tspan></text>
      </g>
      <text id="_20_03_2019-2" data-name="20/03/2019" class="cls-25" transform="translate(289 599.652)"><tspan x="-53.66" y="0">20/03/2019</tspan></text>
    </g>
    <g id="Group_101" data-name="Group 101" transform="translate(379.738 304)">
      <rect id="Rectangle_3-3" data-name="Rectangle 3" class="cls-7" width="290.262" height="180.652" rx="5" transform="translate(10 333)"/>
      <text id="MAKER_a_revolução_na_sociedade_contemporânea_2" data-name="MAKER a revolução na sociedade contemporânea
" class="cls-29" transform="translate(26 373.956)"><tspan x="0" y="24">MAKER a revolução </tspan><tspan x="0" y="48">na sociedade </tspan><tspan x="0" y="72">contemporânea</tspan></text>
      <text id="Name-3" data-name="Name" class="cls-23" transform="translate(75.372 485.652)"><tspan x="0" y="0">Name</tspan></text>
      <circle id="Ellipse_7-3" data-name="Ellipse 7" class="cls-24" cx="21.5" cy="21.5" r="21.5" transform="translate(24 456.652)"/>
      <g id="Group_69-2" data-name="Group 69" transform="translate(27 369) rotate(-90)">
        <rect id="Rectangle_24-5" data-name="Rectangle 24" class="cls-21" width="41" height="15" rx="3" transform="translate(15) rotate(90)"/>
        <text id="Maker-2" data-name="Maker" class="cls-22" transform="translate(4 5) rotate(90)"><tspan x="0" y="0">Maker</tspan></text>
      </g>
      <g id="Group_70-2" data-name="Group 70" transform="translate(74.83 354)">
        <rect id="Rectangle_24-6" data-name="Rectangle 24" class="cls-21" width="57.241" height="15" rx="3"/>
        <text id="Educação-3" data-name="Educação" class="cls-22" transform="translate(5 11)"><tspan x="0" y="0">Educação</tspan></text>
      </g>
      <text id="_20_03_2019-3" data-name="20/03/2019" class="cls-25" transform="translate(290.262 495.652)"><tspan x="-53.66" y="0">20/03/2019</tspan></text>
    </g>
    <g id="Group_102" data-name="Group 102" transform="translate(379.738 496)">
      <rect id="Rectangle_3-4" data-name="Rectangle 3" class="cls-7" width="290.262" height="180.652" rx="5" transform="translate(10 333)"/>
      <text id="MAKER_a_revolução_na_sociedade_contemporânea_3" data-name="MAKER a revolução na sociedade contemporânea
" class="cls-29" transform="translate(26 373.956)"><tspan x="0" y="24">MAKER a revolução </tspan><tspan x="0" y="48">na sociedade </tspan><tspan x="0" y="72">contemporânea</tspan></text>
      <text id="Name-4" data-name="Name" class="cls-23" transform="translate(75.372 485.652)"><tspan x="0" y="0">Name</tspan></text>
      <circle id="Ellipse_7-4" data-name="Ellipse 7" class="cls-24" cx="21.5" cy="21.5" r="21.5" transform="translate(24 456.652)"/>
      <g id="Group_69-3" data-name="Group 69" transform="translate(27 369) rotate(-90)">
        <rect id="Rectangle_24-7" data-name="Rectangle 24" class="cls-21" width="41" height="15" rx="3" transform="translate(15) rotate(90)"/>
        <text id="Maker-3" data-name="Maker" class="cls-22" transform="translate(4 5) rotate(90)"><tspan x="0" y="0">Maker</tspan></text>
      </g>
      <g id="Group_70-3" data-name="Group 70" transform="translate(74.83 354)">
        <rect id="Rectangle_24-8" data-name="Rectangle 24" class="cls-21" width="57.241" height="15" rx="3"/>
        <text id="Educação-4" data-name="Educação" class="cls-22" transform="translate(5 11)"><tspan x="0" y="0">Educação</tspan></text>
      </g>
      <text id="_20_03_2019-4" data-name="20/03/2019" class="cls-25" transform="translate(290.262 495.652)"><tspan x="-53.66" y="0">20/03/2019</tspan></text>
    </g>
    <g id="Group_106" data-name="Group 106" transform="translate(77 -82)">
      <rect id="Rectangle_3-5" data-name="Rectangle 3" class="cls-7" width="593" height="371.652" rx="5" transform="translate(10 1102)"/>
      <g id="Group_108" data-name="Group 108" transform="translate(23.5 1336.841)">
        <text id="Post_especial_sobre_os_vencedores_do_HACKATEEN_" data-name="Post especial sobre os vencedores do HACKATEEN
" class="cls-30" transform="translate(0 14.811)"><tspan x="84.989" y="38">Post especial sobre os </tspan><tspan x="32.739" y="80">vencedores do HACKATEEN</tspan></text>
        <g id="Group_107" data-name="Group 107" transform="translate(229.004)">
          <g id="Group_69-4" data-name="Group 69" transform="translate(0 15) rotate(-90)">
            <rect id="Rectangle_24-9" data-name="Rectangle 24" class="cls-21" width="41" height="15" rx="3" transform="translate(15) rotate(90)"/>
            <text id="Maker-4" data-name="Maker" class="cls-22" transform="translate(4 5) rotate(90)"><tspan x="0" y="0">Maker</tspan></text>
          </g>
          <g id="Group_70-4" data-name="Group 70" transform="translate(47)">
            <rect id="Rectangle_24-10" data-name="Rectangle 24" class="cls-21" width="57.241" height="15" rx="3"/>
            <text id="Educação-5" data-name="Educação" class="cls-22" transform="translate(5 11)"><tspan x="0" y="0">Educação</tspan></text>
          </g>
        </g>
        <text id="_20_03_2019-5" data-name="20/03/2019" class="cls-25" transform="translate(309 117.811)"><tspan x="-53.66" y="0">20/03/2019</tspan></text>
      </g>
    </g>
    <g id="Group_109" data-name="Group 109" transform="translate(77 1454)">
      <rect id="Rectangle_3-6" data-name="Rectangle 3" class="cls-7" width="290.262" height="180.652" rx="5" transform="translate(10 333)"/>
      <text id="MAKER_a_revolução_na_sociedade_contemporânea_4" data-name="MAKER a revolução na sociedade contemporânea
" class="cls-29" transform="translate(26 373.956)"><tspan x="0" y="24">MAKER a revolução </tspan><tspan x="0" y="48">na sociedade </tspan><tspan x="0" y="72">contemporânea</tspan></text>
      <text id="Name-5" data-name="Name" class="cls-23" transform="translate(75.372 485.652)"><tspan x="0" y="0">Name</tspan></text>
      <circle id="Ellipse_7-5" data-name="Ellipse 7" class="cls-24" cx="21.5" cy="21.5" r="21.5" transform="translate(24 456.652)"/>
      <g id="Group_69-5" data-name="Group 69" transform="translate(27 369) rotate(-90)">
        <rect id="Rectangle_24-11" data-name="Rectangle 24" class="cls-21" width="41" height="15" rx="3" transform="translate(15) rotate(90)"/>
        <text id="Maker-5" data-name="Maker" class="cls-22" transform="translate(4 5) rotate(90)"><tspan x="0" y="0">Maker</tspan></text>
      </g>
      <g id="Group_70-5" data-name="Group 70" transform="translate(74.83 354)">
        <rect id="Rectangle_24-12" data-name="Rectangle 24" class="cls-21" width="57.241" height="15" rx="3"/>
        <text id="Educação-6" data-name="Educação" class="cls-22" transform="translate(5 11)"><tspan x="0" y="0">Educação</tspan></text>
      </g>
      <text id="_20_03_2019-6" data-name="20/03/2019" class="cls-25" transform="translate(290.262 495.652)"><tspan x="-53.66" y="0">20/03/2019</tspan></text>
    </g>
    <g id="Group_110" data-name="Group 110" transform="translate(381 1454)">
      <rect id="Rectangle_3-7" data-name="Rectangle 3" class="cls-7" width="290.262" height="180.652" rx="5" transform="translate(10 333)"/>
      <text id="MAKER_a_revolução_na_sociedade_contemporânea_5" data-name="MAKER a revolução na sociedade contemporânea
" class="cls-29" transform="translate(26 373.956)"><tspan x="0" y="24">MAKER a revolução </tspan><tspan x="0" y="48">na sociedade </tspan><tspan x="0" y="72">contemporânea</tspan></text>
      <text id="Name-6" data-name="Name" class="cls-23" transform="translate(75.372 485.652)"><tspan x="0" y="0">Name</tspan></text>
      <circle id="Ellipse_7-6" data-name="Ellipse 7" class="cls-24" cx="21.5" cy="21.5" r="21.5" transform="translate(24 456.652)"/>
      <g id="Group_69-6" data-name="Group 69" transform="translate(27 369) rotate(-90)">
        <rect id="Rectangle_24-13" data-name="Rectangle 24" class="cls-21" width="41" height="15" rx="3" transform="translate(15) rotate(90)"/>
        <text id="Maker-6" data-name="Maker" class="cls-22" transform="translate(4 5) rotate(90)"><tspan x="0" y="0">Maker</tspan></text>
      </g>
      <g id="Group_70-6" data-name="Group 70" transform="translate(74.83 354)">
        <rect id="Rectangle_24-14" data-name="Rectangle 24" class="cls-21" width="57.241" height="15" rx="3"/>
        <text id="Educação-7" data-name="Educação" class="cls-22" transform="translate(5 11)"><tspan x="0" y="0">Educação</tspan></text>
      </g>
      <text id="_20_03_2019-7" data-name="20/03/2019" class="cls-25" transform="translate(290.262 495.652)"><tspan x="-53.66" y="0">20/03/2019</tspan></text>
    </g>
    <g id="Group_103" data-name="Group 103" transform="translate(78 1155)">
      <rect id="Rectangle_3-8" data-name="Rectangle 3" class="cls-7" width="289" height="371.652" rx="5" transform="translate(10 248)"/>
      <text id="MAKER_a_revolução_na_sociedade_contemporânea_6" data-name="MAKER a revolução na sociedade contemporânea
" class="cls-29" transform="translate(26 466.137)"><tspan x="0" y="24">MAKER a revolução </tspan><tspan x="0" y="50">na sociedade </tspan><tspan x="0" y="76">contemporânea</tspan></text>
      <text id="Name-7" data-name="Name" class="cls-23" transform="translate(75.032 582.652)"><tspan x="0" y="0">Name</tspan></text>
      <circle id="Ellipse_7-7" data-name="Ellipse 7" class="cls-24" cx="21.5" cy="21.5" r="21.5" transform="translate(24 553.652)"/>
      <g id="Group_69-7" data-name="Group 69" transform="translate(27 459.917) rotate(-90)">
        <rect id="Rectangle_24-15" data-name="Rectangle 24" class="cls-21" width="41" height="15" rx="3" transform="translate(15) rotate(90)"/>
        <text id="Maker-7" data-name="Maker" class="cls-22" transform="translate(4 5) rotate(90)"><tspan x="0" y="0">Maker</tspan></text>
      </g>
      <g id="Group_70-7" data-name="Group 70" transform="translate(70.19 444.917)">
        <rect id="Rectangle_24-16" data-name="Rectangle 24" class="cls-21" width="57.241" height="15" rx="3" transform="translate(0 0)"/>
        <text id="Educação-8" data-name="Educação" class="cls-22" transform="translate(5 11)"><tspan x="0" y="0">Educação</tspan></text>
      </g>
      <text id="_20_03_2019-8" data-name="20/03/2019" class="cls-25" transform="translate(289 599.652)"><tspan x="-53.66" y="0">20/03/2019</tspan></text>
    </g>
    <g id="Group_111" data-name="Group 111" transform="translate(381 1071)">
      <rect id="Rectangle_3-9" data-name="Rectangle 3" class="cls-7" width="290.262" height="180.652" rx="5" transform="translate(10 333)"/>
      <text id="MAKER_a_revolução_na_sociedade_contemporânea_7" data-name="MAKER a revolução na sociedade contemporânea
" class="cls-29" transform="translate(26 373.956)"><tspan x="0" y="24">MAKER a revolução </tspan><tspan x="0" y="48">na sociedade </tspan><tspan x="0" y="72">contemporânea</tspan></text>
      <text id="Name-8" data-name="Name" class="cls-23" transform="translate(75.372 485.652)"><tspan x="0" y="0">Name</tspan></text>
      <circle id="Ellipse_7-8" data-name="Ellipse 7" class="cls-24" cx="21.5" cy="21.5" r="21.5" transform="translate(24 456.652)"/>
      <g id="Group_69-8" data-name="Group 69" transform="translate(27 369) rotate(-90)">
        <rect id="Rectangle_24-17" data-name="Rectangle 24" class="cls-21" width="41" height="15" rx="3" transform="translate(15) rotate(90)"/>
        <text id="Maker-8" data-name="Maker" class="cls-22" transform="translate(4 5) rotate(90)"><tspan x="0" y="0">Maker</tspan></text>
      </g>
      <g id="Group_70-8" data-name="Group 70" transform="translate(74.83 354)">
        <rect id="Rectangle_24-18" data-name="Rectangle 24" class="cls-21" width="57.241" height="15" rx="3"/>
        <text id="Educação-9" data-name="Educação" class="cls-22" transform="translate(5 11)"><tspan x="0" y="0">Educação</tspan></text>
      </g>
      <text id="_20_03_2019-9" data-name="20/03/2019" class="cls-25" transform="translate(290.262 495.652)"><tspan x="-53.66" y="0">20/03/2019</tspan></text>
    </g>
    <g id="Group_112" data-name="Group 112" transform="translate(381 1263)">
      <rect id="Rectangle_3-10" data-name="Rectangle 3" class="cls-7" width="290.262" height="180.652" rx="5" transform="translate(10 333)"/>
      <text id="MAKER_a_revolução_na_sociedade_contemporânea_8" data-name="MAKER a revolução na sociedade contemporânea
" class="cls-29" transform="translate(26 373.956)"><tspan x="0" y="24">MAKER a revolução </tspan><tspan x="0" y="48">na sociedade </tspan><tspan x="0" y="72">contemporânea</tspan></text>
      <text id="Name-9" data-name="Name" class="cls-23" transform="translate(75.372 485.652)"><tspan x="0" y="0">Name</tspan></text>
      <circle id="Ellipse_7-9" data-name="Ellipse 7" class="cls-24" cx="21.5" cy="21.5" r="21.5" transform="translate(24 456.652)"/>
      <g id="Group_69-9" data-name="Group 69" transform="translate(27 369) rotate(-90)">
        <rect id="Rectangle_24-19" data-name="Rectangle 24" class="cls-21" width="41" height="15" rx="3" transform="translate(15) rotate(90)"/>
        <text id="Maker-9" data-name="Maker" class="cls-22" transform="translate(4 5) rotate(90)"><tspan x="0" y="0">Maker</tspan></text>
      </g>
      <g id="Group_70-9" data-name="Group 70" transform="translate(74.83 354)">
        <rect id="Rectangle_24-20" data-name="Rectangle 24" class="cls-21" width="57.241" height="15" rx="3"/>
        <text id="Educação-10" data-name="Educação" class="cls-22" transform="translate(5 11)"><tspan x="0" y="0">Educação</tspan></text>
      </g>
      <text id="_20_03_2019-10" data-name="20/03/2019" class="cls-25" transform="translate(290.262 495.652)"><tspan x="-53.66" y="0">20/03/2019</tspan></text>
    </g>
    <g id="Group_113" data-name="Group 113" transform="translate(231 452)">
      <g id="Group_83" data-name="Group 83">
        <circle id="Ellipse_8" data-name="Ellipse 8" class="cls-31" cx="23.351" cy="23.351" r="23.351" transform="translate(47 1562)"/>
        <text id="_1" data-name="1" class="cls-29" transform="translate(69.5 1593)"><tspan x="-7.2" y="0">1</tspan></text>
      </g>
      <g id="Group_84" data-name="Group 84" transform="translate(56)">
        <circle id="Ellipse_8-2" data-name="Ellipse 8" class="cls-31" cx="23.351" cy="23.351" r="23.351" transform="translate(47 1562)"/>
        <text id="_2" data-name="2" class="cls-29" transform="translate(69.5 1593)"><tspan x="-7.212" y="0">2</tspan></text>
      </g>
      <g id="Group_85" data-name="Group 85" transform="translate(112)">
        <circle id="Ellipse_8-3" data-name="Ellipse 8" class="cls-31" cx="23.351" cy="23.351" r="23.351" transform="translate(47 1562)"/>
        <text id="_3" data-name="3" class="cls-29" transform="translate(69.5 1593)"><tspan x="-7.2" y="0">3</tspan></text>
      </g>
      <g id="Group_86" data-name="Group 86" transform="translate(165)">
        <circle id="Ellipse_8-4" data-name="Ellipse 8" class="cls-31" cx="23.351" cy="23.351" r="23.351" transform="translate(47 1562)"/>
        <text id="_4" data-name="4" class="cls-29" transform="translate(69.5 1593)"><tspan x="-7.2" y="0">4</tspan></text>
      </g>
    </g>
  </g>
</svg>
